<?xml version="1.0" encoding="iso-8859-1"?>
<!-- Generator: Adobe Illustrator 19.0.0, SVG Export Plug-In . SVG Version: 6.00 Build 0)  -->
<svg version="1.1" id="Layer_1" xmlns="http://www.w3.org/2000/svg" xmlns:xlink="http://www.w3.org/1999/xlink" x="0px" y="0px"
	 viewBox="0 0 511.996 511.996" style="enable-background:new 0 0 511.996 511.996;" xml:space="preserve">
<circle style="fill:#E7334a;" cx="75.76" cy="103.842" r="75.76"/>
<path style="opacity:0.1;enable-background:new    ;" d="M30.939,103.845c0-36.541,25.87-67.035,60.293-74.177
	c-4.995-1.036-10.168-1.586-15.47-1.586C33.92,28.082,0,62.003,0,103.845s33.92,75.762,75.763,75.762
	c5.302,0,10.475-0.55,15.47-1.586C56.809,170.879,30.939,140.385,30.939,103.845z"/>
<circle style="fill:#313f78;" cx="429.817" cy="414.574" r="75.76"/>
<path style="opacity:0.1;enable-background:new    ;" d="M384.991,414.577c0-36.54,25.87-67.035,60.292-74.177
	c-4.995-1.036-10.168-1.585-15.47-1.585c-41.842,0-75.762,33.92-75.762,75.762s33.92,75.762,75.762,75.762
	c5.302,0,10.475-0.549,15.47-1.585C410.861,481.612,384.991,451.118,384.991,414.577z"/>
<rect x="5.915" y="344.724" style="fill:#00A393;" width="139.701" height="139.701"/>
<rect x="5.915" y="344.724" style="opacity:0.1;enable-background:new    ;" width="41.252" height="139.701"/>
<rect x="371.698" y="45.728" transform="matrix(-0.7071 0.7071 -0.7071 -0.7071 807.1606 -126.6534)" style="fill:#DFD332" width="116.227" height="116.227"/>
<polygon style="opacity:0.1;enable-background:new    ;" points="378.568,103.845 445.284,37.129 429.814,21.659 347.628,103.845
	429.814,186.03 445.284,170.56 "/>
<g>
	<path style="fill:#333333;" d="M81.233,210.955c-1.104-1.104-2.563-1.903-4.112-2.141c-1.48-0.228-2.935-0.091-4.328,0.467
		c-0.938,0.376-1.786,0.96-2.5,1.674l-31.079,31.079c-3.021,3.021-3.021,7.918,0,10.938c3.021,3.022,7.918,3.022,10.938,0
		l17.877-17.877v66.903c0,4.272,3.463,7.735,7.735,7.735s7.735-3.463,7.735-7.735v-66.903l17.878,17.877
		c1.51,1.511,3.49,2.266,5.469,2.266c1.979,0,3.959-0.755,5.469-2.266c3.021-3.021,3.021-7.918,0-10.938
		C112.313,242.035,81.234,210.956,81.233,210.955z"/>
	<path style="fill:#333333;" d="M466.365,265.449c-3.021-3.021-7.918-3.021-10.938,0l-17.877,17.877v-66.903
		c0-4.272-3.463-7.735-7.735-7.735s-7.735,3.463-7.735,7.735v66.903l-17.878-17.877c-3.021-3.021-7.918-3.021-10.938,0
		c-3.021,3.021-3.021,7.918,0,10.938l31.08,31.08c2.209,2.209,5.702,2.896,8.568,1.619c0.879-0.392,1.693-0.937,2.373-1.619
		l31.079-31.08C469.385,273.367,469.385,268.469,466.365,265.449z"/>
	<path style="fill:#333333;" d="M297.108,108.133c0.876-1.338,1.347-2.879,1.308-4.48c-0.048-1.963-0.876-3.891-2.264-5.279
		l-31.079-31.08c-3.021-3.021-7.918-3.021-10.938,0c-3.021,3.021-3.021,7.918,0,10.938l17.877,17.878h-66.903
		c-4.272,0-7.735,3.462-7.735,7.735c0,4.272,3.463,7.735,7.735,7.735h66.903l-17.877,17.877c-3.021,3.021-3.021,7.918,0,10.938
		c1.51,1.51,3.49,2.266,5.469,2.266c1.979,0,3.959-0.755,5.469-2.266c0,0,31.079-31.079,31.079-31.08
		C296.513,108.955,296.83,108.558,297.108,108.133z"/>
</g>
<g>
</g>
<g>
</g>
<g>
</g>
<g>
</g>
<g>
</g>
<g>
</g>
<g>
</g>
<g>
</g>
<g>
</g>
<g>
</g>
<g>
</g>
<g>
</g>
<g>
</g>
<g>
</g>
<g>
</g>
</svg>
