<svg xmlns="http://www.w3.org/2000/svg" viewBox="0 0 16 16">
  <g fill="none">
    <path fill="#FF7C50" stroke="#FF7C50" stroke-width="2" d="M4,5.99810135 C4,4.89458045 4.88670635,4 5.99810135,4 L10.0018986,4 C11.1054196,4 12,4.88670635 12,5.99810135 L12,10.0018986 C12,11.1054196 11.1092818,12 10.0012574,12 L7.36491715,12 L6.00571036,12 C4.89798712,12 4,11.1132936 4,10.0018986 L4,5.99810135 Z"/>
    <path fill="#313F78" d="M8,0 C3.6,0 0,3.6 0,8 C0,12.4 3.6,16 8,16 C12.4,16 16,12.4 16,8 C16,3.6 12.4,0 8,0 L8,0 Z M8,14 C4.7,14 2,11.3 2,8 C2,4.7 4.7,2 8,2 C11.3,2 14,4.7 14,8 C14,11.3 11.3,14 8,14 L8,14 Z"/>
    <circle cx="9.5" cy="8.5" r="2.5" fill="#313F78" stroke="#FFF"/>
    <rect width="3" height="2" x="5" y="3" fill="#FFF"/>
    <rect width="1.4" height="1" x="5.8" y="3.9" fill="#313F78"/>
  </g>
</svg>
