<?xml version="1.0" encoding="utf-8"?>
<!-- Generator: Adobe Illustrator 18.1.1, SVG Export Plug-In . SVG Version: 6.00 Build 0)  -->
<!DOCTYPE svg PUBLIC "-//W3C//DTD SVG 1.1//EN" "http://www.w3.org/Graphics/SVG/1.1/DTD/svg11.dtd">
<svg version="1.1" id="Layer_1" xmlns="http://www.w3.org/2000/svg" xmlns:xlink="http://www.w3.org/1999/xlink" x="0px" y="0px"
	 viewBox="0 0 782.9 134.1" enable-background="new 0 0 782.9 134.1" xml:space="preserve">
<g>
	<g>
		<path fill="#FFFFFF" d="M128.6,117.9c0-0.2-1.6-11.8-6.2-28.7c5.2-0.6,9.3-5,9.3-10.4c0-5.8-4.7-10.6-10.6-10.6
			c-1.5,0-3.2,0.4-4.5,1.1c-2.4-7.6-5.4-15.9-8.9-23.9c-9.9-22.9-23.2-31-32.3-33.7l-6.1-5.9l-0.5,2.7l-2.6-5l-0.5,3.4L63,2
			l-0.3,3.3L59.3,0l1.9,10.6c-8.4,1.2-25.3,7.2-37.2,34.8c-3.5,8-6.5,16.2-8.9,23.9c-1.3-0.7-3-1.1-4.5-1.1C4.7,68.2,0,73,0,78.8
			c0,5.4,4.1,9.9,9.3,10.4c-4.6,16.9-6.2,28.5-6.2,28.7L3,118.6c-0.2,2.2,0.2,2.6,1.9,3.3c13.6,6.2,35.7,12.2,61,12.2h0
			c25.3,0,47.4-5.9,61-12.1c1.7-0.8,2.1-1.2,1.9-3.4L128.6,117.9z M65.7,113.5c-16.2,0.2-29.6-9.9-29.6-22.2c0-6.5,3.7-16,9.5-23.2
			c-5.4-2.4-9.1-7.5-9.1-13.8c0-8.4,6.7-15.1,15.1-15.1c6.7,0,12.5,4.5,14.3,10.4c2-6.1,7.6-10.4,14.3-10.4
			c8.4,0,15.1,6.7,15.1,15.1c0,6.1-3.7,11.5-9.1,13.8c5.8,7.4,9.5,16.7,9.5,23.1C95.6,103.4,82.2,113.5,65.7,113.5z"/>
		<circle fill="#FFFFFF" cx="54.5" cy="57.6" r="2.7"/>
		<circle fill="#FFFFFF" cx="77.2" cy="57.6" r="2.7"/>
		<path fill="#FFFFFF" d="M63.8,78.1c-0.2-0.7-2.1-3.2-6.5-2c-4.4,1.2-3.9,8.9,0,9.4c0,0-2.2-0.7-2.1-3.4c0.1-2.9,2-4.1,4.4-2.9
			C62.3,80.5,64.2,79.5,63.8,78.1z"/>
		<path fill="#FFFFFF" d="M67.9,78.1c0.2-0.7,2.1-3.2,6.5-2c4.4,1.2,3.9,8.9,0,9.4c0,0,2.2-0.7,2.1-3.4c-0.2-3.6-3.5-3.4-4.4-2.9
			C69.4,80.5,67.5,79.5,67.9,78.1z"/>
	</g>
	<g>
		<path fill="#FFFFFF" d="M247.3,114.2c-5,5.2-14,13.2-33.4,13.2c-19.4,0-38.2-11.7-38.2-37.4c0-25.7,18.9-37.3,38.9-37.3
			c20,0,28.4,10.5,30.5,12.6l-15.7,13.1c-1.6-1.6-6.3-6.3-14.7-6.3s-15,6.3-15,17.9c0,11.6,6.5,17.9,14.9,17.9s9.8-2.6,9.8-2.6v-5.2
			h-11v-18h34V114.2z"/>
		<path fill="#FFFFFF" d="M281.7,127.5c-17.9,0-31-10.1-31-27.9s13.1-27.9,31-27.9c17.9,0,31,10.1,31,27.9S299.6,127.5,281.7,127.5z
			 M281.7,90c-4.7,0-7.4,3.7-7.4,9.2c0,5.5,2.6,9.1,7.4,9.1s7.4-3.7,7.4-9.1C289.1,93.7,286.5,90,281.7,90z"/>
		<path fill="#FFFFFF" d="M356.9,94.1h-1c-1.1,0-3.7-1.5-6.8-1.5s-6,1.5-7.5,3.5c-1.5,1.9-2.2,5-2.2,9.2v20.8h-23v-53h23.2l-0.3,6.6
			c3.5-5.8,7.7-8,13.4-8c3.7,0,5.3,0.9,5.3,0.9L356.9,94.1z"/>
		<path fill="#FFFFFF" d="M373.9,70.8c-7.6,0-12.6-4.4-12.6-11.2c0-6.8,5-11.2,12.6-11.2c7.7,0,12.6,4.4,12.6,11.2
			C386.5,66.4,381.5,70.8,373.9,70.8z M385.3,126.1h-23v-53h23V126.1z"/>
		<path fill="#FFFFFF" d="M415.3,126.1h-24v-72h24V126.1z"/>
		<path fill="#FFFFFF" d="M443.3,126.1h-24v-72h24V126.1z"/>
		<path fill="#FFFFFF" d="M503.3,126.1h-22.9l-0.5-4.6c-2.6,2.6-6.8,6-13.7,6c-10,0-20.5-4.4-20.5-17.5c0-13.1,13.3-16.2,21.1-16.5
			l12.5-0.5v-0.5c0-2.9-2.5-5-8.8-5s-13.2,2.6-16.8,4.7l-5.8-14.9c5.2-2.4,14.7-5.6,25.7-5.6c11,0,17.6,2.1,22.3,6.3
			c4.7,4.2,7.4,10,7.4,18.9V126.1z M479.3,104.4l-4.7,0.3c-2.5,0.1-5.2,1.1-5.2,4.2c0,3.1,2.6,4.2,5.2,4.2s4.7-1.6,4.7-2.1V104.4z"
			/>
		<path fill="#FFFFFF" d="M555.8,121.3c-5.8,4.4-13,6.2-21.4,6.2s-18.1-2.3-27.9-9.7L517,100c6.7,5.7,16.2,7.9,19.3,7.9
			c3.2,0,5.4-0.9,5.4-3s-2.6-2.9-5.2-3.8c-2.6-0.7-8.4-2.6-10.5-3.4c-2.1-0.8-6.3-2.2-10-5.4s-6.6-7.6-6.6-15.4
			c0-7.9,4.1-14,8.4-17.5c4.4-3.7,11.7-6.3,21.3-6.3s19.5,3.5,25.8,8.7l-9,16.8c-5.5-4.8-13.4-6.9-17.2-6.9c-3.8,0-5.9,0.7-5.9,2.9
			c0,2.1,3.4,2.8,5,3.4c1.7,0.5,6.1,1.8,8.6,2.6c2.5,0.8,8.4,2.9,12.1,6.1c3.7,3.1,6.8,8.1,6.8,15.8
			C565.3,110,561.6,116.8,555.8,121.3z"/>
		<path fill="#FFFFFF" d="M607.3,90.1h-11v14.6c0,3.2,1.3,3.7,4,3.7c2.6,0,5.1-0.7,5.1-0.7l1,18.1c-2.1,0.5-7.9,1.8-14.7,1.8
			c-6.8,0-11.5-1.8-14.7-4.6c-3.2-2.9-4.7-7.7-4.7-15.5V90.1h-7v-17h7v-19h24v19h11V90.1z"/>
		<path fill="#FFFFFF" d="M665.3,126.1h-22l-0.5-4.6c-2.6,2.6-6.8,6-13.7,6c-10,0-20.5-4.4-20.5-17.5c0-13.1,13.4-16.2,21.2-16.5
			l12.5-0.5v-0.5c0-2.9-2.6-5-8.9-5s-13.2,2.6-16.9,4.7l-5.8-14.9c5.2-2.4,14.7-5.6,25.7-5.6c11,0,17.2,2.1,21.9,6.3
			c4.7,4.2,7,10,7,18.9V126.1z M642.3,104.4l-4.8,0.3c-2.5,0.1-5.3,1.1-5.3,4.2c0,3.1,2.7,4.2,5.3,4.2s3.8-1.6,4.8-2.1V104.4z"/>
		<path fill="#FFFFFF" d="M717.3,122.6c0,0-6.3,4.9-19.4,4.9c-15.8,0-29.4-10.1-29.4-27.9s13.7-27.9,29.4-27.9
			c12.1,0,18.9,4.2,18.9,4.2l-3.7,17.9c-2.1-1.6-6.3-3.7-11.6-3.7s-9.8,3.1-9.8,9.2c0,6,4,9.1,10.3,9.1c6.3,0,11-3.7,11-3.7
			L717.3,122.6z"/>
		<path fill="#FFFFFF" d="M782.9,126.1h-26.8l-8.4-16.2l-3.5,3.8v12.4h-24v-72h24v32.8l11.3-13.8h26.8L764,92.8L782.9,126.1z"/>
	</g>
</g>
</svg>
