<svg xmlns="http://www.w3.org/2000/svg" width="234" height="281" viewBox="0 0 234 281">
  <g fill="none">
    <path fill="#182142" d="M136.391,19.322 C136.391,8.646 127.737,0 117.069,0 C106.393,0 97.747,8.646 97.747,19.322 C97.747,26.515 101.729,32.711 107.557,36.045 L107.557,57.94 L126.564,57.94 L126.564,36.045 C132.41,32.711 136.391,26.515 136.391,19.322 Z M90.003,176.61 L3.895,262.727 C-0.078,266.7 -0.078,273.123 3.895,277.087 C7.859,281.034 14.282,281.034 18.246,277.087 L104.372,190.961 C108.327,186.997 108.327,180.565 104.372,176.61 C100.408,172.637 93.976,172.637 90.003,176.61 Z M230.244,262.727 L144.136,176.61 C140.154,172.637 133.731,172.637 129.758,176.61 C125.803,180.565 125.803,186.997 129.758,190.961 L215.893,277.087 C219.848,281.034 226.28,281.034 230.244,277.087 C234.235,273.114 234.235,266.7 230.244,262.727 Z"/>
    <path fill="#313F78" d="M117.069,48.165 C180.924,48.165 232.983,101.484 232.983,164.928 C232.983,228.38 180.942,280.124 117.069,280.124 C53.214,280.124 1.155,227.75 1.155,164.298 C1.156,100.854 53.214,48.165 117.069,48.165 Z"/>
    <path fill="#182142" d="M225.729,45.399 L197.367,23.207 C189.535,17.081 178.22,18.464 172.086,26.296 L157.008,45.557 C180.373,53.59 200.64,68.379 215.612,87.535 L228.808,70.681 C234.952,62.84 233.561,51.525 225.729,45.399 Z M36.413,22.927 L7.85,45.277 C-0.035,51.446 -1.435,62.84 4.735,70.733 L18.045,87.745 C33.053,68.423 53.486,53.529 77.087,45.496 L61.869,26.043 C55.7,18.149 44.297,16.758 36.413,22.927 Z"/>
    <path fill="#EBEBEB" d="M117.069,75.555 C165.846,75.555 205.61,116.281 205.61,164.744 C205.61,213.215 165.846,252.734 117.069,252.734 C68.292,252.734 28.528,212.743 28.528,164.272 C28.528,115.801 68.292,75.555 117.069,75.555 Z"/>
    <path fill="#FB7A4F" d="M165.383,154.575 L126.722,154.575 L126.722,106.262 C126.722,100.915 122.408,96.601 117.061,96.601 C111.732,96.601 107.4,100.915 107.4,106.262 L107.4,164.21 C107.4,169.522 111.723,173.871 117.061,173.871 L165.374,173.871 C170.686,173.871 175.017,169.548 175.017,164.21 C175.017,158.872 170.703,154.575 165.383,154.575 Z"/>
  </g>
</svg>
