<svg xmlns="http://www.w3.org/2000/svg" viewBox="0 0 16 16">
  <g fill="none">
    <path fill="#313F78" d="M8,0 C3.6,0 0,3.6 0,8 C0,12.4 3.6,16 8,16 C12.4,16 16,12.4 16,8 C16,3.6 12.4,0 8,0 L8,0 Z M8,14 C4.7,14 2,11.3 2,8 C2,4.7 4.7,2 8,2 C11.3,2 14,4.7 14,8 C14,11.3 11.3,14 8,14 L8,14 Z"/>
    <path fill="#FF7C50" stroke="#FF7C50" stroke-width=".3" d="M11.24,11.22 L11.24,11.028 C10.448,11.028 10.124,10.56 9.764,9.336 L8.852,6.264 C8.252,4.26 7.412,3.696 6.404,3.696 L5.804,4.644 L5.804,4.836 C6.608,4.836 7.328,5.04 7.688,6.492 L5.216,12 L6.788,12 L8.204,8.424 L8.636,10.068 C9.116,11.88 9.896,12.168 10.688,12.168 L11.24,11.22 Z"/>
  </g>
</svg>
