<svg xmlns="http://www.w3.org/2000/svg" viewBox="0 0 256 239">
  <g fill="#313F78">
    <path d="M88.388,152.753 C85.723,157.154 84.404,160.739 86.533,166.333 C92.411,181.787 84.119,196.826 68.535,200.908 C53.838,204.759 39.519,195.1 36.603,179.365 C34.019,165.438 44.827,151.785 60.183,149.608 C61.469,149.424 62.783,149.403 64.945,149.241 L88.303,110.073 C73.612,95.465 64.868,78.39 66.803,57.23 C68.171,42.273 74.053,29.347 84.803,18.753 C105.393,-1.535 136.805,-4.82 161.049,10.752 C184.333,25.71 194.997,54.846 185.907,79.783 C179.053,77.925 172.151,76.051 164.564,73.993 C167.418,60.128 165.307,47.678 155.956,37.012 C149.778,29.97 141.85,26.279 132.836,24.919 C114.764,22.189 97.021,33.799 91.756,51.537 C85.78,71.667 94.825,88.112 119.54,100.504 C108.93,118.339 98.765,135.611 88.388,152.753 Z"/>
    <path d="M172.428,119.246 C210.448,107.483 239.114,128.53 249.398,151.063 C261.82,178.282 253.328,210.52 228.933,227.313 C203.893,244.551 172.226,241.606 150.041,219.462 C155.695,214.729 161.377,209.975 167.448,204.896 C189.36,219.088 208.525,218.42 222.753,201.614 C234.886,187.277 234.623,165.9 222.138,151.864 C207.73,135.667 188.431,135.173 165.103,150.721 C155.426,133.553 145.581,116.522 136.21,99.23 C133.05,93.402 129.562,90.02 122.44,88.787 C110.547,86.725 102.869,76.512 102.408,65.07 C101.955,53.754 108.622,43.525 119.042,39.54 C129.364,35.591 141.477,38.778 148.42,47.554 C154.094,54.724 155.897,62.794 152.911,71.637 C152.081,74.103 151.006,76.489 149.841,79.411 C157.316,92.597 164.906,105.983 172.428,119.246 Z"/>
    <path d="M167.707,187.21 L121.937,187.21 C117.55,205.254 108.074,219.822 91.747,229.086 C79.054,236.286 65.374,238.727 50.814,236.376 C24.006,232.053 2.086,207.92 0.156,180.746 C-2.028,149.962 19.131,122.599 47.334,116.453 C49.281,123.524 51.249,130.663 53.196,137.717 C27.32,150.919 18.364,167.553 25.606,188.353 C31.981,206.657 50.09,216.69 69.753,212.81 C89.833,208.848 99.957,192.16 98.721,165.378 C117.757,165.378 136.809,165.181 155.847,165.475 C163.281,165.592 169.02,164.821 174.62,158.267 C183.84,147.483 200.811,148.456 210.741,158.641 C220.889,169.05 220.403,185.798 209.664,195.768 C199.303,205.388 182.934,204.874 173.24,194.508 C171.248,192.372 169.678,189.835 167.707,187.21 Z"/>
  </g>
</svg>
