<svg xmlns="http://www.w3.org/2000/svg" viewBox="0 0 16 16">
  <g fill="none">
    <path fill="#313F78" d="M8,0 C3.6,0 0,3.6 0,8 C0,12.4 3.6,16 8,16 C12.4,16 16,12.4 16,8 C16,3.6 12.4,0 8,0 L8,0 Z M8,14 C4.7,14 2,11.3 2,8 C2,4.7 4.7,2 8,2 C11.3,2 14,4.7 14,8 C14,11.3 11.3,14 8,14 L8,14 Z"/>
    <g transform="translate(3.6 4)">
      <path fill="#FF7C50" d="M1.61289241,2.9532535 C1.61289241,2.64308507 1.97253233,2.55335503 2.18822031,2.55335503 C2.38466672,2.55335503 2.62002813,2.61549428 2.74430663,2.73929295 C2.82304834,2.81496368 2.85543753,2.87009727 2.88125291,2.94624784 C2.91407395,3.0359299 2.93374738,3.13218576 3.05802588,3.13218576 L3.69894788,3.13218576 C3.84942564,3.13218576 3.88882049,3.10464296 3.88882049,2.93924218 C3.88882049,2.22960713 3.33273416,1.82975664 2.69838597,1.69194665 L2.69838597,1.14065872 C2.69838597,1.01686006 2.65899112,0.940709486 2.50851336,0.940709486 L1.99796384,0.940709486 C1.84748608,0.940709486 1.80809123,1.01638022 1.80809123,1.14065872 L1.80809123,1.67092967 C1.12777439,1.80173399 0.559020293,2.22917527 0.559020293,3.00094958 C0.559020293,3.87593742 1.16760109,4.1515574 1.82776466,4.3716599 C2.38385099,4.55802968 2.96613657,4.56460348 2.96613657,4.95049063 C2.96613657,5.33637779 2.67871254,5.41905418 2.32521457,5.41905418 C2.08284749,5.41905418 1.81509689,5.35648308 1.68386071,5.19156214 C1.59897706,5.08830062 1.56615601,4.99861856 1.56006205,4.90893651 C1.54691444,4.73657806 1.47517839,4.71599293 1.32426878,4.71599293 L0.689872602,4.71599293 C0.539394846,4.71599293 0.5,4.75097325 0.5,4.90893651 C0.5,5.6942423 1.12825423,6.17024336 1.80813922,6.32163282 L1.80813922,6.85934128 C1.80813922,6.98313994 1.84753406,7.05929051 1.99801182,7.05929051 L2.50856135,7.05929051 C2.6590391,7.05929051 2.69843395,6.98318792 2.69843395,6.85934128 L2.69843395,6.33607599 C3.47020826,6.21837129 3.99999936,5.7502396 3.99999936,4.92337969 C4.00076711,3.98663646 3.30735064,3.78668722 2.83614797,3.63529777 C2.57453932,3.52546245 1.61289241,3.37368912 1.61289241,2.9532535 Z"/>
      <rect width="3.2" height="6" x="4.8" y="1.2" fill="#FDB39A"/>
    </g>
  </g>
</svg>
