<svg xmlns="http://www.w3.org/2000/svg"  viewBox="0 0 512 464">
  <g fill="none">
    <path fill="#EF4C35" d="M391.019,282.834 L379.26,274.178 C375.57,271.46 370.541,271.46 366.851,274.178 L355.279,282.693 C351.389,285.557 349.964,290.712 351.829,295.168 L356.446,306.19 C358.077,310.082 361.884,312.614 366.101,312.614 L380.728,312.614 C385.09,312.614 388.994,309.911 390.528,305.827 L394.614,294.944 C396.259,290.557 394.791,285.612 391.019,282.834 Z"/>
    <path fill="#DD3E2B" d="M397.422,373.712 C398.204,371.9 398.477,369.889 398.156,367.898 L389.814,316.179 C389.368,313.411 387.856,311.049 385.745,309.469 L361.296,309.469 C359.185,311.049 357.675,313.411 357.227,316.179 L348.885,367.898 C348.582,369.771 348.801,371.665 349.478,373.392 L348.751,380.032 L359.22,380.032 L387.825,380.032 L398.291,380.032 L397.422,373.712 Z"/>
    <g fill="#475796" transform="translate(233 241)">
      <path d="M150.053 65.917L150.824 64.073 150.824 64.073 150.831 64.059 154.353 55.658C154.542 55.204 154.771 54.775 155.018 54.358L161.464 39.423 193.008.303 222.824 14.022 222.824 14.022 235.985 19.505C237.798 20.135 279.003 35.043 279.003 86.127L279.003 128.566C279.003 134.345 274.318 139.032 268.537 139.032L254.183 139.032 235.969 139.032 220.27 139.032 169.165 139.032 159.71 139.032 155.804 111.454 149.378 71.627C149.061 69.699 149.297 67.72 150.053 65.917zM129.425 65.917L128.652 64.073 128.652 64.073 128.645 64.059 125.125 55.658C124.936 55.204 124.707 54.775 124.46 54.358L118.014 39.423 86.468.303 56.652 14.022 56.652 14.022 43.493 19.505C41.678 20.135.472 35.043.472 86.127L.472 128.566C.472 134.345 5.159 139.032 10.938 139.032L25.293 139.032 43.507 139.032 59.206 139.032 110.311 139.032 119.766 139.032 123.672 111.454 130.098 71.627C130.414 69.699 130.178 67.72 129.425 65.917z"/>
    </g>
    <path fill="#EDEFF4" d="M428.375,242.449 L416.251,234.449 C415.799,234.152 415.326,233.905 414.842,233.683 L405.326,227.565 L341.695,227.565 L333.217,232.627 C332.435,232.906 331.67,233.253 330.956,233.725 L317.734,242.449 C313.351,245.342 311.787,251.039 314.087,255.765 L331.426,291.406 C332.787,294.198 335.316,296.245 338.333,296.988 C339.16,297.193 340.001,297.293 340.839,297.293 C343.05,297.293 345.227,296.592 347.044,295.256 L367.467,280.224 C367.81,279.971 368.128,279.697 368.433,279.412 L373.152,275.888 L377.485,279.174 C377.883,279.587 378.308,279.976 378.776,280.322 L392.83,290.665 C392.852,290.683 392.878,290.699 392.902,290.717 L399.067,295.256 C400.884,296.592 403.061,297.293 405.272,297.293 C406.11,297.293 406.951,297.193 407.78,296.988 C410.795,296.245 413.326,294.198 414.685,291.406 L432.026,255.765 C434.321,251.04 432.758,245.343 428.375,242.449 Z"/>
    <path fill="#694B4B" d="M376.722,0.503 L370.012,0.503 C324.172,0.503 286.876,37.798 286.876,83.639 L286.876,94.728 L286.876,105.106 L286.876,122.64 C286.876,122.64 305.804,120.764 308.13,111.583 L308.119,111.574 C308.918,110.706 309.587,109.714 310.059,108.607 C320.795,108.283 370.946,107.893 399.585,73.304 C403.005,83.304 414.566,102.237 436.814,108.2 C437.269,109.406 437.953,110.492 438.789,111.436 L438.603,111.583 C440.929,120.763 459.857,122.64 459.857,122.64 L459.857,105.035 L459.857,94.727 L459.857,83.638 C459.861,37.798 422.564,0.503 376.722,0.503 Z M439.402,105.613 L440.201,105.035 L440.314,105.035 L439.01,105.999 L439.402,105.613 Z M438.995,105.865 L439.088,105.58 L439.361,105.036 L439.477,105.036 L439.145,105.72 L438.995,105.865 Z M436.789,107.569 L436.759,107.526 L438.81,106.042 L438.324,106.508 L436.825,107.617 L436.789,107.569 Z M438.482,107.086 L437.839,108.416 C437.835,108.416 437.832,108.414 437.83,108.412 L437.739,108.372 C437.723,108.362 437.707,108.355 437.694,108.348 L438.742,106.268 L438.768,106.241 L438.482,107.086 Z"/>
    <path fill="#563B3B" d="M301.531,105.105 L301.531,94.727 L301.531,83.638 C301.531,39.129 336.694,2.684 380.697,0.603 C379.377,0.541 378.055,0.502 376.723,0.502 L370.013,0.502 C324.173,0.502 286.877,37.797 286.877,83.638 L286.877,94.727 L286.877,105.105 L286.877,122.639 C286.877,122.639 295.241,121.805 301.53,118.554 L301.531,105.105 L301.531,105.105 Z"/>
    <path fill="#FBCB99" d="M449.877,110.585 C446.698,109.595 443.237,110.174 440.558,112.144 C437.877,114.117 436.293,117.248 436.293,120.576 L436.293,150.403 C436.293,153.732 437.874,156.86 440.555,158.835 C442.375,160.174 444.552,160.871 446.76,160.871 C447.803,160.871 448.852,160.716 449.873,160.398 C451.879,159.774 453.849,158.872 455.729,157.718 C456.84,157.038 457.808,156.158 458.592,155.124 C459.746,154.531 460.782,153.727 461.644,152.753 C465.873,147.971 468.204,141.84 468.204,135.49 C468.203,124.013 460.838,114.004 449.877,110.585 Z"/>
    <path fill="#EDBA89" d="M306.485,112.145 C303.802,110.173 300.343,109.595 297.166,110.584 C286.203,114.004 278.836,124.012 278.836,135.492 C278.836,146.972 286.204,156.982 297.166,160.399 C298.186,160.717 299.236,160.875 300.281,160.875 C302.485,160.875 304.666,160.178 306.486,158.838 C309.165,156.866 310.751,153.734 310.751,150.407 L310.751,120.578 C310.75,117.248 309.164,114.118 306.485,112.145 Z"/>
    <path fill="#FBCB99" d="M402.101,202.407 C400.042,200.434 397.28,199.401 394.41,199.506 L394.055,199.525 C393.416,199.548 392.782,199.628 392.158,199.767 C388.113,200.666 383.996,201.123 379.92,201.123 L367.123,201.123 C362.928,201.123 358.69,200.637 354.523,199.683 C351.415,198.971 348.154,199.713 345.663,201.699 C343.168,203.685 341.717,206.7 341.717,209.886 L341.717,240.334 L341.71,240.437 C341.544,243.458 342.691,246.404 344.859,248.515 L365.888,268.999 C367.844,270.904 370.466,271.967 373.193,271.967 C373.247,271.967 373.304,271.967 373.357,271.966 C376.142,271.922 378.797,270.77 380.729,268.761 L402.397,246.27 C404.274,244.32 405.325,241.718 405.325,239.008 L405.325,209.966 C405.325,207.11 404.16,204.379 402.101,202.407 Z"/>
    <path fill="#EDBA89" d="M375.309,265.857 L354.277,245.374 C352.111,243.261 350.964,240.315 351.13,237.296 L351.137,237.193 L351.137,206.745 C351.137,204.066 352.173,201.517 353.98,199.591 C351.039,199.075 348.009,199.827 345.661,201.698 C343.166,203.684 341.715,206.699 341.715,209.885 L341.715,240.333 L341.708,240.436 C341.542,243.457 342.689,246.403 344.857,248.514 L365.886,268.998 C367.842,270.903 370.464,271.966 373.191,271.966 C373.245,271.966 373.302,271.966 373.355,271.965 C376.14,271.921 378.795,270.769 380.727,268.76 L380.82,268.662 C378.758,268.304 376.831,267.339 375.309,265.857 Z"/>
    <path fill="#FBCB99" d="M434.712,102.043 C433.449,101.573 432.254,101.023 431.086,100.44 C413.499,92.231 406.198,81.556 403.254,75.19 C403.083,74.949 402.91,74.681 402.727,74.349 C400.624,70.484 397.347,72.93 397.347,72.93 L397.338,72.926 C380.911,85.524 362.968,92.89 348.055,97.175 C342.249,98.891 336.683,100.135 331.654,101.033 C321.657,102.869 315.229,103.11 315.229,103.11 C309.754,103.504 305.513,108.062 305.513,113.55 L305.513,156.263 C305.513,190.232 333.15,217.869 367.12,217.869 L379.917,217.869 C413.889,217.869 441.524,190.232 441.524,156.263 L441.524,111.85 C441.526,107.48 438.809,103.567 434.712,102.043 Z"/>
    <path fill="#EDBA89" d="M318.077,156.264 L318.077,113.551 C318.077,108.063 322.317,103.505 327.793,103.111 C327.793,103.111 334.221,102.87 344.218,101.034 C349.247,100.135 354.813,98.892 360.619,97.176 C373.821,93.383 389.39,87.169 404.187,77.055 C403.838,76.401 403.528,75.779 403.256,75.19 C403.085,74.949 402.912,74.681 402.729,74.349 C400.626,70.484 397.349,72.93 397.349,72.93 L397.34,72.926 C380.913,85.524 362.97,92.89 348.057,97.175 C342.251,98.891 336.685,100.135 331.656,101.033 C321.659,102.869 315.231,103.11 315.231,103.11 C309.756,103.504 305.515,108.062 305.515,113.55 L305.515,156.263 C305.515,190.232 333.152,217.869 367.122,217.869 L379.683,217.869 C345.711,217.869 318.077,190.233 318.077,156.264 Z"/>
    <g transform="translate(276 263)">
      <path fill="#CBCBCD" d="M0.824,117.034 L16.525,117.034 L16.525,67.208 C16.525,62.872 13.01,59.358 8.674,59.358 C4.338,59.358 0.823,62.872 0.823,67.208 L0.823,117.034 L0.824,117.034 Z"/>
      <path fill="#313F78" d="M193.284 117.034L193.284 67.208C193.284 62.872 189.769 59.358 185.433 59.358 181.097 59.358 177.582 62.872 177.582 67.208L177.582 117.034 193.284 117.034zM46.069 9.177C46.069 9.177 32.759 23.479 24.72 26.806L24.72 35.4 46.805 49.613 84.314 66.901 82.86 75.914 14.52 51.101 14.52 22.896 41.619.036 46.069 9.177z"/>
    </g>
    <path fill="#EF4C35" d="M157.545,282.834 L145.785,274.178 C142.095,271.46 137.066,271.46 133.376,274.178 L121.805,282.693 C117.914,285.557 116.489,290.712 118.355,295.168 L122.972,306.19 C124.601,310.082 128.409,312.614 132.626,312.614 L147.255,312.614 C151.617,312.614 155.521,309.911 157.055,305.827 L161.141,294.944 C162.786,290.557 161.317,285.612 157.545,282.834 Z"/>
    <path fill="#DD3E2B" d="M163.949,373.712 C164.731,371.9 165.005,369.889 164.684,367.898 L156.341,316.179 C155.895,313.411 154.384,311.049 152.272,309.469 L127.824,309.469 C125.713,311.049 124.201,313.411 123.755,316.179 L115.411,367.898 C115.109,369.771 115.328,371.665 116.006,373.392 L115.279,380.032 L125.747,380.032 L154.352,380.032 L164.818,380.032 L163.949,373.712 Z"/>
    <g fill="#475796" transform="translate(0 241)">
      <path d="M149.579 65.917L150.35 64.073 150.35 64.073 150.357 64.059 153.876 55.658C154.065 55.204 154.294 54.775 154.541 54.358L160.986 39.423 192.531.303 222.347 14.022 222.347 14.022 235.508 19.505C237.32 20.135 278.526 35.043 278.526 86.127L278.526 128.566C278.526 134.345 273.841 139.032 268.06 139.032L253.707 139.032 235.494 139.032 219.794 139.032 168.69 139.032 159.235 139.032 155.327 111.454 148.902 71.627C148.587 69.699 148.823 67.72 149.579 65.917zM128.949 65.917L128.177 64.073 128.177 64.073 128.17 64.059 124.652 55.658C124.462 55.204 124.233 54.775 123.986 54.358L117.54 39.423 85.995.303 56.18 14.022 56.18 14.022 43.02 19.505C41.207 20.136 0 35.044 0 86.128L0 128.567C0 134.346 4.687 139.033 10.466 139.033L24.822 139.033 43.035 139.033 58.735 139.033 109.839 139.033 119.294 139.033 123.202 111.455 129.627 71.628C129.94 69.699 129.703 67.72 128.949 65.917z"/>
    </g>
    <path fill="#313F78" d="M12.561,376.37 L12.561,333.933 C12.561,282.848 53.768,267.941 55.581,267.311 L68.741,261.827 L93.397,250.482 L85.997,241.305 L56.181,255.024 L43.021,260.507 C41.207,261.136 0,276.044 0,327.128 L0,369.567 C0,375.346 4.687,380.033 10.466,380.033 L13.233,380.033 C12.806,378.891 12.561,377.661 12.561,376.37 Z"/>
    <path fill="#EDEFF4" d="M194.901,242.449 L182.778,234.449 C182.326,234.152 181.853,233.905 181.369,233.683 L171.853,227.565 L108.22,227.565 L99.742,232.627 C98.96,232.906 98.195,233.253 97.481,233.725 L84.26,242.449 C79.874,245.342 78.313,251.039 80.612,255.765 L97.951,291.406 C99.31,294.198 101.84,296.245 104.857,296.988 C105.685,297.193 106.525,297.293 107.362,297.293 C109.573,297.293 111.751,296.592 113.568,295.256 L133.991,280.224 C134.333,279.971 134.652,279.697 134.957,279.412 L139.675,275.888 L144.008,279.174 C144.406,279.587 144.832,279.976 145.3,280.322 L159.352,290.665 C159.374,290.683 159.401,290.699 159.425,290.717 L165.59,295.256 C167.406,296.592 169.584,297.293 171.795,297.293 C172.632,297.293 173.473,297.193 174.301,296.988 C177.317,296.245 179.847,294.198 181.207,291.406 L198.547,255.765 C200.846,251.04 199.285,245.343 194.901,242.449 Z"/>
    <path fill="#694B4B" d="M143.248,0.503 L136.539,0.503 C90.699,0.503 53.402,37.798 53.402,83.639 L53.402,94.728 L53.402,105.106 L53.402,122.64 C53.402,122.64 72.33,120.764 74.658,111.583 L74.647,111.574 C75.446,110.706 76.115,109.714 76.586,108.607 C87.323,108.283 137.475,107.893 166.115,73.304 C169.534,83.304 181.094,102.237 203.342,108.2 C203.798,109.406 204.481,110.492 205.317,111.436 L205.131,111.583 C207.457,120.763 226.385,122.64 226.385,122.64 L226.385,105.035 L226.385,94.727 L226.385,83.638 C226.385,37.798 189.09,0.503 143.248,0.503 Z M205.929,105.613 L206.728,105.035 L206.84,105.035 L205.536,105.999 L205.929,105.613 Z M205.521,105.865 L205.613,105.58 L205.888,105.036 L206.003,105.036 L205.673,105.72 L205.521,105.865 Z M203.315,107.569 L203.285,107.526 L205.335,106.042 L204.849,106.508 L203.351,107.617 L203.315,107.569 Z M205.009,107.086 L204.365,108.416 C204.362,108.416 204.359,108.414 204.357,108.412 L204.266,108.372 C204.249,108.362 204.234,108.355 204.219,108.348 L205.268,106.268 L205.295,106.241 L205.009,107.086 Z"/>
    <path fill="#563B3B" d="M68.057,105.105 L68.057,94.727 L68.057,83.638 C68.057,39.129 103.219,2.684 147.222,0.603 C145.905,0.541 144.581,0.502 143.249,0.502 L136.54,0.502 C90.7,0.502 53.403,37.797 53.403,83.638 L53.403,94.727 L53.403,105.105 L53.403,122.639 C53.403,122.639 61.767,121.805 68.058,118.554 L68.058,105.105 L68.057,105.105 L68.057,105.105 Z"/>
    <path fill="#FBCB99" d="M216.401,110.585 C213.222,109.595 209.762,110.174 207.082,112.144 C204.401,114.117 202.817,117.248 202.817,120.576 L202.817,150.403 C202.817,153.732 204.399,156.86 207.079,158.835 C208.9,160.174 211.079,160.871 213.285,160.871 C214.327,160.871 215.376,160.716 216.396,160.398 C218.403,159.774 220.373,158.872 222.254,157.718 C223.364,157.038 224.333,156.158 225.117,155.124 C226.27,154.531 227.306,153.727 228.169,152.753 C232.398,147.971 234.728,141.84 234.728,135.49 C234.728,124.013 227.363,114.004 216.401,110.585 Z"/>
    <path fill="#EDBA89" d="M73.011,112.145 C70.329,110.173 66.869,109.595 63.691,110.584 C52.728,114.004 45.362,124.012 45.362,135.492 C45.362,146.972 52.728,156.982 63.691,160.399 C64.711,160.717 65.762,160.875 66.807,160.875 C69.011,160.875 71.191,160.178 73.011,158.838 C75.691,156.866 77.275,153.734 77.275,150.407 L77.275,120.578 C77.275,117.248 75.691,114.118 73.011,112.145 Z"/>
    <path fill="#FBCB99" d="M168.625,202.407 C166.566,200.434 163.806,199.401 160.936,199.506 L160.58,199.525 C159.941,199.548 159.306,199.628 158.683,199.767 C154.638,200.666 150.52,201.123 146.445,201.123 L133.647,201.123 C129.453,201.123 125.214,200.637 121.048,199.683 C117.94,198.971 114.678,199.713 112.186,201.699 C109.693,203.685 108.241,206.7 108.241,209.886 L108.241,240.334 L108.235,240.437 C108.068,243.458 109.215,246.404 111.382,248.515 L132.412,268.999 C134.368,270.904 136.989,271.967 139.716,271.967 C139.771,271.967 139.827,271.967 139.882,271.966 C142.667,271.922 145.321,270.77 147.254,268.761 L168.921,246.27 C170.799,244.32 171.849,241.718 171.849,239.008 L171.849,209.966 C171.851,207.11 170.687,204.379 168.625,202.407 Z"/>
    <path fill="#EDBA89" d="M141.834,265.857 L120.804,245.374 C118.636,243.261 117.489,240.315 117.657,237.296 L117.663,237.193 L117.663,206.745 C117.663,204.066 118.7,201.517 120.507,199.591 C117.564,199.075 114.535,199.827 112.187,201.698 C109.694,203.684 108.242,206.699 108.242,209.885 L108.242,240.333 L108.236,240.436 C108.069,243.457 109.216,246.403 111.383,248.514 L132.413,268.998 C134.369,270.903 136.99,271.966 139.717,271.966 C139.772,271.966 139.828,271.966 139.883,271.965 C142.668,271.921 145.322,270.769 147.255,268.76 L147.348,268.662 C145.284,268.304 143.357,267.339 141.834,265.857 Z"/>
    <path fill="#FBCB99" d="M201.238,102.043 C199.976,101.573 198.78,101.023 197.613,100.44 C180.024,92.231 172.724,81.556 169.781,75.19 C169.61,74.949 169.435,74.681 169.254,74.349 C167.15,70.484 163.874,72.93 163.874,72.93 L163.864,72.926 C147.437,85.524 129.495,92.89 114.582,97.175 C108.775,98.891 103.21,100.135 98.18,101.033 C88.183,102.869 81.756,103.11 81.756,103.11 C76.28,103.504 72.041,108.062 72.041,113.55 L72.041,156.263 C72.041,190.232 99.677,217.869 133.647,217.869 L146.445,217.869 C180.415,217.869 208.051,190.232 208.051,156.263 L208.051,111.85 C208.052,107.48 205.335,103.567 201.238,102.043 Z"/>
    <path fill="#EDBA89" d="M84.602,156.264 L84.602,113.551 C84.602,108.063 88.842,103.505 94.318,103.111 C94.318,103.111 100.745,102.87 110.742,101.034 C115.772,100.135 121.337,98.892 127.144,97.176 C140.346,93.383 155.916,87.169 170.712,77.055 C170.363,76.401 170.054,75.779 169.782,75.19 C169.611,74.949 169.436,74.681 169.255,74.349 C167.152,70.484 163.875,72.93 163.875,72.93 L163.865,72.926 C147.438,85.524 129.496,92.89 114.583,97.175 C108.776,98.891 103.211,100.135 98.181,101.033 C88.184,102.869 81.757,103.11 81.757,103.11 C76.281,103.504 72.042,108.062 72.042,113.55 L72.042,156.263 C72.042,190.232 99.678,217.869 133.648,217.869 L146.209,217.869 C112.238,217.869 84.602,190.233 84.602,156.264 Z"/>
    <g transform="translate(43 322)">
      <path fill="#313F78" d="M0.351,58.034 L16.051,58.034 L16.051,8.208 C16.051,3.872 12.536,0.358 8.2,0.358 C3.864,0.358 0.349,3.872 0.349,8.208 L0.349,58.034 L0.351,58.034 Z"/>
      <path fill="#CBCBCD" d="M192.809,58.034 L192.809,8.208 C192.809,3.872 189.295,0.358 184.958,0.358 C180.622,0.358 177.107,3.872 177.107,8.208 L177.107,58.034 L192.809,58.034 Z"/>
    </g>
    <path fill="#EF4C35" d="M275.366,360.53 L262.908,351.36 C258.999,348.481 253.671,348.48 249.763,351.36 L237.506,360.382 C233.384,363.415 231.874,368.876 233.851,373.596 L238.742,385.272 C240.468,389.395 244.5,392.077 248.97,392.077 L264.466,392.077 C269.087,392.077 273.223,389.212 274.847,384.886 L279.175,373.357 C280.919,368.711 279.362,363.472 275.366,360.53 Z"/>
    <path fill="#DD3E2B" d="M282.15,456.803 C282.978,454.885 283.269,452.752 282.928,450.643 L274.089,395.855 C273.617,392.922 272.015,390.422 269.778,388.747 L243.881,388.747 C241.643,390.421 240.042,392.923 239.569,395.855 L230.729,450.643 C230.41,452.627 230.64,454.635 231.359,456.463 L230.588,463.498 L241.675,463.498 L271.98,463.498 L283.069,463.498 L282.15,456.803 Z"/>
    <g fill="#475796" transform="translate(108 316)">
      <path d="M158.928 70.043L159.744 68.09 163.48 59.173C163.681 58.693 163.924 58.238 164.186 57.797L171.012 41.976 204.429.533 236.015 15.067 249.957 20.876C251.878 21.544 295.53 37.335 295.53 91.452L295.53 136.408C295.53 142.532 290.565 147.497 284.441 147.497L269.234 147.497 249.94 147.497 233.307 147.497 179.17 147.497 169.154 147.497 165.015 118.281 158.208 76.09C157.877 74.048 158.128 71.952 158.928 70.043zM137.074 70.043L136.257 68.09 132.522 59.173C132.321 58.693 132.078 58.238 131.816 57.797L124.989 41.976 91.572.533 59.986 15.067 46.044 20.876C44.123 21.544.471 37.335.471 91.452L.471 136.408C.471 142.532 5.435 147.497 11.56 147.497L26.767 147.497 46.061 147.497 62.694 147.497 116.83 147.497 126.846 147.497 130.986 118.281 137.793 76.09C138.123 74.048 137.873 71.952 137.074 70.043z"/>
    </g>
    <path fill="#313F78" d="M121.777,459.617 L121.777,414.661 C121.777,360.542 165.429,344.751 167.35,344.085 L181.292,338.276 L207.411,326.257 L199.571,316.533 L167.985,331.067 L154.043,336.876 C152.122,337.544 108.47,353.335 108.47,407.452 L108.47,452.408 C108.47,458.532 113.434,463.497 119.559,463.497 L122.489,463.497 C122.037,462.289 121.777,460.984 121.777,459.617 Z"/>
    <path fill="#EDEFF4" d="M314.938,317.747 L302.095,309.273 C301.616,308.958 301.115,308.695 300.601,308.46 L290.52,301.979 L223.111,301.979 L214.13,307.341 C213.301,307.637 212.491,308.005 211.734,308.504 L197.728,317.746 C193.083,320.812 191.429,326.846 193.865,331.853 L212.232,369.609 C213.671,372.569 216.352,374.735 219.548,375.524 C220.426,375.74 221.317,375.847 222.203,375.847 C224.545,375.847 226.852,375.104 228.776,373.689 L250.411,357.766 C250.772,357.5 251.112,357.209 251.436,356.906 L256.434,353.174 L261.026,356.656 C261.448,357.093 261.899,357.505 262.394,357.871 L277.28,368.829 C277.303,368.848 277.331,368.866 277.357,368.886 L283.889,373.693 C285.813,375.108 288.119,375.851 290.462,375.851 C291.349,375.851 292.241,375.745 293.118,375.528 C296.314,374.74 298.994,372.573 300.434,369.613 L318.802,331.857 C321.238,326.848 319.584,320.812 314.938,317.747 Z"/>
    <path fill="#694B4B" d="M260.222,61.441 L253.114,61.441 C204.553,61.441 165.045,100.949 165.045,149.512 L165.045,161.258 L165.045,172.252 L165.045,190.827 C165.045,190.827 185.095,188.839 187.56,179.113 L187.549,179.104 C188.396,178.185 189.104,177.134 189.604,175.962 C200.979,175.617 254.107,175.205 284.447,138.562 C288.068,149.156 300.316,169.214 323.883,175.53 C324.366,176.807 325.089,177.957 325.975,178.957 L325.778,179.113 C328.243,188.839 348.294,190.827 348.294,190.827 L348.294,172.177 L348.294,161.257 L348.294,149.511 C348.294,100.949 308.785,61.441 260.222,61.441 Z M326.623,172.79 L327.47,172.177 L327.589,172.177 L326.207,173.199 L326.623,172.79 Z M326.191,173.055 L326.289,172.755 L326.581,172.177 L326.703,172.177 L326.353,172.902 L326.191,173.055 Z M323.852,174.861 L323.821,174.816 L325.993,173.244 L325.479,173.737 L323.892,174.912 L323.852,174.861 Z M325.649,174.35 L324.966,175.759 C324.963,175.758 324.96,175.757 324.957,175.755 L324.862,175.713 C324.844,175.703 324.828,175.694 324.812,175.686 L325.923,173.482 L325.951,173.454 L325.649,174.35 Z"/>
    <path fill="#563B3B" d="M180.568,172.252 L180.568,161.258 L180.568,149.512 C180.568,102.361 217.815,63.752 264.43,61.548 C263.034,61.483 261.632,61.442 260.221,61.442 L253.113,61.442 C204.552,61.442 165.044,100.95 165.044,149.513 L165.044,161.259 L165.044,172.253 L165.044,190.828 C165.044,190.828 173.903,189.945 180.568,186.5 L180.568,172.252 L180.568,172.252 Z"/>
    <path fill="#FBCB99" d="M337.716,178.057 C334.347,177.008 330.683,177.621 327.844,179.71 C325.003,181.8 323.327,185.116 323.327,188.643 L323.327,220.241 C323.327,223.767 325.004,227.082 327.842,229.172 C329.77,230.591 332.078,231.33 334.416,231.33 C335.52,231.33 336.631,231.166 337.712,230.829 C339.839,230.167 341.927,229.211 343.918,227.988 C345.093,227.268 346.12,226.336 346.951,225.241 C348.173,224.613 349.27,223.762 350.183,222.728 C354.664,217.663 357.132,211.168 357.132,204.442 C357.131,192.282 349.329,181.679 337.716,178.057 Z"/>
    <path fill="#EDBA89" d="M185.815,179.71 C182.974,177.62 179.309,177.007 175.943,178.056 C164.329,181.679 156.526,192.281 156.526,204.442 C156.526,216.603 164.329,227.206 175.943,230.828 C177.025,231.165 178.137,231.33 179.244,231.33 C181.579,231.33 183.888,230.592 185.815,229.173 C188.655,227.084 190.332,223.767 190.332,220.241 L190.332,188.641 C190.332,185.116 188.654,181.799 185.815,179.71 Z"/>
    <path fill="#FBCB99" d="M287.105,275.328 C284.923,273.238 281.999,272.144 278.959,272.255 L278.582,272.275 C277.906,272.298 277.233,272.385 276.572,272.531 C272.286,273.482 267.924,273.966 263.608,273.966 L250.05,273.966 C245.606,273.966 241.115,273.453 236.702,272.441 C233.41,271.686 229.955,272.472 227.314,274.577 C224.674,276.682 223.135,279.873 223.135,283.249 L223.135,315.504 L223.128,315.613 C222.951,318.814 224.167,321.933 226.462,324.171 L248.741,345.87 C250.813,347.887 253.59,349.015 256.477,349.015 C256.536,349.015 256.595,349.015 256.653,349.014 C259.604,348.966 262.415,347.744 264.463,345.62 L287.416,321.794 C289.406,319.728 290.519,316.97 290.519,314.101 L290.519,283.335 C290.522,280.312 289.288,277.42 287.105,275.328 Z"/>
    <path fill="#EDBA89" d="M258.723,342.545 L236.444,320.846 C234.149,318.608 232.932,315.489 233.11,312.288 L233.117,312.179 L233.117,279.924 C233.117,277.085 234.215,274.386 236.131,272.345 C233.014,271.801 229.804,272.596 227.317,274.578 C224.677,276.683 223.138,279.874 223.138,283.25 L223.138,315.505 L223.131,315.614 C222.954,318.815 224.17,321.934 226.465,324.172 L248.744,345.871 C250.816,347.888 253.593,349.016 256.48,349.016 C256.539,349.016 256.598,349.016 256.656,349.015 C259.607,348.967 262.418,347.745 264.466,345.621 L264.565,345.518 C262.378,345.137 260.336,344.115 258.723,342.545 Z"/>
    <path fill="#FBCB99" d="M321.652,169.007 C320.315,168.509 319.047,167.927 317.812,167.308 C299.18,158.612 291.446,147.303 288.329,140.561 C288.147,140.306 287.963,140.022 287.771,139.671 C285.542,135.576 282.072,138.167 282.072,138.167 L282.061,138.161 C264.66,151.507 245.654,159.309 229.854,163.851 C223.702,165.668 217.807,166.985 212.479,167.938 C201.888,169.884 195.079,170.138 195.079,170.138 C189.28,170.556 184.787,175.383 184.787,181.199 L184.787,226.447 C184.787,262.433 214.064,291.708 250.051,291.708 L263.609,291.708 C299.595,291.708 328.87,262.432 328.87,226.447 L328.87,179.398 C328.871,174.767 325.992,170.624 321.652,169.007 Z"/>
    <path fill="#EDBA89" d="M198.094,226.447 L198.094,181.199 C198.094,175.384 202.586,170.556 208.386,170.138 C208.386,170.138 215.195,169.884 225.786,167.938 C231.114,166.986 237.009,165.668 243.161,163.851 C257.146,159.831 273.641,153.248 289.315,142.536 C288.945,141.843 288.618,141.182 288.329,140.561 C288.147,140.306 287.963,140.022 287.771,139.671 C285.542,135.576 282.072,138.167 282.072,138.167 L282.061,138.161 C264.66,151.507 245.654,159.309 229.854,163.851 C223.702,165.668 217.807,166.985 212.479,167.938 C201.888,169.884 195.079,170.138 195.079,170.138 C189.28,170.556 184.787,175.383 184.787,181.199 L184.787,226.447 C184.787,262.433 214.064,291.708 250.051,291.708 L263.356,291.708 C227.371,291.708 198.094,262.432 198.094,226.447 Z"/>
    <g fill="#313F78" transform="translate(154 402)">
      <path d="M.393 61.498L17.026 61.498 17.026 8.714C17.026 4.121 13.302.398 8.71.398 4.118.398.394 4.122.394 8.714L.394 61.498.393 61.498zM204.275 61.498L204.275 8.714C204.275 4.121 200.553.398 195.959.398 191.366.398 187.643 4.122 187.643 8.714L187.643 61.498 204.275 61.498z"/>
    </g>
  </g>
</svg>
