<svg xmlns="http://www.w3.org/2000/svg" viewBox="0 0 343 396">
  <g fill="none">
    <path fill="#FFE1B2" d="M259.182 111.922C269.949 109.454 277.003 114.727 277.003 125.083 277.003 138.792 262.524 172.379 247.302 151.404 232.08 130.429 259.182 111.922 259.182 111.922zM82.759 111.922C72.895 109.454 66.433 114.727 66.433 125.083 66.433 138.792 79.698 172.379 93.643 151.404 107.588 130.429 82.759 111.922 82.759 111.922z"/>
    <path fill="#FFD7A3" d="M99.425,241.721 C114.141,232.246 112.495,190.886 112.495,184.305 L230.941,184.305 C230.941,190.885 229.116,232.246 243.831,241.721 L171.718,309.332 L99.425,241.721 Z"/>
    <path fill="#FDC88E" d="M217.78,256.689 L243.831,241.721 C229.115,232.247 230.941,190.886 230.941,184.305 L112.495,184.305 C120.993,208.738 177.202,250.657 217.78,256.689 Z"/>
    <path fill="#FFE1B2" d="M263.843,98.761 C263.843,151.457 233.5,217.207 171.719,217.207 C109.938,217.207 79.595,151.457 79.595,98.761 C79.594,26.321 120.839,0 171.718,0 C222.597,0 263.843,26.733 263.843,98.761 Z"/>
    <path fill="#313F78" d="M323.065,395.436 C333.968,395.436 342.806,386.598 342.806,375.695 L342.806,310.988 C342.806,282.034 320.244,251.124 292.668,242.301 L251.5,229.128 C229.351,246.064 197.698,269.167 171.718,269.167 C145.738,269.167 114.085,246.064 91.936,229.128 L50.768,242.301 C23.192,251.124 0.63,282.034 0.63,310.988 L0.63,375.695 C0.63,386.598 9.468,395.436 20.371,395.436 L323.065,395.436 Z"/>
    <path fill="#475796" d="M41.894,395.436 L301.542,395.436 L301.542,246.022 C298.655,244.55 295.699,243.272 292.668,242.302 L251.5,229.128 C229.351,246.064 197.698,269.167 171.718,269.167 C145.738,269.167 114.085,246.064 91.936,229.128 L50.768,242.301 C47.737,243.271 44.781,244.55 41.894,246.021 L41.894,395.436 Z"/>
    <path fill="#313F78" d="M171.718 269.167L144.262 296.623C141.403 299.482 136.666 299.11 134.287 295.84L86.174 229.684 101.5 214.358C103.975 211.883 107.954 211.779 110.555 214.12L171.718 269.167zM171.718 269.167L199.174 296.623C202.033 299.482 206.77 299.11 209.149 295.84L257.262 229.684 241.936 214.358C239.461 211.883 235.482 211.779 232.881 214.12L171.718 269.167z"/>
    <path fill="#ADB4BA" d="M261.7,78.138 C256.433,71.379 250.784,64.434 250.784,64.434 L250.784,71.014 C252.416,130.648 231.196,156.558 231.196,156.558 L204.158,159.585 C183.072,161.946 161.792,161.946 140.706,159.585 L113.668,156.558 C113.668,156.558 92.448,130.648 94.08,71.014 L94.08,64.434 C94.08,64.434 88.431,71.378 83.164,78.138 C81.791,84.007 79.593,90.388 79.593,97.392 C79.593,150.088 89.941,226.063 172.681,226.063 C255.421,226.063 263.842,150.088 263.842,97.392 C263.843,90.388 263.073,84.007 261.7,78.138 Z"/>
    <path fill="#DCDCDC" d="M175.392,164.923 C175.392,156.234 165.832,154.267 159.536,156.373 C147.994,160.234 135.285,171.005 124.559,164.344 C124.559,164.344 128.29,178.247 134.584,178.247 C147.176,178.247 175.392,179.695 175.392,164.923 Z"/>
    <path fill="#DCDCDC" d="M172.375 164.923C172.375 156.234 181.935 154.267 188.231 156.373 199.773 160.234 212.482 171.005 223.208 164.344 223.208 164.344 219.477 178.247 213.183 178.247 200.591 178.247 172.375 179.695 172.375 164.923zM263.712 95.185C262.325 25.925 221.721 0 171.718 0 121.711 0 81.103 25.534 79.724 95.186 103.496 78.526 119.076 50.973 119.076 19.741 119.076 19.57 119.051 19.404 119.05 19.233 133.03 31.782 151.453 39.482 171.718 39.482 191.983 39.482 210.406 31.782 224.386 19.233 224.385 19.404 224.36 19.57 224.36 19.741 224.361 50.973 239.941 78.525 263.712 95.185z"/>
    <path fill="#DCDCDC" d="M79.594 98.761C79.594 105.752 79.499 109.412 80.057 117.286L99.928 125.645C99.928 125.645 92.754 92.355 108.657 72.066 118.748 59.191 127.712 44.237 119.076 19.741 118.416 17.869 117.643 16.09 116.826 14.355 94.27 28.97 79.594 55.647 79.594 98.761zM264.138 98.761C264.138 105.752 264.233 109.412 263.675 117.286L243.804 125.645C243.804 125.645 250.978 92.355 235.075 72.066 224.984 59.191 216.02 44.237 224.656 19.741 225.316 17.869 226.089 16.09 226.906 14.355 249.462 28.97 264.138 55.647 264.138 98.761z"/>
    <path fill="#545465" d="M119.952 121.94C119.685 121.94 119.417 121.908 119.147 121.84L79.14 111.793C77.378 111.35 76.308 109.563 76.751 107.802 77.193 106.038 78.979 104.962 80.743 105.411L120.75 115.458C122.512 115.901 123.582 117.688 123.139 119.449 122.765 120.944 121.423 121.94 119.952 121.94zM222.114 121.94C220.641 121.94 219.299 120.944 218.925 119.45 218.485 117.686 219.555 115.9 221.319 115.459L261.45 105.412C263.206 104.975 264.999 106.042 265.441 107.803 265.881 109.567 264.811 111.353 263.047 111.794L222.916 121.841C222.647 121.908 222.379 121.94 222.114 121.94zM189.975 123.585C188.158 123.585 186.685 122.113 186.685 120.295 186.685 115.385 179.517 111.237 171.033 111.237 162.547 111.237 155.379 115.385 155.379 120.295 155.379 122.114 153.906 123.585 152.089 123.585 150.272 123.585 148.799 122.113 148.799 120.295 148.799 111.527 158.565 104.657 171.033 104.657 183.5 104.657 193.266 111.526 193.266 120.295 193.265 122.114 191.792 123.585 189.975 123.585z"/>
    <path fill="#545465" d="M136.018 138.012C125.343 138.012 116.658 129.327 116.658 118.65 116.658 107.976 125.343 99.291 136.018 99.291 146.693 99.291 155.378 107.976 155.378 118.65 155.379 129.327 146.694 138.012 136.018 138.012zM136.018 105.872C128.972 105.872 123.238 111.604 123.238 118.65 123.238 125.696 128.972 131.432 136.018 131.432 143.064 131.432 148.798 125.697 148.798 118.65 148.798 111.603 143.065 105.872 136.018 105.872zM206.047 138.012C195.37 138.012 186.685 129.327 186.685 118.65 186.685 107.976 195.37 99.291 206.047 99.291 216.722 99.291 225.407 107.976 225.407 118.65 225.407 129.327 216.722 138.012 206.047 138.012zM206.047 105.872C198.999 105.872 193.265 111.604 193.265 118.65 193.265 125.696 198.999 131.432 206.047 131.432 213.093 131.432 218.827 125.697 218.827 118.65 218.827 111.603 213.093 105.872 206.047 105.872z"/>
  </g>
</svg>
