<svg xmlns="http://www.w3.org/2000/svg" viewBox="0 0 457 414">
  <g fill="none" fill-rule="evenodd" transform="translate(0 -98)">
    <polygon fill="#182142" fill-rule="nonzero" points="177.019 398.44 177.019 503.607 279.978 503.607 279.978 398.409"/>
    <path stroke="#000" stroke-linecap="round" stroke-linejoin="round" stroke-width="15" d="M423.652,368.573 L33.77,368.573"/>
    <path fill="#313F78" fill-rule="nonzero" d="M456.8,120.897 C456.8,108.587 446.728,98.514 434.417,98.514 L22.579,98.514 C10.269,98.514 0.196,108.586 0.196,120.897 L0.196,369.343 L228.498,391.726 L456.8,369.343 L456.8,120.897 Z"/>
    <g fill="#475796" fill-rule="nonzero" transform="translate(0 369)">
      <path d="M.197.343L.197 29.44C.197 41.75 10.269 51.823 22.58 51.823L434.418 51.823C446.728 51.823 456.801 41.751 456.801 29.44L456.801.343.197.343zM353.281 143L103.716 143C99.081 143 95.323 139.242 95.323 134.607 95.323 129.972 99.081 126.214 103.716 126.214L353.281 126.214C357.916 126.214 361.674 129.972 361.674 134.607 361.674 139.242 357.916 143 353.281 143z"/>
    </g>
  </g>
</svg>
