<?xml version="1.0"?>
<svg xmlns="http://www.w3.org/2000/svg" xmlns:xlink="http://www.w3.org/1999/xlink" version="1.1" id="Capa_1" x="0px" y="0px" viewBox="0 0 58 58" style="enable-background:new 0 0 58 58;" xml:space="preserve" width="512px" height="512px" class=""><g><path style="fill:#C7CAC7;stroke:#C7CAC7;stroke-width:2;stroke-miterlimit:10;" d="M42,32H15V13.601C15,6.652,21.056,1,28.5,1  S42,6.652,42,13.601V32z M19,28h19V13.601C38,8.858,33.738,5,28.5,5S19,8.858,19,13.601V28z" data-original="#C7CAC7"/><rect x="8" y="26" style="fill:#475796" width="42" height="32" data-original="#7383BF" class="" data-old_color="#7383BF"/><rect x="29" y="26" style="fill:#313F78" width="21" height="32" data-original="#6879AF" class="active-path" data-old_color="#313f78"/><polygon style="fill:#EBBA16;" points="42.586,57 49,50.586 49,47 43.414,47 33.414,57 " data-original="#EBBA16" class=""/><polygon style="fill:#4F5970;" points="9,47 9,54.586 16.586,47 " data-original="#4F5970"/><polygon style="fill:#424A60;" points="30.586,57 40.586,47 31.414,47 21.414,57 " data-original="#424A60"/><path style="fill:#EACC18;" d="M28.586,47h-9.172l-9.707,9.707C9.512,56.902,9.256,57,9,57h9.586L28.586,47z" data-original="#EACC18"/><polygon style="fill:#424A60;" points="49,57 49,53.414 45.414,57 " data-original="#424A60"/><polygon style="fill:#4F5970;" points="29,49.414 21.414,57 29,57 " data-original="#4F5970"/></g> </svg>
