<?xml version="1.0" standalone="no"?>
<!DOCTYPE svg PUBLIC "-//W3C//DTD SVG 20010904//EN"
 "http://www.w3.org/TR/2001/REC-SVG-20010904/DTD/svg10.dtd">
<svg version="1.0" xmlns="http://www.w3.org/2000/svg"
 width="2604.000000pt" height="857.000000pt" viewBox="0 0 2604.000000 857.000000"
 preserveAspectRatio="xMidYMid meet">
<metadata>
Created by potrace 1.14, written by Peter Selinger 2001-2017
</metadata>
<g transform="translate(0.000000,857.000000) scale(0.100000,-0.100000)"
fill="#ffffff" stroke="none">
<path d="M3727 8438 c-92 -122 -349 -615 -470 -900 -57 -135 -197 -499 -197
-512 0 -3 48 -56 106 -118 219 -233 435 -530 558 -767 l62 -121 28 58 c126
258 359 589 586 834 l90 96 -61 169 c-141 387 -353 837 -547 1158 -88 146
-111 161 -155 103z"/>
<path d="M2577 8282 c-9 -10 -23 -37 -32 -61 -50 -144 -161 -604 -146 -609 31
-10 445 -293 548 -374 14 -11 9 -23 89 182 31 80 89 216 129 303 l73 157 -72
58 c-115 94 -266 206 -386 287 -90 60 -120 75 -150 75 -23 0 -43 -7 -53 -18z"/>
<path d="M4755 8218 c-162 -110 -435 -318 -443 -337 -1 -4 26 -70 62 -147 35
-76 96 -220 135 -319 40 -99 74 -181 75 -183 2 -1 43 27 92 64 73 55 390 269
459 309 17 10 16 18 -10 140 -27 126 -73 305 -115 444 -44 142 -83 146 -255
29z"/>
<path d="M8520 7930 c-20 -20 -20 -33 -20 -3749 0 -3609 1 -3730 18 -3752 25
-30 75 -30 105 0 l22 22 0 3730 0 3731 -24 19 c-30 25 -76 24 -101 -1z"/>
<path d="M1491 7832 c-32 -31 -33 -39 -58 -282 -21 -218 -25 -826 -5 -1025 50
-512 145 -893 307 -1232 239 -500 591 -789 1020 -838 l60 -7 -45 38 c-244 204
-384 462 -464 856 -52 258 -61 365 -61 753 0 366 6 464 46 755 47 342 83 466
144 506 14 9 25 20 25 24 0 10 -220 143 -390 235 -210 115 -495 245 -535 245
-9 0 -29 -12 -44 -28z"/>
<path d="M5875 7812 c-167 -73 -441 -216 -627 -327 l-168 -99 36 -35 c53 -52
71 -96 98 -243 122 -662 126 -1329 11 -1842 -72 -319 -175 -518 -370 -713
l-102 -102 51 6 c343 38 668 266 891 624 219 352 352 796 417 1394 21 194 18
916 -6 1130 -20 188 -32 230 -71 245 -38 15 -40 14 -160 -38z"/>
<path d="M2526 7218 c-30 -47 -90 -429 -117 -743 -14 -172 -14 -589 0 -740 36
-371 115 -671 227 -856 61 -101 184 -234 288 -311 208 -155 488 -229 656 -175
99 33 98 31 46 139 -128 264 -115 657 38 1160 20 65 36 124 36 132 0 7 -36 86
-81 175 -130 261 -317 525 -554 785 -175 191 -469 456 -507 456 -9 0 -24 -10
-32 -22z"/>
<path d="M4844 7126 c-457 -401 -818 -898 -989 -1361 -50 -135 -119 -413 -140
-562 -21 -151 -17 -395 9 -488 39 -138 114 -244 213 -298 203 -110 564 2 813
252 143 143 231 304 294 534 66 238 95 460 103 782 9 351 -28 796 -91 1108
-25 122 -36 147 -65 147 -10 0 -75 -51 -147 -114z"/>
<path d="M525 6871 c-52 -9 -79 -25 -103 -58 -31 -44 -34 -83 -16 -164 42
-186 153 -405 318 -630 l70 -96 106 50 c58 27 173 78 255 113 l150 63 0 33
c-1 18 -9 98 -18 178 -9 80 -21 221 -27 314 -5 93 -11 171 -13 173 -18 17
-647 39 -722 24z"/>
<path d="M6550 6869 c-74 -4 -162 -10 -195 -14 l-61 -6 -12 -197 c-11 -179
-34 -405 -48 -475 -4 -20 -1 -28 13 -33 50 -17 339 -142 415 -180 l86 -43 65
87 c227 305 380 671 324 778 -27 51 -60 74 -123 84 -66 11 -262 11 -464 -1z"/>
<path d="M1215 5939 c-283 -115 -644 -308 -925 -494 -172 -113 -198 -137 -210
-190 -18 -79 28 -147 171 -255 345 -259 961 -445 1709 -514 155 -14 271 -23
267 -20 -1 1 -39 29 -83 62 -270 200 -480 491 -632 879 -56 140 -120 351 -147
483 -10 47 -21 88 -24 91 -3 4 -60 -15 -126 -42z"/>
<path d="M6170 5852 c-93 -395 -261 -771 -455 -1017 -84 -107 -222 -240 -319
-309 l-78 -56 43 0 c72 0 364 29 519 51 681 96 1233 300 1499 553 34 34 70 74
78 90 19 36 13 101 -12 139 -21 32 -273 202 -464 312 -218 126 -515 271 -727
354 l-51 20 -33 -137z"/>
<path d="M10065 5108 c-3 -7 -4 -452 -3 -988 l3 -975 435 0 c485 0 523 4 708
70 128 46 237 113 337 207 186 175 286 391 302 653 26 438 -229 827 -638 971
-177 62 -215 66 -696 71 -365 4 -444 3 -448 -9z m938 -336 c237 -65 409 -243
461 -479 20 -90 20 -236 1 -328 -38 -182 -163 -344 -325 -423 -139 -68 -172
-74 -462 -79 l-258 -5 0 672 0 672 253 -5 c215 -4 263 -7 330 -25z"/>
<path d="M18320 4835 l0 -205 -90 0 -90 0 0 -145 0 -145 89 0 90 0 4 -447 c4
-476 5 -492 56 -590 61 -120 189 -183 373 -183 104 0 173 13 251 47 l57 26 0
138 c0 77 -3 139 -7 139 -5 -1 -33 -9 -63 -20 -66 -23 -186 -26 -234 -6 -18 7
-44 29 -57 47 l-24 34 -3 408 -3 407 201 0 200 0 0 145 0 145 -200 0 -200 0 0
205 0 205 -175 0 -175 0 0 -205z"/>
<path d="M25300 4835 l0 -205 -95 0 -95 0 0 -145 0 -145 95 0 95 0 0 -429 c0
-242 4 -451 10 -481 41 -219 195 -322 458 -307 98 5 207 32 250 62 21 15 22
23 22 151 0 74 -3 134 -7 134 -5 -1 -33 -9 -63 -20 -76 -27 -197 -27 -249 0
-75 38 -76 42 -79 493 l-3 397 200 0 201 0 0 145 0 145 -200 0 -200 0 0 205 0
205 -170 0 -170 0 0 -205z"/>
<path d="M12627 4644 c-391 -94 -627 -509 -537 -943 30 -148 93 -265 200 -372
72 -73 101 -94 180 -132 118 -57 188 -76 311 -84 238 -15 453 63 609 221 47
48 52 58 40 69 -8 7 -54 48 -101 90 l-85 76 -55 -45 c-205 -170 -489 -175
-652 -12 -50 50 -104 150 -114 212 l-6 36 544 2 544 3 -1 130 c-1 159 -24 258
-91 395 -38 80 -59 108 -132 180 -97 96 -170 138 -297 170 -92 24 -268 26
-357 4z m327 -300 c99 -48 170 -146 201 -276 8 -35 15 -66 15 -70 0 -5 -171
-8 -380 -8 -209 0 -380 4 -380 8 0 4 7 34 15 65 32 124 102 221 196 272 72 39
101 45 195 41 63 -3 92 -10 138 -32z"/>
<path d="M14470 4644 c-103 -27 -180 -73 -267 -161 l-83 -83 0 115 0 115 -170
0 -170 0 0 -970 0 -970 170 0 170 0 0 336 0 337 79 -75 c140 -135 310 -194
492 -171 174 22 309 91 425 216 146 158 219 401 194 646 -13 125 -34 200 -80
296 -92 190 -252 320 -451 369 -81 20 -234 20 -309 0z m242 -318 c113 -54 200
-161 234 -290 21 -78 18 -241 -6 -318 -117 -379 -608 -413 -780 -53 -88 184
-49 437 88 574 89 89 176 122 312 118 79 -3 105 -8 152 -31z"/>
<path d="M17871 4644 c-130 -35 -250 -133 -325 -266 l-36 -63 0 158 0 157
-170 0 -170 0 0 -745 0 -745 169 0 169 0 4 363 c4 301 7 372 21 422 62 217
202 341 415 367 l92 11 0 179 0 178 -57 -1 c-32 0 -82 -7 -112 -15z"/>
<path d="M19980 4641 c-95 -30 -142 -61 -222 -142 l-78 -78 0 104 0 105 -170
0 -170 0 0 -745 0 -745 169 0 170 0 3 478 c3 468 4 478 26 533 29 73 77 128
143 164 48 27 63 30 144 30 136 0 202 -39 262 -155 l28 -55 5 -495 5 -495 170
0 170 0 5 480 5 480 29 63 c53 114 157 182 281 182 103 0 192 -44 239 -118 51
-82 50 -76 56 -597 l5 -490 170 0 170 0 0 540 c0 492 -2 546 -18 604 -43 152
-129 263 -247 318 -83 39 -149 53 -258 53 -169 0 -291 -50 -417 -171 l-82 -79
-32 50 c-58 90 -153 155 -268 185 -78 21 -224 19 -293 -4z"/>
<path d="M22400 4640 c-215 -57 -399 -220 -483 -428 -47 -115 -61 -189 -61
-327 0 -104 5 -147 23 -214 53 -201 165 -353 335 -455 241 -145 604 -138 838
17 70 47 171 143 166 158 -2 7 -46 49 -98 94 l-94 82 -59 -47 c-229 -185 -548
-165 -691 43 -33 48 -76 152 -76 183 0 11 98 14 543 16 l542 3 -1 140 c-2 163
-21 251 -83 379 -81 166 -218 288 -384 342 -114 37 -305 44 -417 14z m332
-293 c98 -48 172 -145 203 -264 27 -103 67 -93 -361 -93 l-377 0 7 47 c7 57
54 160 95 212 38 48 98 90 164 113 77 27 196 21 269 -15z"/>
<path d="M24200 4637 c-96 -33 -157 -72 -232 -150 l-68 -70 0 107 0 106 -170
0 -170 0 0 -745 0 -745 169 0 170 0 3 473 c3 463 4 473 26 528 30 76 90 142
160 176 51 25 68 28 152 28 83 -1 101 -4 145 -27 65 -34 97 -69 132 -143 l28
-60 5 -485 5 -485 170 0 170 0 0 530 c0 526 0 531 -24 612 -70 246 -245 373
-511 373 -72 0 -111 -6 -160 -23z"/>
<path d="M16010 4644 c-110 -19 -155 -29 -223 -51 -43 -13 -98 -33 -122 -43
l-44 -19 45 -135 45 -134 78 28 c201 74 444 81 568 17 84 -44 143 -148 143
-253 0 -48 -2 -55 -17 -50 -274 80 -565 71 -754 -24 -71 -36 -157 -117 -188
-178 -29 -56 -51 -154 -51 -227 -1 -273 213 -458 530 -459 172 0 306 48 420
151 l60 55 0 -91 0 -91 168 2 167 3 0 495 c0 443 -2 503 -18 573 -51 215 -186
354 -402 413 -58 16 -344 29 -405 18z m406 -837 l89 -22 -1 -90 c-1 -76 -5
-98 -27 -141 -52 -102 -156 -166 -300 -184 -140 -17 -266 26 -319 109 -23 37
-28 56 -28 108 0 35 6 78 14 96 28 68 119 129 218 147 80 14 252 3 354 -23z"/>
<path d="M1486 4340 c-53 -10 -76 -40 -76 -99 0 -63 33 -109 107 -148 128 -69
313 -99 547 -90 170 6 262 21 486 77 372 93 554 116 843 106 156 -5 187 -4
187 8 0 16 -79 37 -235 63 -84 14 -191 17 -660 19 -560 2 -560 2 -790 32 -273
36 -357 43 -409 32z"/>
<path d="M5925 4343 c-22 -2 -146 -18 -275 -35 l-235 -31 -478 2 c-276 1 -529
-3 -600 -9 -131 -11 -329 -45 -359 -61 -45 -24 -12 -29 170 -23 287 10 457
-11 822 -101 287 -70 350 -79 575 -80 219 0 309 13 433 62 82 33 148 93 157
145 9 47 -4 87 -36 110 -25 19 -106 29 -174 21z"/>
<path d="M3355 3723 c-282 -60 -484 -238 -551 -484 -24 -87 -24 -271 0 -358
33 -123 94 -215 189 -287 116 -87 208 -124 537 -215 337 -94 427 -147 438
-260 14 -151 -101 -232 -327 -231 -207 1 -370 60 -575 207 -42 30 -79 55 -81
55 -2 0 -61 -69 -131 -152 -70 -84 -134 -161 -142 -170 -19 -23 -10 -35 90
-108 163 -122 407 -222 623 -255 156 -25 373 -17 507 18 145 38 247 95 344
191 137 137 191 285 181 501 -11 247 -106 391 -337 509 -110 57 -183 82 -415
146 -353 96 -426 143 -427 274 -1 110 68 174 210 196 162 25 382 -39 592 -173
30 -20 58 -33 62 -31 12 7 248 354 248 364 0 12 -150 110 -228 149 -91 46
-252 97 -361 115 -120 20 -350 20 -446 -1z"/>
<path d="M370 2600 l0 -1100 245 0 245 0 2 696 3 696 590 -693 590 -694 258
-3 257 -2 0 1100 0 1100 -245 0 -245 0 -2 -700 -3 -701 -585 687 c-321 378
-591 693 -598 701 -11 10 -68 13 -263 13 l-249 0 0 -1100z"/>
<path d="M4477 3693 c-2 -5 92 -375 209 -823 117 -448 245 -940 285 -1093 l72
-277 256 2 256 3 164 683 c91 375 168 677 171 670 4 -7 80 -316 171 -685 l164
-673 252 0 c139 0 253 3 253 6 0 3 128 491 285 1084 157 594 285 1086 285
1095 0 14 -28 15 -252 13 l-253 -3 -160 -687 c-88 -379 -162 -688 -165 -688
-3 0 -80 303 -169 673 -90 369 -168 680 -173 690 -8 16 -27 17 -241 15 l-232
-3 -171 -675 c-94 -371 -173 -681 -175 -688 -2 -7 -73 293 -158 665 -85 373
-156 684 -159 691 -3 9 -64 12 -257 12 -140 0 -256 -3 -258 -7z"/>
<path d="M12170 2514 c-72 -19 -127 -53 -177 -107 -81 -88 -113 -188 -113
-359 l0 -108 -95 0 -95 0 0 -145 0 -145 95 0 95 0 0 -595 0 -595 170 0 170 0
0 595 0 595 193 2 192 3 3 143 3 142 -202 0 -202 0 7 83 c9 110 36 164 96 195
53 26 134 29 225 7 33 -8 63 -14 68 -15 4 0 7 65 7 143 l0 144 -75 16 c-95 21
-288 22 -365 1z"/>
<path d="M17160 2126 l0 -395 -68 68 c-82 82 -172 134 -277 161 -326 83 -668
-100 -790 -425 -41 -107 -55 -195 -55 -334 0 -158 28 -279 91 -403 58 -114
183 -239 289 -291 282 -139 584 -83 766 141 l44 54 0 -121 0 -121 173 2 172 3
0 1025 0 1025 -172 3 -173 2 0 -394z m-309 -462 c75 -23 128 -56 187 -117 89
-95 126 -197 125 -347 -2 -202 -93 -354 -261 -433 -61 -29 -75 -32 -167 -32
-93 0 -105 2 -168 33 -211 104 -306 361 -227 614 68 220 296 346 511 282z"/>
<path d="M13610 1445 l0 -985 175 0 175 0 0 985 0 985 -175 0 -175 0 0 -985z"/>
<path d="M20900 2155 l0 -205 -95 0 -96 0 3 -147 3 -148 93 -3 92 -3 0 -417
c0 -452 5 -506 56 -609 32 -65 99 -126 173 -154 43 -18 83 -24 177 -27 127 -4
200 8 290 48 l44 19 0 142 c0 130 -1 141 -17 134 -60 -25 -117 -37 -183 -38
-93 -1 -138 18 -168 72 -22 38 -22 47 -22 435 l0 396 198 2 197 3 3 148 3 147
-201 0 -200 0 -2 203 -3 202 -172 3 -173 2 0 -205z"/>
<path d="M10580 1965 c-290 -60 -517 -260 -599 -527 -51 -169 -48 -330 8 -496
37 -105 80 -177 161 -265 159 -173 369 -255 624 -244 220 9 376 77 531 232
100 99 154 189 197 325 20 64 23 95 23 220 -1 137 -2 150 -33 240 -44 126
-104 221 -200 312 -117 112 -234 171 -400 204 -90 17 -224 17 -312 -1z m240
-295 c115 -22 238 -108 296 -206 140 -239 62 -562 -164 -682 -306 -161 -662
64 -662 420 0 312 239 523 530 468z"/>
<path d="M15040 1964 c-95 -25 -161 -65 -242 -146 l-78 -77 0 105 0 104 -175
0 -175 0 0 -745 0 -745 173 2 172 3 5 480 5 480 26 56 c34 71 87 125 158 157
46 22 71 26 141 26 135 0 223 -52 277 -162 l28 -57 5 -490 5 -490 173 -3 173
-2 -4 542 c-3 483 -5 550 -21 602 -72 243 -254 377 -511 375 -44 0 -105 -7
-135 -15z"/>
<path d="M19928 1969 c-192 -21 -333 -111 -405 -257 -37 -75 -38 -78 -38 -191
0 -107 2 -121 28 -173 36 -73 118 -148 210 -192 40 -19 141 -56 226 -81 184
-56 251 -86 291 -132 56 -63 33 -159 -50 -207 -25 -15 -57 -21 -125 -24 -147
-7 -299 41 -455 141 l-55 36 -72 -111 c-40 -60 -73 -114 -73 -118 0 -27 183
-129 307 -171 255 -87 516 -70 686 45 123 82 182 201 182 366 0 88 -3 101 -33
162 -62 127 -166 194 -436 283 -187 62 -248 90 -291 135 -56 59 -35 147 46
195 28 16 52 20 134 20 118 0 195 -21 327 -89 l88 -44 48 86 c89 157 87 153
66 170 -38 28 -151 80 -229 105 -138 44 -261 60 -377 46z"/>
<path d="M22655 1970 c-152 -32 -276 -125 -360 -273 l-35 -62 0 158 0 157
-175 0 -175 0 2 -742 3 -743 172 -3 171 -2 4 367 c4 351 5 371 27 438 32 97
72 163 134 222 85 80 191 123 304 123 l53 0 0 185 0 185 -42 -1 c-24 -1 -61
-5 -83 -9z"/>
<path d="M17840 1429 c0 -441 2 -531 16 -592 46 -204 170 -339 358 -387 230
-59 448 15 589 200 l27 35 0 -112 0 -113 175 0 175 0 0 745 0 745 -175 0 -174
0 -3 -477 -3 -478 -26 -55 c-59 -126 -141 -181 -280 -188 -143 -7 -240 42
-294 148 -40 78 -45 149 -45 613 l0 437 -170 0 -170 0 0 -521z"/>
<path d="M22874 1918 c8 -18 147 -354 310 -746 l297 -714 -29 -51 c-16 -29
-48 -65 -71 -82 -38 -26 -50 -29 -114 -29 -53 1 -89 8 -135 26 l-63 26 -30
-67 c-90 -198 -85 -182 -64 -197 53 -39 228 -83 330 -83 68 -1 173 23 226 50
67 34 149 124 198 219 24 46 182 442 352 879 l308 796 -176 3 c-97 1 -177 1
-179 -1 -2 -2 -88 -244 -190 -538 -103 -294 -190 -537 -193 -541 -4 -5 -100
236 -213 535 l-206 542 -185 3 -186 2 13 -32z"/>
<path d="M550 1164 c-164 -60 -261 -225 -230 -396 22 -121 87 -209 190 -256
115 -53 296 -36 398 38 l42 30 0 145 0 145 -146 0 -145 0 3 -52 3 -53 83 -3
82 -3 0 -63 c0 -62 0 -62 -37 -80 -49 -23 -137 -31 -189 -17 -133 36 -200 212
-132 346 31 61 50 78 113 106 67 30 150 21 220 -22 l49 -31 37 44 c35 40 36
44 22 61 -9 9 -41 29 -72 44 -46 23 -71 28 -151 30 -69 2 -107 -1 -140 -13z"/>
<path d="M1261 1164 c-98 -35 -165 -98 -210 -194 -21 -46 -26 -70 -25 -140 0
-108 32 -187 106 -256 76 -71 124 -89 243 -89 89 0 107 3 160 28 261 122 266
504 8 632 -48 24 -73 29 -148 32 -64 2 -103 -1 -134 -13z m234 -128 c155 -91
144 -346 -18 -422 -166 -77 -343 55 -324 242 14 132 114 220 240 210 37 -3 72
-13 102 -30z"/>
<path d="M1731 1158 c0 -7 62 -161 137 -343 l137 -330 55 0 54 0 137 330 c76
182 138 336 138 343 1 8 -18 12 -62 12 l-63 0 -100 -255 c-54 -140 -102 -251
-105 -247 -3 4 -50 118 -103 255 l-98 247 -64 0 c-45 0 -64 -4 -63 -12z"/>
<path d="M2470 830 l0 -340 261 0 260 0 -3 53 -3 52 -192 3 -193 2 0 90 0 90
171 0 170 0 -3 53 -3 52 -167 3 -168 2 0 85 0 85 190 0 190 0 0 55 0 55 -255
0 -255 0 0 -340z"/>
<path d="M3100 831 l0 -341 60 0 60 0 0 115 0 115 75 0 75 0 81 -115 81 -115
69 0 c38 0 69 3 69 6 0 3 -39 60 -86 125 -47 66 -84 122 -83 123 2 2 20 11 39
21 78 39 113 98 114 192 0 83 -38 146 -109 182 -47 25 -58 26 -247 29 l-198 4
0 -341z m364 215 c44 -18 66 -52 66 -99 0 -31 -7 -46 -34 -73 l-34 -34 -121 0
-121 0 0 110 0 110 105 0 c68 0 118 -5 139 -14z"/>
<path d="M3760 830 l0 -340 60 0 60 0 2 235 3 234 180 -234 180 -234 53 0 52
-1 0 340 0 340 -60 0 -60 0 0 -231 0 -232 -177 231 -178 231 -57 0 -58 1 0
-340z"/>
<path d="M4470 830 l0 -340 60 0 60 0 2 237 3 236 100 -151 c55 -83 103 -152
107 -152 4 0 54 69 110 153 l103 152 3 -237 2 -238 60 0 60 0 0 340 0 341 -67
-3 -66 -3 -96 -149 c-53 -82 -101 -149 -106 -149 -6 1 -53 68 -106 149 l-95
149 -67 3 -67 3 0 -341z"/>
<path d="M5250 830 l0 -340 255 0 255 0 0 55 0 55 -195 0 -195 0 0 90 0 90
176 0 175 0 -3 53 -3 52 -172 3 -173 2 0 85 0 85 195 0 195 0 0 55 0 55 -255
0 -255 0 0 -340z"/>
<path d="M5880 830 l0 -340 60 0 60 0 2 235 3 235 180 -235 180 -234 53 0 52
-1 0 340 0 340 -60 0 -60 0 0 -231 0 -232 -177 231 -178 231 -57 0 -58 1 0
-340z"/>
<path d="M6560 1115 l0 -55 110 0 110 0 0 -285 0 -285 60 0 60 0 0 285 0 285
110 0 110 0 0 55 0 55 -280 0 -280 0 0 -55z"/>
</g>
</svg>
