<?xml version="1.0" encoding="iso-8859-1"?>
<!-- Generator: Adobe Illustrator 19.0.0, SVG Export Plug-In . SVG Version: 6.00 Build 0)  -->
<svg version="1.1" id="Capa_1" xmlns="http://www.w3.org/2000/svg" xmlns:xlink="http://www.w3.org/1999/xlink" x="0px" y="0px"
	 viewBox="0 0 512 512" style="enable-background:new 0 0 512 512;" xml:space="preserve">
<path style="fill:#313f78;" d="M271,91h-30c-41.4,0-75,33.6-75,75v30c0,8.401,6.599,15,15,15h150c8.401,0,15-6.599,15-15v-30
	C346,124.6,312.4,91,271,91z"/>
<path style="fill:#182142;" d="M346,166v30c0,8.401-6.599,15-15,15h-75V91h15C312.4,91,346,124.6,346,166z"/>
<path style="fill:#475796;" d="M256,0c-32.999,0-60,28.001-60,61s27.001,60,60,60s60-27.001,60-60S288.999,0,256,0z"/>
<path style="fill:#2D3C78;" d="M316,61c0,32.999-27.001,60-60,60V0C288.999,0,316,28.001,316,61z"/>
<path style="fill:#313f78;" d="M437,391h-30c-41.4,0-75,33.6-75,75v31c0,8.401,6.599,15,15,15h150c8.401,0,15-6.599,15-15v-31
	C512,424.6,478.4,391,437,391z"/>
<path style="fill:#182142;" d="M512,466v31c0,8.401-6.599,15-15,15h-75V391h15C478.4,391,512,424.6,512,466z"/>
<path style="fill:#475796;" d="M422,301c-32.999,0-60,27.001-60,60s27.001,60,60,60s60-27.001,60-60S454.999,301,422,301z"/>
<path style="fill:#2D3C78;" d="M482,361c0,32.999-27.001,60-60,60V301C454.999,301,482,328.001,482,361z"/>
<path style="fill:#313f78;" d="M106,391H76c-41.4,0-76,33.6-76,75v31c0,8.401,6.599,15,15,15h151c8.401,0,15-6.599,15-15v-31
	C181,424.6,147.4,391,106,391z"/>
<path style="fill:#5C5F66;" d="M329.5,352.599c-3.9,7.5-12.599,10.501-20.099,6.901L256,332.8l-53.401,26.7
	c-7.5,3.6-16.199,0.599-20.099-6.901c-3.6-7.2-0.599-16.199,6.901-20.099L241,306.7V256c0-8.401,6.599-15,15-15s15,6.599,15,15v50.7
	l51.599,25.8C330.099,336.4,333.1,345.399,329.5,352.599z"/>
<path style="fill:#182142;" d="M181,466v31c0,8.401-6.599,15-15,15H91V391h15C147.4,391,181,424.6,181,466z"/>
<path style="fill:#475796;" d="M91,301c-32.999,0-60,27.001-60,60s27.001,60,60,60s60-27.001,60-60S123.999,301,91,301z"/>
<path style="fill:#2D3C78;" d="M151,361c0,32.999-27.001,60-60,60V301C123.999,301,151,328.001,151,361z"/>
<path style="fill:#53565C;" d="M329.5,352.599c-3.9,7.5-12.599,10.501-20.099,6.901L256,332.8V241c8.401,0,15,6.599,15,15v50.7
	l51.599,25.8C330.099,336.4,333.1,345.399,329.5,352.599z"/>
<g>
</g>
<g>
</g>
<g>
</g>
<g>
</g>
<g>
</g>
<g>
</g>
<g>
</g>
<g>
</g>
<g>
</g>
<g>
</g>
<g>
</g>
<g>
</g>
<g>
</g>
<g>
</g>
<g>
</g>
</svg>
