<?xml version="1.0" encoding="UTF-8" standalone="no"?>
<svg
   xmlns:dc="http://purl.org/dc/elements/1.1/"
   xmlns:cc="http://creativecommons.org/ns#"
   xmlns:rdf="http://www.w3.org/1999/02/22-rdf-syntax-ns#"
   xmlns:svg="http://www.w3.org/2000/svg"
   xmlns="http://www.w3.org/2000/svg"
   viewBox="0 0 1311.25 555"
   height="555"
   width="1311.25"
   xml:space="preserve"
   version="1.1"
   id="svg2"><metadata
     id="metadata8"><rdf:RDF><cc:Work
         rdf:about=""><dc:format>image/svg+xml</dc:format><dc:type
           rdf:resource="http://purl.org/dc/dcmitype/StillImage" /></cc:Work></rdf:RDF></metadata><defs
     id="defs6" /><g
     transform="matrix(1.25,0,0,-1.25,0,555)"
     id="g10"><g
       transform="scale(0.1,0.1)"
       id="g12"><path
         id="path14"
         style="fill:#f9a721;fill-opacity:1;fill-rule:nonzero;stroke:none"
         d="m 2113.62,3275.85 -320.63,107.21 0,464.94 321.04,-95.42 -0.41,-476.73" /><path
         id="path16"
         style="fill:#f9a721;fill-opacity:1;fill-rule:nonzero;stroke:none"
         d="m 2197.28,3752.58 321.18,95.42 -1.17,-464.58 -320.01,-107.57 0,476.73" /><path
         id="path18"
         style="fill:#f9a721;fill-opacity:1;fill-rule:nonzero;stroke:none"
         d="m 2452.95,3898.28 -299.29,92.72 -295.26,-92.72 295.76,-79.43 298.79,79.43" /><path
         id="path20"
         style="fill:#f9a721;fill-opacity:1;fill-rule:nonzero;stroke:none"
         d="m 2922.35,3275.85 -320.73,107.21 0,464.94 321.1,-95.42 -0.37,-476.73" /><path
         id="path22"
         style="fill:#f9a721;fill-opacity:1;fill-rule:nonzero;stroke:none"
         d="m 3006.02,3752.58 321.05,95.42 -1.05,-464.58 -320,-107.57 0,476.73" /><path
         id="path24"
         style="fill:#f9a721;fill-opacity:1;fill-rule:nonzero;stroke:none"
         d="m 3261.75,3898.28 -299.32,92.72 -295.4,-92.72 295.88,-79.43 298.84,79.43" /><path
         id="path26"
         style="fill:#f9a721;fill-opacity:1;fill-rule:nonzero;stroke:none"
         d="m 900.938,3073.21 -321.083,95.34 0,-464.87 320.711,-107.28 0.372,476.81" /><path
         id="path28"
         style="fill:#f9a721;fill-opacity:1;fill-rule:nonzero;stroke:none"
         d="m 984.238,3073.21 321.132,95.34 -1.08,-464.56 -320.052,-107.59 0,476.81" /><path
         id="path30"
         style="fill:#f9a721;fill-opacity:1;fill-rule:nonzero;stroke:none"
         d="m 1240.01,3218.84 -299.358,92.76 -295.308,-92.76 295.711,-79.44 298.955,79.44" /><path
         id="path32"
         style="fill:#f9a721;fill-opacity:1;fill-rule:nonzero;stroke:none"
         d="m 1709.28,2596.4 -320.65,107.28 0,464.87 321.12,-95.34 -0.47,-476.81" /><path
         id="path34"
         style="fill:#f9a721;fill-opacity:1;fill-rule:nonzero;stroke:none"
         d="m 1792.99,3073.21 321.04,95.34 -1.06,-464.56 -319.98,-107.59 0,476.81" /><path
         id="path36"
         style="fill:#f9a721;fill-opacity:1;fill-rule:nonzero;stroke:none"
         d="m 2048.62,3218.84 -299.24,92.76 -295.38,-92.76 295.85,-79.44 298.77,79.44" /><path
         id="path38"
         style="fill:#f9a721;fill-opacity:1;fill-rule:nonzero;stroke:none"
         d="m 1304.93,1916.95 -320.692,107.26 0,464.86 321.132,-95.34 -0.44,-476.78" /><path
         id="path40"
         style="fill:#f9a721;fill-opacity:1;fill-rule:nonzero;stroke:none"
         d="m 1388.63,2393.73 321.12,95.34 -1.13,-464.53 -319.99,-107.59 0,476.78" /><path
         id="path42"
         style="fill:#f9a721;fill-opacity:1;fill-rule:nonzero;stroke:none"
         d="m 1644.29,2539.44 -299.24,92.7 -295.4,-92.7 295.84,-79.4 298.8,79.4" /><path
         id="path44"
         style="fill:#ffffff;fill-opacity:1;fill-rule:nonzero;stroke:none"
         d="m 2725.28,2327.92 -23.57,-0.08 c -8.72,0 -19.81,-5.87 -22.45,-15.37 l -71.56,-252.79 -70.85,252.25 c -2.11,7.9 -9.6,15.91 -19.68,15.91 l -27.96,0 c -10.05,0 -17.39,-8.15 -19.37,-16.06 l -65.86,-249.63 -68.11,250.32 c -2.69,9.15 -13.92,15.37 -22.86,15.37 l -34,0.05 c -7.22,0 -13.88,-3.17 -17.52,-8.12 -2.48,-3.44 -3.11,-7.3 -1.98,-10.67 l 105.1,-373.02 c 2.28,-7.84 9.09,-15.76 18.99,-15.76 l 33.75,0 c 9.16,0 17.21,6.69 19.47,16.11 l 64.72,248.49 70.41,-248.78 c 2.13,-7.62 8.92,-15.82 18.85,-15.82 l 33.19,0 c 9.22,0 17.06,6.4 19.31,15.9 l 101.22,372.75 c 1.14,3.57 0.45,7.52 -1.95,10.86 -3.57,4.96 -10.21,8.09 -17.29,8.09" /><path
         id="path46"
         style="fill:#ffffff;fill-opacity:1;fill-rule:nonzero;stroke:none"
         d="m 3017.16,2169.52 -178.34,0 c 4.07,50.23 36.59,102.15 91.69,104.16 58.55,-1.91 85.36,-52.71 86.65,-104.16 z m -86.79,161.05 c -120.57,0 -175.42,-106.78 -175.42,-205.92 0,-123.84 68.24,-203.78 173.74,-203.78 75.64,0 133.23,38.26 158.14,105.1 1.3,3.82 0.81,8.01 -1.2,11.73 -2.49,4.43 -7.36,7.88 -13.03,9.15 l -33.5,6.39 c -8.89,1.44 -19.21,-3.92 -22.57,-11.63 -16.21,-37.19 -45.9,-58.23 -83.07,-59.37 -35.73,1.18 -68.56,22.44 -83.59,54.28 -12.3,25.94 -14.07,51.58 -14.29,77.62 l 242.16,0.06 c 5.14,0 10.28,2.26 14.05,5.99 3.16,3.13 4.77,7.05 4.74,10.93 -0.59,96.43 -44.62,199.45 -166.16,199.45" /><path
         id="path48"
         style="fill:#ffffff;fill-opacity:1;fill-rule:nonzero;stroke:none"
         d="m 3394.4,2124.03 c 0,-22.83 -3.99,-136.9 -84.96,-139.79 -27.1,1.06 -54.46,16.99 -69.76,40.59 -11.16,17.89 -17.81,42.52 -19.43,73.06 l 0,67.01 c 1.25,51.47 37.33,107.87 88.99,110.08 81.17,-3.24 85.16,-126.32 85.16,-150.95 z m -72.27,209.97 -6.37,0 c -39.98,0 -71.4,-16.64 -95.51,-50.77 l -0.07,157.23 c 0,8.91 -9.1,16.93 -19.3,16.93 l -34.67,0 c -9.09,0 -19.25,-7.19 -19.35,-16.93 l 0,-490.89 c 0.1,-8.85 9.21,-17 19.23,-17 l 10.11,0.08 c 9.82,0 16.62,7.77 18.91,15.06 l 10.92,34.68 c 25.27,-36.12 63.42,-57.25 104.28,-57.25 l 6.27,0 c 107.4,0 155.47,104.74 155.47,208.55 0,51.65 -12.71,101.11 -34.9,135.54 -25.6,40.01 -69.66,64.77 -115.02,64.77" /><path
         id="path50"
         style="fill:#ffffff;fill-opacity:1;fill-rule:nonzero;stroke:none"
         d="m 3853.37,2135.12 c -22.7,16.23 -49.89,21.7 -77.17,27.17 l -52.28,9.7 c -37.54,6.21 -59.23,16.3 -59.23,49.46 0,35.08 36.22,48.52 66.97,49.29 37.63,-0.93 65.81,-17.7 79.52,-47.23 3.3,-6.97 10.49,-11.63 18.06,-11.63 1.25,0 2.52,0.11 3.82,0.39 l 32.65,7.26 c 5.27,1.1 10.31,4.83 12.93,9.56 2.21,3.79 2.61,7.91 1.24,11.55 -19.87,58.28 -70.63,89.16 -147.27,89.16 -69.26,-0.19 -143.36,-31.09 -143.36,-117.36 0,-58.9 36.97,-96.31 109.88,-111.24 l 58.61,-11.14 c 32.12,-6.2 65,-17.17 65,-51.75 0,-51.26 -59.48,-56.4 -77.43,-56.76 -40.33,0.9 -85.96,18.86 -97.08,57 -2.21,8.43 -12.77,14.36 -22.01,12.43 l -34.19,-7.06 c -5.03,-1.06 -9.73,-4.43 -12.51,-8.9 -2.28,-3.78 -2.96,-8.07 -1.91,-11.9 17.66,-63.33 78.63,-101.56 163.23,-102.16 l 1.83,0 c 75.55,0 156.25,32.38 156.25,123.35 0,37 -16.68,70.09 -45.55,90.81" /><path
         id="path52"
         style="fill:#ffffff;fill-opacity:1;fill-rule:nonzero;stroke:none"
         d="m 4198.63,2169.13 -178.49,0 c 4.08,50.23 36.65,102.34 91.71,104.12 58.42,-1.78 85.32,-52.62 86.78,-104.12 z m -86.89,161.09 c -120.58,0 -175.46,-106.77 -175.46,-205.91 0,-123.79 68.25,-203.78 173.83,-203.78 75.58,0 133.05,38.26 158.09,105.12 1.37,3.78 0.89,7.99 -1.19,11.7 -2.48,4.51 -7.33,7.91 -13.03,9.15 l -33.37,6.41 c -7.97,1.22 -18.92,-2.8 -22.77,-11.64 -16.2,-37.15 -45.81,-58.19 -82.96,-59.36 -35.84,1.17 -68.62,22.42 -83.65,54.19 -12.21,26.02 -14.01,51.61 -14.21,77.69 l 242.11,0.06 c 5.02,0 10.27,2.28 14.01,5.98 3.01,3.18 4.76,7.06 4.73,11.01 -0.58,96.39 -44.48,199.38 -166.13,199.38" /><path
         id="path54"
         style="fill:#ffffff;fill-opacity:1;fill-rule:nonzero;stroke:none"
         d="m 4506.52,2325.67 c -4.78,0.53 -9.33,0.84 -13.64,0.84 -40.66,0 -73.69,-22.19 -96.52,-64.47 l 0.1,37.01 c -0.06,8.99 -9.06,16.86 -19.17,16.86 l -30.34,0 c -9.87,0 -18.58,-7.91 -18.61,-16.99 l -0.08,-359.88 c 0,-9.05 8.75,-16.98 18.69,-16.98 l 35.37,0 c 9.11,0 19.51,7.25 19.61,16.98 l 0.03,181.42 c 0,29.93 2.73,52.42 16.94,79.13 20.49,37.97 48.84,56.61 87.1,56.94 9.47,0.08 17.84,8.41 17.84,17.89 l 0,33.65 c 0,8.81 -7.6,16.51 -17.32,17.6" /><path
         id="path56"
         style="fill:#ffffff;fill-opacity:1;fill-rule:nonzero;stroke:none"
         d="m 4876.98,2332.77 -27.83,0 c -8.75,0 -19.97,-6.26 -22.67,-15.48 l -90.31,-284.61 -92.26,284.26 c -2.66,9.5 -13.88,15.83 -22.71,15.83 l -39.79,0 c -7.32,0 -14.38,-3.23 -17.92,-8.32 -2.43,-3.34 -3.02,-7.16 -1.95,-10.74 l 126.23,-375.35 c 2.47,-7.44 9,-16.11 19.08,-16.11 l 48.14,0 c 8.87,0 16.1,6.05 19.34,16.11 l 122.46,375.21 c 1.23,3.58 0.64,7.44 -1.78,10.78 -3.68,5.11 -10.71,8.42 -18.03,8.42" /><path
         id="path58"
         style="fill:#ffffff;fill-opacity:1;fill-rule:nonzero;stroke:none"
         d="m 4968.54,2477 c -25.6,0 -46.59,-20.95 -46.59,-46.75 0,-25.8 20.99,-46.78 46.59,-46.78 25.69,0 46.58,20.98 46.58,46.78 0,25.8 -20.89,46.75 -46.58,46.75" /><path
         id="path60"
         style="fill:#ffffff;fill-opacity:1;fill-rule:nonzero;stroke:none"
         d="m 4987.73,2335.04 -38.24,0 c -10.3,0 -19.84,-8.39 -19.84,-17.6 l -0.16,-382.18 c 0,-4.62 2.27,-9.22 6.44,-12.59 3.82,-3.1 8.52,-4.9 13.45,-4.9 l 38.49,-0.06 0.03,0 c 10.47,0.11 19.79,8.26 19.79,17.48 l 0,382.25 c 0,9.34 -9.37,17.6 -19.96,17.6" /><path
         id="path62"
         style="fill:#ffffff;fill-opacity:1;fill-rule:nonzero;stroke:none"
         d="m 5344.86,2075.88 -31.94,-0.08 c -8.89,0 -16.34,-5.35 -19.65,-14.64 -11.67,-50.43 -38.08,-76.54 -78.1,-77.71 -77.99,2.3 -84.04,111.25 -84.04,144.58 0,66.44 22.92,138.14 87,140.06 38.71,-1.16 66.88,-29 75.35,-74.36 1.61,-9.22 8.64,-16.16 18.4,-17.41 l 34.16,-0.42 c 10.1,1.19 18.09,8.89 18.06,18.51 -12.02,81.94 -68.68,134.86 -144.45,134.86 l -2.57,-0.08 -2.9,0.08 c -110.06,0 -159.34,-102.94 -159.34,-204.96 0,-93.57 41.57,-202.78 158.77,-202.78 l 5.47,0 c 73.83,0 129.58,51.84 145.5,135.88 0.36,4.05 -1.02,8.02 -3.8,11.24 -3.77,4.24 -9.47,6.96 -15.92,7.23" /><path
         id="path64"
         style="fill:#ffffff;fill-opacity:1;fill-rule:nonzero;stroke:none"
         d="m 5659.96,2169.13 -178.4,0 c 4.02,50.26 36.47,102.34 91.62,104.12 58.61,-1.78 85.46,-52.62 86.78,-104.12 z m -86.89,161.09 c -120.48,0 -175.41,-106.77 -175.41,-205.91 0,-123.79 68.26,-203.78 173.85,-203.78 75.53,0 133.11,38.23 158.08,105.12 1.26,3.78 0.82,7.99 -1.25,11.7 -2.57,4.54 -7.27,7.85 -12.92,9.15 l -33.55,6.41 c -7.88,1.22 -18.71,-2.8 -22.59,-11.64 -16.28,-37.15 -45.95,-58.19 -83.04,-59.36 -35.77,1.17 -68.65,22.42 -83.61,54.19 -12.32,26.02 -14.11,51.61 -14.29,77.69 l 242.1,0.06 c 5.15,0 10.41,2.28 14.12,6.06 3.15,3.12 4.88,7.01 4.76,10.93 -0.62,96.39 -44.54,199.38 -166.25,199.38" /><path
         id="path66"
         style="fill:#ffffff;fill-opacity:1;fill-rule:nonzero;stroke:none"
         d="m 6042.74,2135.12 c -22.9,16.23 -50.06,21.74 -77.32,27.17 l -52.28,9.7 c -37.42,6.21 -59.11,16.3 -59.11,49.46 0,45.24 55.91,49.02 66.98,49.29 37.56,-0.93 65.75,-17.7 79.51,-47.26 3.26,-6.99 10.41,-11.6 17.98,-11.6 1.29,0 2.59,0.11 3.82,0.39 l 32.64,7.26 c 5.37,1.1 10.31,4.83 12.94,9.59 2.2,3.76 2.64,7.88 1.36,11.52 -20.05,58.28 -70.57,89.16 -147.41,89.16 -69.25,-0.19 -143.34,-31.09 -143.34,-117.36 0,-58.92 36.97,-96.31 110.01,-111.24 l 58.48,-11.14 c 32.13,-6.2 65,-17.17 65,-51.75 0,-51.26 -59.46,-56.4 -77.38,-56.76 -37.33,0.84 -85.24,16.24 -97.04,56.97 -2.18,8.46 -12.65,14.39 -22.1,12.46 l -33.98,-7.06 c -5.3,-1.06 -9.94,-4.43 -12.72,-8.98 -2.27,-3.86 -3.02,-8.02 -1.82,-11.82 17.59,-63.33 78.55,-101.56 163.08,-102.16 l 1.94,0 c 75.47,0 156.18,32.38 156.18,123.35 0,37 -16.51,70.09 -45.42,90.81" /><path
         id="path68"
         style="fill:#ffffff;fill-opacity:1;fill-rule:evenodd;stroke:none"
         d="m 4489.22,3070.77 0,86.75 c 0.08,13.16 9.96,22.05 22,22.05 l 387.93,0 c 12.37,0 22.29,-9.08 22.29,-21.93 l 0,-74.39 c -0.14,-12.48 -10.61,-28.78 -29.21,-54.62 l -200.88,-287.55 c 74.54,1.75 153.55,-9.41 221.25,-47.56 15.19,-8.61 19.26,-21.36 20.54,-33.86 l 0,-92.53 c 0,-12.83 -13.93,-27.53 -28.61,-19.85 -119.43,62.71 -277.7,69.55 -409.85,-0.76 -13.42,-7.22 -27.61,7.3 -27.61,20.08 l 0,87.98 c 0,14.07 0.27,38.18 14.53,59.67 l 232.76,334.64 -202.65,0.09 c -12.53,0 -22.38,8.84 -22.49,21.79" /><path
         id="path70"
         style="fill:#ffffff;fill-opacity:1;fill-rule:evenodd;stroke:none"
         d="m 3074.37,2529.05 -118.08,0 c -11.2,0.66 -20.12,9.15 -21.03,20.03 l 0.12,606.98 c 0,12.14 10.13,21.83 22.64,21.83 l 109.96,0.09 c 11.47,-0.67 20.64,-9.3 21.49,-20.41 l 0,-79.32 2.13,0 c 28.67,76.71 82.64,112.43 155.39,112.43 73.82,0 120.04,-35.72 153,-112.43 28.75,76.71 93.73,112.43 163.16,112.43 49.51,0 103.42,-20.42 136.47,-66.35 37.47,-51.12 29.79,-125.19 29.79,-190.37 l -0.03,-383.03 c 0,-12.18 -10.19,-21.88 -22.8,-21.88 l -117.86,0 c -11.84,0.66 -21.22,10.19 -21.22,21.73 l 0,321.87 c 0,25.53 2.2,89.43 -3.33,113.7 -8.8,40.9 -35.22,52.3 -69.36,52.3 -28.59,0 -58.38,-19.14 -70.54,-49.69 -12.09,-30.74 -10.97,-81.82 -10.97,-116.31 l 0,-321.72 c 0,-12.18 -10.22,-21.88 -22.74,-21.88 l -117.93,0 c -11.79,0.66 -21.17,10.19 -21.17,21.73 l -0.1,321.87 c 0,67.74 11.07,167.29 -72.71,167.29 -84.83,0 -81.44,-97.04 -81.44,-167.29 l -0.03,-321.72 c 0,-12.18 -10.25,-21.88 -22.81,-21.88" /><path
         id="path72"
         style="fill:#ffffff;fill-opacity:1;fill-rule:evenodd;stroke:none"
         d="m 5256.45,3066.78 c -86.96,0 -92.52,-118.74 -92.52,-192.9 0,-74.07 -1.11,-232.42 91.46,-232.42 91.5,0 95.94,127.72 95.94,205.64 0,51.08 -2.25,112.34 -17.65,160.93 -13.25,42.19 -39.72,58.75 -77.23,58.75 z m -1.06,123.9 c 175.18,0 270,-150.74 270,-342.26 0,-185.3 -104.78,-332.17 -270,-332.17 -171.85,0 -265.49,150.79 -265.49,338.54 0,189.02 94.71,335.89 265.49,335.89" /><path
         id="path74"
         style="fill:#ffffff;fill-opacity:1;fill-rule:evenodd;stroke:none"
         d="m 5752.39,2529.05 -117.47,0 c -11.95,0.66 -21.29,10.19 -21.29,21.73 l -0.14,607.35 c 0.98,11.08 10.82,19.76 22.66,19.76 l 109.53,0.09 c 10.31,-0.58 18.71,-7.59 20.95,-17 l 0,-92.94 2.18,0 c 33,83.06 79.38,122.64 160.84,122.64 52.89,0 104.63,-19.12 137.68,-71.48 30.84,-48.55 30.84,-130.24 30.84,-189.04 l 0,-381.98 c -1.28,-10.8 -10.96,-19.13 -22.52,-19.13 l -118.31,0 c -11.03,0.66 -19.85,8.73 -21.11,19.13 l 0,329.56 c 0,66.44 7.73,163.54 -73.79,163.54 -28.68,0 -54.98,-19.2 -68.32,-48.57 -16.54,-36.98 -18.72,-74.09 -18.72,-114.97 l 0,-326.81 c -0.19,-12.18 -10.38,-21.88 -23.01,-21.88" /><path
         id="path76"
         style="fill:#ffffff;fill-opacity:1;fill-rule:evenodd;stroke:none"
         d="m 4299.05,2530.56 c -7.9,-7.02 -19.07,-7.49 -27.93,-2.75 -39.17,32.6 -46.26,47.74 -67.58,78.8 -64.85,-66.13 -110.66,-85.95 -194.59,-85.95 -99.38,0 -176.61,61.44 -176.61,184.35 0,95.97 51.89,161.33 125.76,193.29 64.01,28.16 153.5,33.29 221.97,41.03 l 0,15.31 c 0,28.16 2.18,61.5 -14.36,85.78 -14.3,21.75 -41.92,30.73 -66.24,30.73 -45,0 -85.11,-23.2 -94.86,-71.04 -1.91,-10.67 -9.87,-21.22 -20.46,-21.77 l -114.43,12.46 c -9.64,2.13 -20.38,9.89 -17.6,24.65 26.35,139.13 151.65,181.12 263.92,181.12 57.29,0 132.46,-15.33 177.77,-58.85 57.33,-53.77 51.77,-125.44 51.77,-203.57 l 0,-184.25 c 0,-55.45 23.12,-79.77 44.67,-109.69 7.46,-10.71 9.13,-23.44 -0.46,-31.39 -24.09,-20.2 -66.96,-57.55 -90.44,-78.53 l -0.3,0.27 z m -118.98,288.39 c 0,-46.1 1.09,-84.52 -22.13,-125.46 -18.71,-33.35 -48.55,-53.81 -81.75,-53.81 -45.2,0 -71.7,34.56 -71.7,85.8 0,100.76 90.22,119.04 175.58,119.04 l 0,-25.57" /><path
         id="path78"
         style="fill:#ffffff;fill-opacity:1;fill-rule:evenodd;stroke:none"
         d="m 2751.97,2530.56 c -7.73,-7.02 -19.05,-7.49 -27.83,-2.75 -39.19,32.6 -46.23,47.74 -67.69,78.8 -64.71,-66.13 -110.64,-85.95 -194.49,-85.95 -99.39,0 -176.71,61.44 -176.71,184.35 0,95.97 51.99,161.33 125.92,193.29 64.08,28.16 153.44,33.29 221.87,41.03 l 0,15.31 c 0,28.16 2.21,61.5 -14.39,85.78 -14.23,21.75 -41.93,30.73 -66.17,30.73 -44.96,0 -85.05,-23.2 -94.9,-71.04 -1.96,-10.67 -9.76,-21.22 -20.36,-21.77 l -114.4,12.46 c -9.71,2.13 -20.45,9.89 -17.73,24.65 26.29,139.13 151.58,181.12 263.91,181.12 57.41,0 132.56,-15.33 177.77,-58.85 57.35,-53.77 51.86,-125.44 51.86,-203.57 l 0,-184.25 c 0,-55.45 22.99,-79.77 44.5,-109.69 7.55,-10.71 9.27,-23.44 -0.35,-31.39 -24.11,-20.2 -66.97,-57.55 -90.49,-78.53 l -0.32,0.27 z m -118.93,288.39 c 0,-46.1 1.14,-84.52 -22.08,-125.46 -18.68,-33.35 -48.64,-53.81 -81.66,-53.81 -45.29,0 -71.81,34.56 -71.81,85.8 0,100.76 90.12,119.04 175.55,119.04 l 0,-25.57" /><path
         id="path80"
         style="fill:#ffffff;fill-opacity:1;fill-rule:nonzero;stroke:none"
         d="m 7049,2429.77 46.81,0 383.72,-520.35 1.67,0 0,520.35 37.48,0 0,-567.23 -44.27,0 -386.28,524.31 -1.68,0 0,-524.31 -37.45,0 0,567.23" /><path
         id="path82"
         style="fill:#ffffff;fill-opacity:1;fill-rule:nonzero;stroke:none"
         d="m 7940.8,2088.95 c -1.67,85.79 -59.52,165.25 -159.94,165.25 -97,0 -154.01,-84.2 -160.81,-165.25 l 320.75,0 z m -320.75,-26.23 c -1.7,-96.1 52.76,-183.46 160.81,-183.46 82.53,0 141.25,46.05 156.53,121.52 l 32.35,0 c -17.03,-95.31 -85.05,-147.73 -188.88,-147.73 -127.64,0 -194.84,93.7 -193.15,206.52 -1.69,112.01 61.26,220.85 193.15,220.85 136.97,0 198.23,-100.89 192.28,-217.7 l -353.09,0" /><path
         id="path84"
         style="fill:#ffffff;fill-opacity:1;fill-rule:nonzero;stroke:none"
         d="m 8205.56,2244.64 -95.31,0 0,-285.17 c 0,-65.93 33.18,-72.31 94.44,-70.73 l 0,-26.2 c -66.35,-3.97 -130.18,4.77 -126.77,96.93 l 0,285.17 -80.82,0 0,26.2 80.82,0 0,127.15 32.33,0 0,-127.15 95.31,0 0,-26.2" /><path
         id="path86"
         style="fill:#ffffff;fill-opacity:1;fill-rule:nonzero;stroke:none"
         d="m 8377.46,1897.48 1.74,0 119.08,373.36 43.4,0 119.94,-373.36 1.74,0 122.52,373.36 35.72,0 -140.38,-408.3 -39.99,0 -119.98,370.2 -1.68,0 -120.84,-370.2 -40.84,0 -138.66,408.3 34.87,0 123.36,-373.36" /><path
         id="path88"
         style="fill:#ffffff;fill-opacity:1;fill-rule:nonzero;stroke:none"
         d="m 9033.64,1879.26 c 109.78,0 168.47,89.74 168.47,187.46 0,97.7 -58.69,187.48 -168.47,187.48 -109.74,0 -168.45,-89.78 -168.45,-187.48 0,-97.72 58.71,-187.46 168.45,-187.46 z m 0,401.16 c 128.52,0 200.8,-97.7 200.8,-213.7 0,-115.98 -72.28,-213.67 -200.8,-213.67 -128.46,0 -200.79,97.69 -200.79,213.67 0,116 72.33,213.7 200.79,213.7" /><path
         id="path90"
         style="fill:#ffffff;fill-opacity:1;fill-rule:nonzero;stroke:none"
         d="m 9338.36,2180.31 2.55,0 c 17.02,53.25 88.5,96.12 167.63,92.94 l 0,-30.19 c -34.02,3.99 -81.69,-3.97 -120.83,-39.7 -32.32,-31.01 -45.93,-56.41 -49.35,-117.58 l 0,-223.24 -32.32,0 0,408.3 32.32,0 0,-90.53" /><path
         id="path92"
         style="fill:#ffffff;fill-opacity:1;fill-rule:nonzero;stroke:none"
         d="m 9545.21,2429.77 32.31,0 0,-375.78 269.72,216.85 46.8,0 -191.46,-152.52 205.05,-255.78 -44.24,0 -186.32,232.76 -99.55,-78.66 0,-154.1 -32.31,0 0,567.23" /><path
         id="path94"
         style="fill:#ffffff;fill-opacity:1;fill-rule:nonzero;stroke:none"
         d="m 7090.3,2890.69 210.17,0 c 108.02,0 144.89,66.46 144.89,124.33 0,41.44 -20.13,125.92 -139.86,125.92 l -215.2,0 0,-250.25 z m -36.84,279.96 254.55,0 c 67.84,0 174.21,-22.69 174.21,-156.41 0,-97.75 -68.7,-153.28 -187.58,-153.28 l -204.34,0 0,-248.67 -36.84,0 0,558.36" /><path
         id="path96"
         style="fill:#ffffff;fill-opacity:1;fill-rule:nonzero;stroke:none"
         d="m 7829.8,2840.63 c -25.09,-26.6 -93.77,-23.45 -155.73,-31.29 -75.34,-7.82 -118.09,-32.84 -118.09,-93.06 0,-48.48 37.72,-87.58 113.04,-87.58 144.9,0 160.78,115.73 160.78,136.85 l 0,75.08 z m 31.86,-154.05 c 0,-23.48 0,-48.48 28.44,-48.48 5.9,0 13.44,0.74 23.45,2.32 l 0,-25.03 c -9.2,-1.56 -17.55,-3.1 -25.96,-3.1 -50.23,0 -57.79,25.81 -57.79,58.63 l 0,21.12 -1.65,0 c -20.1,-47.69 -77.86,-89.16 -159.94,-89.16 -81.21,0 -144.02,28.95 -144.02,113.4 0,93.86 87.07,113.4 158.27,118.88 142.31,9.38 148.2,17.97 148.2,83.67 0,18 -21.76,78.99 -119.73,78.99 -77.05,0 -128.15,-37.53 -132.34,-107.13 l -31.82,0 c 4.19,88.36 62.82,132.94 164.16,132.94 75.38,0 150.73,-21.91 150.73,-104.8 l 0,-232.25" /><path
         id="path98"
         style="fill:#ffffff;fill-opacity:1;fill-rule:nonzero;stroke:none"
         d="m 7996.53,2925.09 2.51,0 c 16.75,52.4 87.1,94.62 164.99,91.5 l 0,-29.72 c -33.52,3.92 -80.4,-3.92 -118.92,-39.11 -31.83,-30.49 -45.2,-55.51 -48.58,-115.73 l 0,-219.74 -31.79,0 0,401.95 31.79,0 0,-89.15" /><path
         id="path100"
         style="fill:#ffffff;fill-opacity:1;fill-rule:nonzero;stroke:none"
         d="m 8378.42,2988.43 -93.74,0 0,-280.74 c 0,-64.92 32.63,-71.19 92.94,-69.59 l 0,-25.81 c -65.33,-3.91 -128.15,4.69 -124.77,95.4 l 0,280.74 -79.57,0 0,25.81 79.57,0 0,125.13 31.83,0 0,-125.13 93.74,0 0,-25.81" /><path
         id="path102"
         style="fill:#ffffff;fill-opacity:1;fill-rule:nonzero;stroke:none"
         d="m 8438.78,3014.24 31.81,0 0,-86.03 1.7,0 c 21.76,60.22 87.07,95.42 154.04,95.42 151.57,0 153.27,-113.4 153.27,-162.67 l 0,-248.67 -31.83,0 0,254.14 c 0,41.46 -5.02,131.39 -122.24,131.39 -96.32,0 -154.94,-69.61 -154.94,-168.14 l 0,-217.39 -31.81,0 0,401.95" /><path
         id="path104"
         style="fill:#ffffff;fill-opacity:1;fill-rule:nonzero;stroke:none"
         d="m 9203.44,2835.16 c -1.72,84.45 -58.65,162.66 -157.46,162.66 -95.46,0 -151.58,-82.9 -158.27,-162.66 l 315.73,0 z m -315.73,-25.82 c -1.65,-94.62 51.95,-180.64 158.27,-180.64 81.23,0 138.99,45.35 154.1,119.65 l 31.82,0 c -16.74,-93.85 -83.75,-145.47 -185.92,-145.47 -125.58,0 -191.75,92.3 -190.1,203.34 -1.65,110.27 60.3,217.41 190.1,217.41 134.84,0 195.11,-99.32 189.24,-214.29 l -347.51,0" /><path
         id="path106"
         style="fill:#ffffff;fill-opacity:1;fill-rule:nonzero;stroke:none"
         d="m 9343.36,2925.09 2.51,0 c 16.75,52.4 87.11,94.62 164.97,91.5 l 0,-29.72 c -33.51,3.92 -80.38,-3.92 -118.9,-39.11 -31.83,-30.49 -45.2,-55.51 -48.58,-115.73 l 0,-219.74 -31.83,0 0,401.95 31.83,0 0,-89.15" /><path
         id="path108"
         style="fill:#ffffff;fill-opacity:1;fill-rule:nonzero;stroke:none"
         d="m 6585.72,1413.56 35.2109,0 0,2184.91 -35.2109,0 0,-2184.91 z" /><path
         id="path110"
         style="fill:#ffffff;fill-opacity:1;fill-rule:nonzero;stroke:none"
         d="m 2526.7,870.199 0,37.602 268.37,0 0,-37.602 -111.86,0 0,-297.969 -44.66,0 0,297.969 -111.85,0" /><path
         id="path112"
         style="fill:#ffffff;fill-opacity:1;fill-rule:nonzero;stroke:none"
         d="m 3063.9,907.801 0,-37.602 -187.06,0 0,-106.679 174.37,0 0,-37.598 -174.37,0 0,-116.102 188.47,0 0,-37.59 -233.12,0 0,335.571 231.71,0" /><path
         id="path114"
         style="fill:#ffffff;fill-opacity:1;fill-rule:nonzero;stroke:none"
         d="m 3322.16,860.328 c -17.08,11.91 -37.36,17.863 -60.86,17.863 -20.05,0 -37.21,-3.761 -51.47,-11.281 -14.26,-7.519 -26.01,-17.621 -35.25,-30.308 -9.24,-12.692 -16.05,-27.192 -20.44,-43.481 -4.39,-16.289 -6.58,-33.223 -6.58,-50.762 0,-19.121 2.19,-37.199 6.58,-54.277 4.39,-17.082 11.2,-31.973 20.44,-44.652 9.24,-12.692 21.07,-22.809 35.49,-30.321 14.41,-7.519 31.64,-11.269 51.7,-11.269 14.72,0 27.81,2.422 39.25,7.281 11.43,4.84 21.3,11.578 29.61,20.211 8.3,8.609 14.8,18.867 19.5,30.789 4.7,11.891 7.52,24.738 8.46,38.527 l 44.65,0 c -4.39,-42.296 -18.96,-75.187 -43.71,-98.699 -24.75,-23.5 -58.6,-35.238 -101.52,-35.238 -26.01,0 -48.73,4.449 -68.15,13.391 -19.43,8.929 -35.57,21.218 -48.41,36.886 -12.85,15.66 -22.49,34.153 -28.91,55.461 -6.42,21.313 -9.63,44.18 -9.63,68.621 0,24.45 3.44,47.391 10.34,68.86 6.89,21.449 16.99,40.179 30.31,56.16 13.32,15.992 29.92,28.59 49.82,37.84 19.9,9.242 42.69,13.859 68.39,13.859 17.55,0 34.15,-2.348 49.82,-7.051 15.67,-4.699 29.61,-11.59 41.83,-20.668 12.22,-9.109 22.4,-20.449 30.55,-34.09 8.14,-13.628 13.47,-29.371 15.98,-47.218 l -44.65,0 c -5.02,23.808 -16.06,41.66 -33.14,53.566" /><path
         id="path116"
         style="fill:#ffffff;fill-opacity:1;fill-rule:nonzero;stroke:none"
         d="m 3503.34,907.801 0,-144.281 176.72,0 0,144.281 44.65,0 0,-335.571 -44.65,0 0,153.692 -176.72,0 0,-153.692 -44.65,0 0,335.571 44.65,0" /><path
         id="path118"
         style="fill:#ffffff;fill-opacity:1;fill-rule:nonzero;stroke:none"
         d="m 3845.02,907.801 176.72,-272.129 0.94,0 0,272.129 42.3,0 0,-335.571 -48.88,0 -175.31,269.301 -0.94,0 0,-269.301 -42.3,0 0,335.571 47.47,0" /><path
         id="path120"
         style="fill:#ffffff;fill-opacity:1;fill-rule:nonzero;stroke:none"
         d="m 4169.79,689.961 c 4.38,-16.449 11.28,-31.262 20.68,-44.41 9.4,-13.172 21.46,-23.742 36.19,-31.731 14.72,-8 32.27,-11.98 52.64,-11.98 20.36,0 37.91,3.98 52.64,11.98 14.72,7.989 26.79,18.559 36.19,31.731 9.4,13.148 16.29,27.961 20.68,44.41 4.38,16.449 6.58,33.129 6.58,50.051 0,16.918 -2.2,33.597 -6.58,50.058 -4.39,16.45 -11.28,31.262 -20.68,44.41 -9.4,13.161 -21.47,23.739 -36.19,31.731 -14.73,7.988 -32.28,11.98 -52.64,11.98 -20.37,0 -37.92,-3.992 -52.64,-11.98 -14.73,-7.992 -26.79,-18.57 -36.19,-31.731 -9.4,-13.148 -16.3,-27.96 -20.68,-44.41 -4.39,-16.461 -6.58,-33.14 -6.58,-50.058 0,-16.922 2.19,-33.602 6.58,-50.051 z m -41.13,116.078 c 6.74,21.16 16.84,39.883 30.32,56.172 13.47,16.289 30.23,29.289 50.29,39.008 20.05,9.711 43.39,14.57 70.03,14.57 26.63,0 49.97,-4.859 70.03,-14.57 20.05,-9.719 36.81,-22.719 50.29,-39.008 13.47,-16.289 23.57,-35.012 30.31,-56.172 6.74,-21.141 10.11,-43.16 10.11,-66.027 0,-22.883 -3.37,-44.883 -10.11,-66.043 -6.74,-21.141 -16.84,-39.867 -30.31,-56.16 -13.48,-16.297 -30.24,-29.219 -50.29,-38.77 -20.06,-9.559 -43.4,-14.328 -70.03,-14.328 -26.64,0 -49.98,4.769 -70.03,14.328 -20.06,9.551 -36.82,22.473 -50.29,38.77 -13.48,16.293 -23.58,35.019 -30.32,56.16 -6.74,21.16 -10.1,43.16 -10.1,66.043 0,22.867 3.36,44.886 10.1,66.027" /><path
         id="path122"
         style="fill:#ffffff;fill-opacity:1;fill-rule:nonzero;stroke:none"
         d="m 4539.2,907.801 0,-297.981 177.67,0 0,-37.59 -222.31,0 0,335.571 44.64,0" /><path
         id="path124"
         style="fill:#ffffff;fill-opacity:1;fill-rule:nonzero;stroke:none"
         d="m 4788.31,689.961 c 4.38,-16.449 11.27,-31.262 20.67,-44.41 9.4,-13.172 21.46,-23.742 36.2,-31.731 14.72,-8 32.26,-11.98 52.63,-11.98 20.37,0 37.91,3.98 52.64,11.98 14.73,7.989 26.8,18.559 36.2,31.731 9.39,13.148 16.28,27.961 20.67,44.41 4.39,16.449 6.59,33.129 6.59,50.051 0,16.918 -2.2,33.597 -6.59,50.058 -4.39,16.45 -11.28,31.262 -20.67,44.41 -9.4,13.161 -21.47,23.739 -36.2,31.731 -14.73,7.988 -32.27,11.98 -52.64,11.98 -20.37,0 -37.91,-3.992 -52.63,-11.98 -14.74,-7.992 -26.8,-18.57 -36.2,-31.731 -9.4,-13.148 -16.29,-27.96 -20.67,-44.41 -4.4,-16.461 -6.59,-33.14 -6.59,-50.058 0,-16.922 2.19,-33.602 6.59,-50.051 z m -41.13,116.078 c 6.73,21.16 16.84,39.883 30.32,56.172 13.46,16.289 30.23,29.289 50.28,39.008 20.05,9.711 43.4,14.57 70.03,14.57 26.63,0 49.98,-4.859 70.03,-14.57 20.05,-9.719 36.82,-22.719 50.29,-39.008 13.47,-16.289 23.58,-35.012 30.32,-56.172 6.73,-21.141 10.1,-43.16 10.1,-66.027 0,-22.883 -3.37,-44.883 -10.1,-66.043 -6.74,-21.141 -16.85,-39.867 -30.32,-56.16 -13.47,-16.297 -30.24,-29.219 -50.29,-38.77 -20.05,-9.559 -43.4,-14.328 -70.03,-14.328 -26.63,0 -49.98,4.769 -70.03,14.328 -20.05,9.551 -36.82,22.473 -50.28,38.77 -13.48,16.293 -23.59,35.019 -30.32,56.16 -6.74,21.16 -10.1,43.16 -10.1,66.043 0,22.867 3.36,44.886 10.1,66.027" /><path
         id="path126"
         style="fill:#ffffff;fill-opacity:1;fill-rule:nonzero;stroke:none"
         d="m 5315.17,576.211 c -19.43,-7.672 -39.01,-11.5 -58.75,-11.5 -25.07,0 -47.47,4.621 -67.21,13.848 -19.74,9.242 -36.5,21.691 -50.29,37.382 -13.79,15.661 -24.29,33.668 -31.49,54.039 -7.21,20.372 -10.81,41.508 -10.81,63.461 0,24.43 3.37,47.688 10.11,69.778 6.73,22.09 16.76,41.441 30.08,58.051 13.31,16.601 29.91,29.839 49.82,39.718 19.89,9.871 43.16,14.801 69.79,14.801 18.17,0 35.32,-2.117 51.47,-6.34 16.13,-4.238 30.55,-10.898 43.24,-19.98 12.69,-9.09 23.34,-20.598 31.96,-34.547 8.61,-13.942 14.49,-30.781 17.63,-50.531 l -44.67,0 c -2.18,12.859 -6.26,23.898 -12.2,33.148 -5.96,9.242 -13.33,16.832 -22.09,22.789 -8.79,5.953 -18.74,10.41 -29.86,13.402 -11.12,2.969 -22.95,4.461 -35.48,4.461 -20.37,0 -37.84,-4.07 -52.4,-12.211 -14.57,-8.16 -26.49,-18.89 -35.72,-32.21 -9.25,-13.321 -16.06,-28.52 -20.45,-45.59 -4.39,-17.078 -6.58,-34.539 -6.58,-52.399 0,-17.551 2.5,-34.39 7.52,-50.531 5.01,-16.129 12.38,-30.391 22.09,-42.77 9.71,-12.371 21.69,-22.25 35.96,-29.609 14.25,-7.359 30.78,-11.031 49.58,-11.031 17.54,0 33.06,2.808 46.53,8.449 13.47,5.652 24.82,13.402 34.08,23.262 9.24,9.879 16.21,21.469 20.91,34.789 4.7,13.308 6.74,27.648 6.11,43.012 l -107.16,0 0,37.597 147.11,0 0,-176.719 -28.2,0 -11.75,41.821 c -13.15,-17.551 -29.46,-30.16 -48.88,-37.84" /><path
         id="path128"
         style="fill:#ffffff;fill-opacity:1;fill-rule:nonzero;stroke:none"
         d="m 5608.44,572.23 -44.65,0 0,137.231 -129.71,198.34 53.11,0 100.58,-159.789 98.23,159.789 50.76,0 -128.32,-198.34 0,-137.231" /><path
         id="path130"
         style="fill:#ffffff;fill-opacity:1;fill-rule:nonzero;stroke:none"
         d="m 6037.09,747.059 c 25.37,-0.309 43.95,4.851 55.68,15.523 11.76,10.637 17.64,25.988 17.64,46.047 0,20.051 -5.88,35.332 -17.64,45.82 -11.73,10.5 -30.31,15.75 -55.68,15.75 l -87.42,0 0,-123.14 87.42,0 z m 15.04,160.742 c 33.85,0 59.45,-8.699 76.83,-26.082 17.41,-17.387 26.1,-41.758 26.1,-73.09 0,-31.34 -8.69,-55.777 -26.1,-73.32 -17.38,-17.559 -42.98,-26.168 -76.83,-25.848 l -102.46,0 0,-137.231 -44.65,0 0,335.571 147.11,0" /><path
         id="path132"
         style="fill:#ffffff;fill-opacity:1;fill-rule:nonzero;stroke:none"
         d="m 6346.35,710.879 -55.94,156.5 -0.94,0 -56.87,-156.5 113.75,0 z m -31.02,196.922 131.13,-335.571 -49.35,0 -36.66,101.04 -141.93,0 -37.62,-101.04 -45.59,0 130.67,335.571 49.35,0" /><path
         id="path134"
         style="fill:#ffffff;fill-opacity:1;fill-rule:nonzero;stroke:none"
         d="m 6646.68,755.531 c 9.39,1.559 17.62,4.61 24.67,9.16 7.05,4.528 12.69,10.637 16.91,18.329 4.24,7.66 6.35,17.621 6.35,29.839 0,16.93 -4.69,30.7 -14.1,41.36 -9.4,10.64 -24.59,15.98 -45.59,15.98 l -110.92,0 0,-117.027 93.07,0 c 10.33,0 20.2,0.777 29.61,2.359 z m -9.41,152.27 c 31.97,0 56.95,-7.84 74.98,-23.5 18,-15.672 27.01,-37.129 27.01,-64.391 0,-20.371 -4.63,-38.23 -13.87,-53.578 -9.24,-15.352 -24.04,-25.84 -44.41,-31.492 l 0,-0.93 c 9.7,-1.89 17.63,-5.019 23.75,-9.41 6.09,-4.379 10.95,-9.641 14.57,-15.75 3.59,-6.102 6.25,-12.918 7.99,-20.441 1.71,-7.52 3.04,-15.36 3.98,-23.508 0.62,-8.141 1.09,-16.442 1.41,-24.903 0.31,-8.449 1.09,-16.769 2.36,-24.91 1.25,-8.148 3.05,-15.91 5.39,-23.258 2.36,-7.371 5.88,-13.871 10.59,-19.5 l -49.83,0 c -3.12,3.43 -5.25,8.141 -6.35,14.102 -1.09,5.938 -1.79,12.598 -2.11,19.969 -0.31,7.347 -0.62,15.269 -0.93,23.73 -0.32,8.469 -1.27,16.77 -2.84,24.91 -1.25,8.149 -2.81,15.899 -4.68,23.258 -1.88,7.371 -4.87,13.789 -8.93,19.281 -4.08,5.469 -9.41,9.86 -15.99,13.149 -6.59,3.301 -15.36,4.941 -26.31,4.941 l -109.05,0 0,-143.34 -44.64,0 0,335.571 157.91,0" /><path
         id="path136"
         style="fill:#ffffff;fill-opacity:1;fill-rule:nonzero;stroke:none"
         d="m 6757.13,870.199 0,37.602 268.38,0 0,-37.602 -111.88,0 0,-297.969 -44.65,0 0,297.969 -111.85,0" /><path
         id="path138"
         style="fill:#ffffff;fill-opacity:1;fill-rule:nonzero;stroke:none"
         d="m 7109.63,907.801 176.72,-272.129 0.94,0 0,272.129 42.3,0 0,-335.571 -48.89,0 -175.31,269.301 -0.94,0 0,-269.301 -42.3,0 0,335.571 47.48,0" /><path
         id="path140"
         style="fill:#ffffff;fill-opacity:1;fill-rule:nonzero;stroke:none"
         d="m 7633.67,907.801 0,-37.602 -187.07,0 0,-106.679 174.38,0 0,-37.598 -174.38,0 0,-116.102 188.48,0 0,-37.59 -233.13,0 0,335.571 231.72,0" /><path
         id="path142"
         style="fill:#ffffff;fill-opacity:1;fill-rule:nonzero;stroke:none"
         d="m 7856.45,755.531 c 9.39,1.559 17.61,4.61 24.66,9.16 7.05,4.528 12.7,10.637 16.94,18.329 4.22,7.66 6.33,17.621 6.33,29.839 0,16.93 -4.69,30.7 -14.09,41.36 -9.41,10.64 -24.61,15.98 -45.6,15.98 l -110.92,0 0,-117.027 93.07,0 c 10.33,0 20.21,0.777 29.61,2.359 z m -9.4,152.27 c 31.95,0 56.93,-7.84 74.96,-23.5 18.01,-15.672 27.03,-37.129 27.03,-64.391 0,-20.371 -4.63,-38.23 -13.86,-53.578 -9.26,-15.352 -24.07,-25.84 -44.42,-31.492 l 0,-0.93 c 9.71,-1.89 17.62,-5.019 23.73,-9.41 6.12,-4.379 10.96,-9.641 14.57,-15.75 3.6,-6.102 6.27,-12.918 7.99,-20.441 1.72,-7.52 3.05,-15.36 3.99,-23.508 0.62,-8.141 1.09,-16.442 1.42,-24.903 0.29,-8.449 1.09,-16.769 2.34,-24.91 1.25,-8.148 3.05,-15.91 5.41,-23.258 2.35,-7.371 5.86,-13.871 10.57,-19.5 l -49.82,0 c -3.13,3.43 -5.26,8.141 -6.35,14.102 -1.09,5.938 -1.8,12.598 -2.11,19.969 -0.31,7.347 -0.62,15.269 -0.94,23.73 -0.31,8.469 -1.25,16.77 -2.81,24.91 -1.27,8.149 -2.83,15.899 -4.71,23.258 -1.87,7.371 -4.86,13.789 -8.92,19.281 -4.08,5.469 -9.4,9.86 -15.98,13.149 -6.58,3.301 -15.37,4.941 -26.33,4.941 l -109.04,0 0,-143.34 -44.65,0 0,335.571 157.93,0" /><path
         id="path144"
         style="fill:none;stroke:#ffffff;stroke-width:40;stroke-linecap:butt;stroke-linejoin:miter;stroke-miterlimit:10;stroke-dasharray:none;stroke-opacity:1"
         d="m 10470,4240 c 0,99.41 -80.6,180 -180,180 L 200,4420 C 100.59,4420 20,4339.41 20,4240 L 20,200 C 20,100.59 100.59,20 200,20 l 10090,0 c 99.4,0 180,80.59 180,180 l 0,4040 z" /></g></g></svg>