<?xml version="1.0" encoding="UTF-8" standalone="no"?>
<svg
   xmlns:dc="http://purl.org/dc/elements/1.1/"
   xmlns:cc="http://creativecommons.org/ns#"
   xmlns:rdf="http://www.w3.org/1999/02/22-rdf-syntax-ns#"
   xmlns:svg="http://www.w3.org/2000/svg"
   xmlns="http://www.w3.org/2000/svg"
   viewBox="0 0 1311.25 555"
   height="555"
   width="1311.25"
   xml:space="preserve"
   version="1.1"
   id="svg2"><metadata
     id="metadata8"><rdf:RDF><cc:Work
         rdf:about=""><dc:format>image/svg+xml</dc:format><dc:type
           rdf:resource="http://purl.org/dc/dcmitype/StillImage" /></cc:Work></rdf:RDF></metadata><defs
     id="defs6" /><g
     transform="matrix(1.25,0,0,-1.25,0,555)"
     id="g10"><g
       transform="scale(0.1,0.1)"
       id="g12"><path
         id="path14"
         style="fill:#f9a721;fill-opacity:1;fill-rule:nonzero;stroke:none"
         d="m 2114.38,3275.85 -320.63,107.21 0,464.94 321.05,-95.42 -0.42,-476.73" /><path
         id="path16"
         style="fill:#f9a721;fill-opacity:1;fill-rule:nonzero;stroke:none"
         d="m 2198.04,3752.58 321.18,95.42 -1.17,-464.58 -320.01,-107.57 0,476.73" /><path
         id="path18"
         style="fill:#f9a721;fill-opacity:1;fill-rule:nonzero;stroke:none"
         d="m 2453.71,3898.28 -299.29,92.72 -295.25,-92.72 295.75,-79.43 298.79,79.43" /><path
         id="path20"
         style="fill:#f9a721;fill-opacity:1;fill-rule:nonzero;stroke:none"
         d="m 2923.12,3275.85 -320.74,107.21 0,464.94 321.11,-95.42 -0.37,-476.73" /><path
         id="path22"
         style="fill:#f9a721;fill-opacity:1;fill-rule:nonzero;stroke:none"
         d="m 3006.78,3752.58 321.05,95.42 -1.05,-464.58 -320,-107.57 0,476.73" /><path
         id="path24"
         style="fill:#f9a721;fill-opacity:1;fill-rule:nonzero;stroke:none"
         d="m 3262.51,3898.28 -299.31,92.72 -295.41,-92.72 295.89,-79.43 298.83,79.43" /><path
         id="path26"
         style="fill:#f9a721;fill-opacity:1;fill-rule:nonzero;stroke:none"
         d="m 901.703,3073.21 -321.09,95.34 0,-464.87 320.719,-107.28 0.371,476.81" /><path
         id="path28"
         style="fill:#f9a721;fill-opacity:1;fill-rule:nonzero;stroke:none"
         d="m 985.004,3073.21 321.126,95.34 -1.08,-464.56 -320.046,-107.59 0,476.81" /><path
         id="path30"
         style="fill:#f9a721;fill-opacity:1;fill-rule:nonzero;stroke:none"
         d="m 1240.78,3218.84 -299.358,92.76 -295.317,-92.76 295.711,-79.44 298.964,79.44" /><path
         id="path32"
         style="fill:#f9a721;fill-opacity:1;fill-rule:nonzero;stroke:none"
         d="m 1710.04,2596.4 -320.65,107.28 0,464.87 321.12,-95.34 -0.47,-476.81" /><path
         id="path34"
         style="fill:#f9a721;fill-opacity:1;fill-rule:nonzero;stroke:none"
         d="m 1793.75,3073.21 321.05,95.34 -1.06,-464.56 -319.99,-107.59 0,476.81" /><path
         id="path36"
         style="fill:#f9a721;fill-opacity:1;fill-rule:nonzero;stroke:none"
         d="m 2049.39,3218.84 -299.25,92.76 -295.37,-92.76 295.85,-79.44 298.77,79.44" /><path
         id="path38"
         style="fill:#f9a721;fill-opacity:1;fill-rule:nonzero;stroke:none"
         d="m 1305.7,1916.95 -320.696,107.26 0,464.86 321.126,-95.34 -0.43,-476.78" /><path
         id="path40"
         style="fill:#f9a721;fill-opacity:1;fill-rule:nonzero;stroke:none"
         d="m 1389.39,2393.73 321.12,95.34 -1.12,-464.53 -320,-107.59 0,476.78" /><path
         id="path42"
         style="fill:#f9a721;fill-opacity:1;fill-rule:nonzero;stroke:none"
         d="m 1645.05,2539.44 -299.23,92.7 -295.4,-92.7 295.83,-79.4 298.8,79.4" /><path
         id="path44"
         style="fill:#ffffff;fill-opacity:1;fill-rule:nonzero;stroke:none"
         d="m 2726.05,2327.92 -23.58,-0.08 c -8.72,0 -19.8,-5.87 -22.45,-15.37 l -71.56,-252.79 -70.85,252.25 c -2.11,7.9 -9.6,15.91 -19.68,15.91 l -27.95,0 c -10.06,0 -17.4,-8.15 -19.37,-16.06 l -65.86,-249.63 -68.11,250.32 c -2.69,9.15 -13.92,15.37 -22.87,15.37 l -33.99,0.05 c -7.23,0 -13.89,-3.17 -17.52,-8.12 -2.48,-3.44 -3.12,-7.3 -1.99,-10.67 l 105.1,-373.02 c 2.29,-7.84 9.09,-15.76 19,-15.76 l 33.75,0 c 9.16,0 17.2,6.69 19.46,16.11 l 64.72,248.49 70.41,-248.78 c 2.13,-7.62 8.93,-15.82 18.86,-15.82 l 33.19,0 c 9.22,0 17.06,6.4 19.3,15.9 l 101.23,372.75 c 1.14,3.57 0.45,7.52 -1.96,10.86 -3.56,4.96 -10.2,8.09 -17.28,8.09" /><path
         id="path46"
         style="fill:#ffffff;fill-opacity:1;fill-rule:nonzero;stroke:none"
         d="m 3017.92,2169.52 -178.34,0 c 4.07,50.23 36.59,102.15 91.69,104.16 58.55,-1.91 85.37,-52.71 86.65,-104.16 z m -86.79,161.05 c -120.56,0 -175.42,-106.78 -175.42,-205.92 0,-123.84 68.25,-203.78 173.75,-203.78 75.63,0 133.23,38.26 158.13,105.1 1.3,3.82 0.81,8.01 -1.2,11.73 -2.48,4.43 -7.36,7.88 -13.03,9.15 l -33.5,6.39 c -8.88,1.44 -19.2,-3.92 -22.57,-11.63 -16.21,-37.19 -45.9,-58.23 -83.07,-59.37 -35.72,1.18 -68.55,22.44 -83.58,54.28 -12.31,25.94 -14.07,51.58 -14.3,77.62 l 242.17,0.06 c 5.13,0 10.27,2.26 14.04,5.99 3.16,3.13 4.77,7.05 4.74,10.93 -0.59,96.43 -44.61,199.45 -166.16,199.45" /><path
         id="path48"
         style="fill:#ffffff;fill-opacity:1;fill-rule:nonzero;stroke:none"
         d="m 3395.17,2124.03 c 0,-22.83 -4,-136.9 -84.96,-139.79 -27.1,1.06 -54.47,16.99 -69.77,40.59 -11.16,17.89 -17.81,42.52 -19.42,73.06 l 0,67.01 c 1.25,51.47 37.32,107.87 88.98,110.08 81.17,-3.24 85.17,-126.32 85.17,-150.95 z m -72.27,209.97 -6.38,0 c -39.97,0 -71.4,-16.64 -95.5,-50.77 l -0.08,157.23 c 0,8.91 -9.09,16.93 -19.29,16.93 l -34.67,0 c -9.09,0 -19.25,-7.19 -19.36,-16.93 l 0,-490.89 c 0.11,-8.85 9.22,-17 19.24,-17 l 10.11,0.08 c 9.81,0 16.61,7.77 18.9,15.06 l 10.92,34.68 c 25.28,-36.12 63.43,-57.25 104.29,-57.25 l 6.26,0 c 107.41,0 155.47,104.74 155.47,208.55 0,51.65 -12.71,101.11 -34.9,135.54 -25.59,40.01 -69.65,64.77 -115.01,64.77" /><path
         id="path50"
         style="fill:#ffffff;fill-opacity:1;fill-rule:nonzero;stroke:none"
         d="m 3854.14,2135.12 c -22.7,16.23 -49.9,21.7 -77.18,27.17 l -52.28,9.7 c -37.54,6.21 -59.23,16.3 -59.23,49.46 0,35.08 36.22,48.52 66.97,49.29 37.63,-0.93 65.81,-17.7 79.52,-47.23 3.31,-6.97 10.49,-11.63 18.06,-11.63 1.25,0 2.52,0.11 3.82,0.39 l 32.65,7.26 c 5.27,1.1 10.31,4.83 12.94,9.56 2.2,3.79 2.61,7.91 1.24,11.55 -19.87,58.28 -70.64,89.16 -147.28,89.16 -69.25,-0.19 -143.36,-31.09 -143.36,-117.36 0,-58.9 36.97,-96.31 109.88,-111.24 l 58.62,-11.14 c 32.12,-6.2 65,-17.17 65,-51.75 0,-51.26 -59.49,-56.4 -77.43,-56.76 -40.34,0.9 -85.97,18.86 -97.08,57 -2.22,8.43 -12.77,14.36 -22.02,12.43 l -34.19,-7.06 c -5.03,-1.06 -9.72,-4.43 -12.5,-8.9 -2.29,-3.78 -2.96,-8.07 -1.92,-11.9 17.67,-63.33 78.63,-101.56 163.24,-102.16 l 1.82,0 c 75.56,0 156.25,32.38 156.25,123.35 0,37 -16.68,70.09 -45.54,90.81" /><path
         id="path52"
         style="fill:#ffffff;fill-opacity:1;fill-rule:nonzero;stroke:none"
         d="m 4199.4,2169.13 -178.5,0 c 4.08,50.23 36.65,102.34 91.71,104.12 58.43,-1.78 85.32,-52.62 86.79,-104.12 z m -86.9,161.09 c -120.57,0 -175.46,-106.77 -175.46,-205.91 0,-123.79 68.26,-203.78 173.83,-203.78 75.59,0 133.06,38.26 158.09,105.12 1.38,3.78 0.9,7.99 -1.18,11.7 -2.48,4.51 -7.34,7.91 -13.03,9.15 l -33.38,6.41 c -7.97,1.22 -18.92,-2.8 -22.76,-11.64 -16.2,-37.15 -45.82,-58.19 -82.97,-59.36 -35.83,1.17 -68.61,22.42 -83.65,54.19 -12.2,26.02 -14.01,51.61 -14.2,77.69 l 242.1,0.06 c 5.03,0 10.28,2.28 14.02,5.98 3,3.18 4.76,7.06 4.73,11.01 -0.58,96.39 -44.48,199.38 -166.14,199.38" /><path
         id="path54"
         style="fill:#ffffff;fill-opacity:1;fill-rule:nonzero;stroke:none"
         d="m 4507.29,2325.67 c -4.79,0.53 -9.34,0.84 -13.64,0.84 -40.67,0 -73.69,-22.19 -96.53,-64.47 l 0.11,37.01 c -0.07,8.99 -9.07,16.86 -19.18,16.86 l -30.33,0 c -9.87,0 -18.59,-7.91 -18.62,-16.99 l -0.08,-359.88 c 0,-9.05 8.75,-16.98 18.7,-16.98 l 35.37,0 c 9.1,0 19.5,7.25 19.61,16.98 l 0.02,181.42 c 0,29.93 2.73,52.42 16.94,79.13 20.5,37.97 48.85,56.61 87.1,56.94 9.47,0.08 17.84,8.41 17.84,17.89 l 0,33.65 c 0,8.81 -7.59,16.51 -17.31,17.6" /><path
         id="path56"
         style="fill:#ffffff;fill-opacity:1;fill-rule:nonzero;stroke:none"
         d="m 4877.74,2332.77 -27.82,0 c -8.75,0 -19.97,-6.26 -22.67,-15.48 l -90.32,-284.61 -92.26,284.26 c -2.66,9.5 -13.88,15.83 -22.7,15.83 l -39.8,0 c -7.31,0 -14.37,-3.23 -17.92,-8.32 -2.42,-3.34 -3.02,-7.16 -1.94,-10.74 l 126.23,-375.35 c 2.47,-7.44 8.99,-16.11 19.07,-16.11 l 48.14,0 c 8.87,0 16.11,6.05 19.34,16.11 l 122.46,375.21 c 1.23,3.58 0.64,7.44 -1.78,10.78 -3.68,5.11 -10.71,8.42 -18.03,8.42" /><path
         id="path58"
         style="fill:#ffffff;fill-opacity:1;fill-rule:nonzero;stroke:none"
         d="m 4969.31,2477 c -25.6,0 -46.59,-20.95 -46.59,-46.75 0,-25.8 20.99,-46.78 46.59,-46.78 25.68,0 46.57,20.98 46.57,46.78 0,25.8 -20.89,46.75 -46.57,46.75" /><path
         id="path60"
         style="fill:#ffffff;fill-opacity:1;fill-rule:nonzero;stroke:none"
         d="m 4988.5,2335.04 -38.24,0 c -10.31,0 -19.85,-8.39 -19.85,-17.6 l -0.15,-382.18 c 0,-4.62 2.26,-9.22 6.43,-12.59 3.82,-3.1 8.53,-4.9 13.46,-4.9 l 38.48,-0.06 0.03,0 c 10.47,0.11 19.79,8.26 19.79,17.48 l 0,382.25 c 0,9.34 -9.36,17.6 -19.95,17.6" /><path
         id="path62"
         style="fill:#ffffff;fill-opacity:1;fill-rule:nonzero;stroke:none"
         d="m 5345.63,2075.88 -31.95,-0.08 c -8.88,0 -16.33,-5.35 -19.65,-14.64 -11.67,-50.43 -38.08,-76.54 -78.1,-77.71 -77.99,2.3 -84.03,111.25 -84.03,144.58 0,66.44 22.91,138.14 86.99,140.06 38.71,-1.16 66.89,-29 75.35,-74.36 1.61,-9.22 8.65,-16.16 18.4,-17.41 l 34.16,-0.42 c 10.1,1.19 18.09,8.89 18.06,18.51 -12.02,81.94 -68.68,134.86 -144.44,134.86 l -2.57,-0.08 -2.91,0.08 c -110.05,0 -159.33,-102.94 -159.33,-204.96 0,-93.57 41.56,-202.78 158.77,-202.78 l 5.47,0 c 73.82,0 129.57,51.84 145.49,135.88 0.36,4.05 -1.01,8.02 -3.8,11.24 -3.77,4.24 -9.47,6.96 -15.91,7.23" /><path
         id="path64"
         style="fill:#ffffff;fill-opacity:1;fill-rule:nonzero;stroke:none"
         d="m 5660.72,2169.13 -178.4,0 c 4.02,50.26 36.47,102.34 91.63,104.12 58.6,-1.78 85.45,-52.62 86.77,-104.12 z m -86.89,161.09 c -120.48,0 -175.41,-106.77 -175.41,-205.91 0,-123.79 68.26,-203.78 173.86,-203.78 75.52,0 133.1,38.23 158.07,105.12 1.26,3.78 0.82,7.99 -1.25,11.7 -2.57,4.54 -7.26,7.85 -12.92,9.15 l -33.55,6.41 c -7.87,1.22 -18.7,-2.8 -22.59,-11.64 -16.28,-37.15 -45.95,-58.19 -83.04,-59.36 -35.77,1.17 -68.65,22.42 -83.61,54.19 -12.32,26.02 -14.11,51.61 -14.29,77.69 l 242.1,0.06 c 5.15,0 10.41,2.28 14.12,6.06 3.15,3.12 4.89,7.01 4.76,10.93 -0.62,96.39 -44.54,199.38 -166.25,199.38" /><path
         id="path66"
         style="fill:#ffffff;fill-opacity:1;fill-rule:nonzero;stroke:none"
         d="m 6043.51,2135.12 c -22.9,16.23 -50.07,21.74 -77.33,27.17 l -52.27,9.7 c -37.43,6.21 -59.12,16.3 -59.12,49.46 0,45.24 55.91,49.02 66.98,49.29 37.57,-0.93 65.75,-17.7 79.51,-47.26 3.26,-6.99 10.41,-11.6 17.98,-11.6 1.29,0 2.6,0.11 3.83,0.39 l 32.63,7.26 c 5.37,1.1 10.32,4.83 12.94,9.59 2.2,3.76 2.64,7.88 1.36,11.52 -20.05,58.28 -70.57,89.16 -147.41,89.16 -69.25,-0.19 -143.34,-31.09 -143.34,-117.36 0,-58.92 36.97,-96.31 110.01,-111.24 l 58.48,-11.14 c 32.13,-6.2 65,-17.17 65,-51.75 0,-51.26 -59.46,-56.4 -77.38,-56.76 -37.33,0.84 -85.24,16.24 -97.04,56.97 -2.18,8.46 -12.65,14.39 -22.1,12.46 l -33.97,-7.06 c -5.31,-1.06 -9.95,-4.43 -12.73,-8.98 -2.26,-3.86 -3.02,-8.02 -1.82,-11.82 17.59,-63.33 78.55,-101.56 163.08,-102.16 l 1.94,0 c 75.47,0 156.19,32.38 156.19,123.35 0,37 -16.52,70.09 -45.42,90.81" /><path
         id="path68"
         style="fill:#ffffff;fill-opacity:1;fill-rule:evenodd;stroke:none"
         d="m 4489.98,3070.77 0,86.75 c 0.08,13.16 9.96,22.05 22,22.05 l 387.93,0 c 12.38,0 22.29,-9.08 22.29,-21.93 l 0,-74.39 c -0.13,-12.48 -10.6,-28.78 -29.21,-54.62 l -200.88,-287.55 c 74.55,1.75 153.56,-9.41 221.25,-47.56 15.19,-8.61 19.26,-21.36 20.55,-33.86 l 0,-92.53 c 0,-12.83 -13.94,-27.53 -28.61,-19.85 -119.44,62.71 -277.71,69.55 -409.86,-0.76 -13.41,-7.22 -27.61,7.3 -27.61,20.08 l 0,87.98 c 0,14.07 0.28,38.18 14.54,59.67 l 232.75,334.64 -202.64,0.09 c -12.54,0 -22.39,8.84 -22.5,21.79" /><path
         id="path70"
         style="fill:#ffffff;fill-opacity:1;fill-rule:evenodd;stroke:none"
         d="m 3075.13,2529.05 -118.08,0 c -11.2,0.66 -20.12,9.15 -21.02,20.03 l 0.11,606.98 c 0,12.14 10.13,21.83 22.64,21.83 l 109.96,0.09 c 11.47,-0.67 20.64,-9.3 21.49,-20.41 l 0,-79.32 2.13,0 c 28.68,76.71 82.64,112.43 155.39,112.43 73.83,0 120.04,-35.72 153.01,-112.43 28.74,76.71 93.73,112.43 163.16,112.43 49.5,0 103.41,-20.42 136.47,-66.35 37.46,-51.12 29.79,-125.19 29.79,-190.37 l -0.04,-383.03 c 0,-12.18 -10.19,-21.88 -22.8,-21.88 l -117.85,0 c -11.85,0.66 -21.22,10.19 -21.22,21.73 l 0,321.87 c 0,25.53 2.19,89.43 -3.34,113.7 -8.79,40.9 -35.22,52.3 -69.35,52.3 -28.6,0 -58.39,-19.14 -70.55,-49.69 -12.09,-30.74 -10.96,-81.82 -10.96,-116.31 l 0,-321.72 c 0,-12.18 -10.23,-21.88 -22.75,-21.88 l -117.93,0 c -11.79,0.66 -21.16,10.19 -21.16,21.73 l -0.11,321.87 c 0,67.74 11.07,167.29 -72.7,167.29 -84.84,0 -81.45,-97.04 -81.45,-167.29 l -0.03,-321.72 c 0,-12.18 -10.24,-21.88 -22.81,-21.88" /><path
         id="path72"
         style="fill:#ffffff;fill-opacity:1;fill-rule:evenodd;stroke:none"
         d="m 5257.21,3066.78 c -86.96,0 -92.52,-118.74 -92.52,-192.9 0,-74.07 -1.11,-232.42 91.47,-232.42 91.5,0 95.93,127.72 95.93,205.64 0,51.08 -2.25,112.34 -17.65,160.93 -13.25,42.19 -39.72,58.75 -77.23,58.75 z m -1.05,123.9 c 175.17,0 269.99,-150.74 269.99,-342.26 0,-185.3 -104.78,-332.17 -269.99,-332.17 -171.85,0 -265.5,150.79 -265.5,338.54 0,189.02 94.71,335.89 265.5,335.89" /><path
         id="path74"
         style="fill:#ffffff;fill-opacity:1;fill-rule:evenodd;stroke:none"
         d="m 5753.15,2529.05 -117.47,0 c -11.95,0.66 -21.29,10.19 -21.29,21.73 l -0.14,607.35 c 0.98,11.08 10.82,19.76 22.66,19.76 l 109.54,0.09 c 10.3,-0.58 18.71,-7.59 20.94,-17 l 0,-92.94 2.18,0 c 33,83.06 79.39,122.64 160.84,122.64 52.89,0 104.63,-19.12 137.69,-71.48 30.84,-48.55 30.84,-130.24 30.84,-189.04 l 0,-381.98 c -1.28,-10.8 -10.97,-19.13 -22.52,-19.13 l -118.31,0 c -11.04,0.66 -19.86,8.73 -21.12,19.13 l 0,329.56 c 0,66.44 7.73,163.54 -73.79,163.54 -28.68,0 -54.98,-19.2 -68.32,-48.57 -16.54,-36.98 -18.72,-74.09 -18.72,-114.97 l 0,-326.81 c -0.18,-12.18 -10.38,-21.88 -23.01,-21.88" /><path
         id="path76"
         style="fill:#ffffff;fill-opacity:1;fill-rule:evenodd;stroke:none"
         d="m 4299.81,2530.56 c -7.89,-7.02 -19.07,-7.49 -27.92,-2.75 -39.17,32.6 -46.26,47.74 -67.59,78.8 -64.85,-66.13 -110.66,-85.95 -194.59,-85.95 -99.37,0 -176.6,61.44 -176.6,184.35 0,95.97 51.88,161.33 125.75,193.29 64.01,28.16 153.51,33.29 221.97,41.03 l 0,15.31 c 0,28.16 2.18,61.5 -14.35,85.78 -14.31,21.75 -41.92,30.73 -66.25,30.73 -45,0 -85.11,-23.2 -94.86,-71.04 -1.91,-10.67 -9.87,-21.22 -20.46,-21.77 l -114.43,12.46 c -9.64,2.13 -20.38,9.89 -17.6,24.65 26.35,139.13 151.66,181.12 263.93,181.12 57.28,0 132.45,-15.33 177.77,-58.85 57.32,-53.77 51.76,-125.44 51.76,-203.57 l 0,-184.25 c 0,-55.45 23.12,-79.77 44.68,-109.69 7.46,-10.71 9.13,-23.44 -0.47,-31.39 -24.08,-20.2 -66.95,-57.55 -90.44,-78.53 l -0.3,0.27 z m -118.98,288.39 c 0,-46.1 1.1,-84.52 -22.13,-125.46 -18.7,-33.35 -48.54,-53.81 -81.75,-53.81 -45.2,0 -71.7,34.56 -71.7,85.8 0,100.76 90.22,119.04 175.58,119.04 l 0,-25.57" /><path
         id="path78"
         style="fill:#ffffff;fill-opacity:1;fill-rule:evenodd;stroke:none"
         d="m 2752.73,2530.56 c -7.73,-7.02 -19.05,-7.49 -27.82,-2.75 -39.19,32.6 -46.23,47.74 -67.7,78.8 -64.71,-66.13 -110.64,-85.95 -194.49,-85.95 -99.39,0 -176.7,61.44 -176.7,184.35 0,95.97 51.98,161.33 125.91,193.29 64.09,28.16 153.45,33.29 221.87,41.03 l 0,15.31 c 0,28.16 2.22,61.5 -14.39,85.78 -14.22,21.75 -41.93,30.73 -66.17,30.73 -44.95,0 -85.05,-23.2 -94.9,-71.04 -1.96,-10.67 -9.75,-21.22 -20.36,-21.77 l -114.4,12.46 c -9.71,2.13 -20.45,9.89 -17.73,24.65 26.29,139.13 151.58,181.12 263.92,181.12 57.4,0 132.55,-15.33 177.76,-58.85 57.36,-53.77 51.87,-125.44 51.87,-203.57 l 0,-184.25 c 0,-55.45 22.99,-79.77 44.49,-109.69 7.56,-10.71 9.28,-23.44 -0.34,-31.39 -24.11,-20.2 -66.97,-57.55 -90.5,-78.53 l -0.32,0.27 z m -118.93,288.39 c 0,-46.1 1.14,-84.52 -22.08,-125.46 -18.68,-33.35 -48.63,-53.81 -81.66,-53.81 -45.28,0 -71.81,34.56 -71.81,85.8 0,100.76 90.12,119.04 175.55,119.04 l 0,-25.57" /><path
         id="path80"
         style="fill:#ffffff;fill-opacity:1;fill-rule:nonzero;stroke:none"
         d="m 7049.77,2429.77 46.8,0 383.72,-520.35 1.67,0 0,520.35 37.48,0 0,-567.23 -44.26,0 -386.29,524.31 -1.68,0 0,-524.31 -37.44,0 0,567.23" /><path
         id="path82"
         style="fill:#ffffff;fill-opacity:1;fill-rule:nonzero;stroke:none"
         d="m 7941.56,2088.95 c -1.67,85.79 -59.52,165.25 -159.94,165.25 -97,0 -154.01,-84.2 -160.81,-165.25 l 320.75,0 z m -320.75,-26.23 c -1.7,-96.1 52.76,-183.46 160.81,-183.46 82.53,0 141.25,46.05 156.53,121.52 l 32.35,0 c -17.03,-95.31 -85.05,-147.73 -188.88,-147.73 -127.64,0 -194.84,93.7 -193.14,206.52 -1.7,112.01 61.26,220.85 193.14,220.85 136.97,0 198.23,-100.89 192.29,-217.7 l -353.1,0" /><path
         id="path84"
         style="fill:#ffffff;fill-opacity:1;fill-rule:nonzero;stroke:none"
         d="m 8206.32,2244.64 -95.3,0 0,-285.17 c 0,-65.93 33.17,-72.31 94.43,-70.73 l 0,-26.2 c -66.35,-3.97 -130.18,4.77 -126.77,96.93 l 0,285.17 -80.82,0 0,26.2 80.82,0 0,127.15 32.34,0 0,-127.15 95.3,0 0,-26.2" /><path
         id="path86"
         style="fill:#ffffff;fill-opacity:1;fill-rule:nonzero;stroke:none"
         d="m 8378.22,1897.48 1.74,0 119.08,373.36 43.4,0 119.94,-373.36 1.74,0 122.52,373.36 35.72,0 -140.38,-408.3 -39.99,0 -119.98,370.2 -1.68,0 -120.84,-370.2 -40.84,0 -138.66,408.3 34.87,0 123.36,-373.36" /><path
         id="path88"
         style="fill:#ffffff;fill-opacity:1;fill-rule:nonzero;stroke:none"
         d="m 9034.4,1879.26 c 109.78,0 168.47,89.74 168.47,187.46 0,97.7 -58.69,187.48 -168.47,187.48 -109.74,0 -168.45,-89.78 -168.45,-187.48 0,-97.72 58.71,-187.46 168.45,-187.46 z m 0,401.16 c 128.52,0 200.81,-97.7 200.81,-213.7 0,-115.98 -72.29,-213.67 -200.81,-213.67 -128.46,0 -200.79,97.69 -200.79,213.67 0,116 72.33,213.7 200.79,213.7" /><path
         id="path90"
         style="fill:#ffffff;fill-opacity:1;fill-rule:nonzero;stroke:none"
         d="m 9339.12,2180.31 2.55,0 c 17.02,53.25 88.51,96.12 167.63,92.94 l 0,-30.19 c -34.02,3.99 -81.69,-3.97 -120.82,-39.7 -32.33,-31.01 -45.94,-56.41 -49.36,-117.58 l 0,-223.24 -32.32,0 0,408.3 32.32,0 0,-90.53" /><path
         id="path92"
         style="fill:#ffffff;fill-opacity:1;fill-rule:nonzero;stroke:none"
         d="m 9545.97,2429.77 32.31,0 0,-375.78 269.72,216.85 46.8,0 -191.46,-152.52 205.05,-255.78 -44.24,0 -186.32,232.76 -99.55,-78.66 0,-154.1 -32.31,0 0,567.23" /><path
         id="path94"
         style="fill:#ffffff;fill-opacity:1;fill-rule:nonzero;stroke:none"
         d="m 7091.06,2890.69 210.17,0 c 108.02,0 144.89,66.46 144.89,124.33 0,41.44 -20.12,125.92 -139.86,125.92 l -215.2,0 0,-250.25 z m -36.84,279.96 254.55,0 c 67.84,0 174.21,-22.69 174.21,-156.41 0,-97.75 -68.7,-153.28 -187.58,-153.28 l -204.34,0 0,-248.67 -36.84,0 0,558.36" /><path
         id="path96"
         style="fill:#ffffff;fill-opacity:1;fill-rule:nonzero;stroke:none"
         d="m 7830.57,2840.63 c -25.1,-26.6 -93.78,-23.45 -155.74,-31.29 -75.34,-7.82 -118.09,-32.84 -118.09,-93.06 0,-48.48 37.72,-87.58 113.05,-87.58 144.89,0 160.78,115.73 160.78,136.85 l 0,75.08 z m 31.85,-154.05 c 0,-23.48 0,-48.48 28.44,-48.48 5.9,0 13.44,0.74 23.46,2.32 l 0,-25.03 c -9.21,-1.56 -17.56,-3.1 -25.97,-3.1 -50.22,0 -57.78,25.81 -57.78,58.63 l 0,21.12 -1.65,0 c -20.11,-47.69 -77.87,-89.16 -159.95,-89.16 -81.21,0 -144.02,28.95 -144.02,113.4 0,93.86 87.07,113.4 158.27,118.88 142.31,9.38 148.21,17.97 148.21,83.67 0,18 -21.77,78.99 -119.74,78.99 -77.05,0 -128.15,-37.53 -132.33,-107.13 l -31.83,0 c 4.19,88.36 62.82,132.94 164.16,132.94 75.38,0 150.73,-21.91 150.73,-104.8 l 0,-232.25" /><path
         id="path98"
         style="fill:#ffffff;fill-opacity:1;fill-rule:nonzero;stroke:none"
         d="m 7997.29,2925.09 2.51,0 c 16.75,52.4 87.1,94.62 164.99,91.5 l 0,-29.72 c -33.52,3.92 -80.4,-3.92 -118.92,-39.11 -31.83,-30.49 -45.2,-55.51 -48.58,-115.73 l 0,-219.74 -31.79,0 0,401.95 31.79,0 0,-89.15" /><path
         id="path100"
         style="fill:#ffffff;fill-opacity:1;fill-rule:nonzero;stroke:none"
         d="m 8379.18,2988.43 -93.74,0 0,-280.74 c 0,-64.92 32.64,-71.19 92.94,-69.59 l 0,-25.81 c -65.33,-3.91 -128.15,4.69 -124.77,95.4 l 0,280.74 -79.57,0 0,25.81 79.57,0 0,125.13 31.83,0 0,-125.13 93.74,0 0,-25.81" /><path
         id="path102"
         style="fill:#ffffff;fill-opacity:1;fill-rule:nonzero;stroke:none"
         d="m 8439.54,3014.24 31.81,0 0,-86.03 1.7,0 c 21.76,60.22 87.07,95.42 154.04,95.42 151.57,0 153.27,-113.4 153.27,-162.67 l 0,-248.67 -31.82,0 0,254.14 c 0,41.46 -5.02,131.39 -122.25,131.39 -96.32,0 -154.94,-69.61 -154.94,-168.14 l 0,-217.39 -31.81,0 0,401.95" /><path
         id="path104"
         style="fill:#ffffff;fill-opacity:1;fill-rule:nonzero;stroke:none"
         d="m 9204.2,2835.16 c -1.72,84.45 -58.64,162.66 -157.46,162.66 -95.46,0 -151.57,-82.9 -158.27,-162.66 l 315.73,0 z m -315.73,-25.82 c -1.64,-94.62 51.95,-180.64 158.27,-180.64 81.23,0 138.99,45.35 154.1,119.65 l 31.83,0 c -16.75,-93.85 -83.75,-145.47 -185.93,-145.47 -125.58,0 -191.75,92.3 -190.1,203.34 -1.65,110.27 60.3,217.41 190.1,217.41 134.84,0 195.12,-99.32 189.25,-214.29 l -347.52,0" /><path
         id="path106"
         style="fill:#ffffff;fill-opacity:1;fill-rule:nonzero;stroke:none"
         d="m 9344.12,2925.09 2.51,0 c 16.75,52.4 87.11,94.62 164.97,91.5 l 0,-29.72 c -33.5,3.92 -80.38,-3.92 -118.89,-39.11 -31.84,-30.49 -45.21,-55.51 -48.59,-115.73 l 0,-219.74 -31.83,0 0,401.95 31.83,0 0,-89.15" /><path
         id="path108"
         style="fill:#ffffff;fill-opacity:1;fill-rule:nonzero;stroke:none"
         d="m 6586.48,1413.56 35.2109,0 0,2184.91 -35.2109,0 0,-2184.91 z" /><path
         id="path110"
         style="fill:#ffffff;fill-opacity:1;fill-rule:nonzero;stroke:none"
         d="m 1170.12,710.879 -55.93,156.5 -0.94,0 -56.87,-156.5 113.74,0 z m -31.02,196.922 131.13,-335.571 -49.35,0 -36.66,101.04 -141.94,0 -37.6,-101.04 -45.594,0 130.664,335.571 49.35,0" /><path
         id="path112"
         style="fill:#ffffff;fill-opacity:1;fill-rule:nonzero;stroke:none"
         d="m 1536.71,596.891 c -22.87,-21.461 -55.46,-32.18 -97.75,-32.18 -43.25,0 -77.01,10.25 -101.29,30.781 -24.29,20.52 -36.42,53.18 -36.42,97.988 l 0,214.321 44.64,0 0,-214.321 c 0,-30.082 8,-52.871 23.97,-68.378 15.98,-15.512 39.02,-23.262 69.1,-23.262 28.5,0 50.21,7.75 65.09,23.262 14.88,15.507 22.33,38.296 22.33,68.378 l 0,214.321 44.65,0 0,-214.321 c 0,-42.929 -11.45,-75.121 -34.32,-96.589" /><path
         id="path114"
         style="fill:#ffffff;fill-opacity:1;fill-rule:nonzero;stroke:none"
         d="m 1606.74,870.199 0,37.602 268.37,0 0,-37.602 -111.86,0 0,-297.969 -44.65,0 0,297.969 -111.86,0" /><path
         id="path116"
         style="fill:#ffffff;fill-opacity:1;fill-rule:nonzero;stroke:none"
         d="m 1956.88,907.801 0,-144.281 176.73,0 0,144.281 44.65,0 0,-335.571 -44.65,0 0,153.692 -176.73,0 0,-153.692 -44.64,0 0,335.571 44.64,0" /><path
         id="path118"
         style="fill:#ffffff;fill-opacity:1;fill-rule:nonzero;stroke:none"
         d="m 2284,689.961 c 4.38,-16.449 11.28,-31.262 20.68,-44.41 9.4,-13.172 21.46,-23.742 36.19,-31.731 14.72,-8 32.26,-11.98 52.64,-11.98 20.36,0 37.91,3.98 52.64,11.98 14.72,7.989 26.79,18.559 36.19,31.731 9.4,13.148 16.29,27.961 20.68,44.41 4.38,16.449 6.58,33.129 6.58,50.051 0,16.918 -2.2,33.597 -6.58,50.058 -4.39,16.45 -11.28,31.262 -20.68,44.41 -9.4,13.161 -21.47,23.739 -36.19,31.731 -14.73,7.988 -32.28,11.98 -52.64,11.98 -20.38,0 -37.92,-3.992 -52.64,-11.98 -14.73,-7.992 -26.79,-18.57 -36.19,-31.731 -9.4,-13.148 -16.3,-27.96 -20.68,-44.41 -4.4,-16.461 -6.58,-33.14 -6.58,-50.058 0,-16.922 2.18,-33.602 6.58,-50.051 z m -41.13,116.078 c 6.73,21.16 16.84,39.883 30.32,56.172 13.47,16.289 30.23,29.289 50.29,39.008 20.05,9.711 43.39,14.57 70.03,14.57 26.63,0 49.97,-4.859 70.03,-14.57 20.04,-9.719 36.81,-22.719 50.29,-39.008 13.46,-16.289 23.57,-35.012 30.31,-56.172 6.73,-21.141 10.11,-43.16 10.11,-66.027 0,-22.883 -3.38,-44.883 -10.11,-66.043 -6.74,-21.141 -16.85,-39.867 -30.31,-56.16 -13.48,-16.297 -30.25,-29.219 -50.29,-38.77 -20.06,-9.559 -43.4,-14.328 -70.03,-14.328 -26.64,0 -49.98,4.769 -70.03,14.328 -20.06,9.551 -36.82,22.473 -50.29,38.77 -13.48,16.293 -23.59,35.019 -30.32,56.16 -6.74,21.16 -10.1,43.16 -10.1,66.043 0,22.867 3.36,44.886 10.1,66.027" /><path
         id="path120"
         style="fill:#ffffff;fill-opacity:1;fill-rule:nonzero;stroke:none"
         d="m 2776.08,755.531 c 9.4,1.559 17.63,4.61 24.68,9.16 7.05,4.528 12.69,10.637 16.92,18.329 4.23,7.66 6.34,17.621 6.34,29.839 0,16.93 -4.69,30.7 -14.09,41.36 -9.41,10.64 -24.61,15.98 -45.59,15.98 l -110.93,0 0,-117.027 93.06,0 c 10.35,0 20.21,0.777 29.61,2.359 z m -9.4,152.27 c 31.96,0 56.95,-7.84 74.97,-23.5 18.01,-15.672 27.03,-37.129 27.03,-64.391 0,-20.371 -4.63,-38.23 -13.87,-53.578 -9.25,-15.352 -24.05,-25.84 -44.41,-31.492 l 0,-0.93 c 9.7,-1.89 17.62,-5.019 23.73,-9.41 6.11,-4.379 10.96,-9.641 14.57,-15.75 3.6,-6.102 6.27,-12.918 7.99,-20.441 1.72,-7.52 3.06,-15.36 3.99,-23.508 0.63,-8.141 1.1,-16.442 1.41,-24.903 0.31,-8.449 1.1,-16.769 2.35,-24.91 1.25,-8.148 3.06,-15.91 5.41,-23.258 2.35,-7.371 5.87,-13.871 10.57,-19.5 l -49.81,0 c -3.14,3.43 -5.26,8.141 -6.35,14.102 -1.1,5.938 -1.81,12.598 -2.12,19.969 -0.31,7.347 -0.63,15.269 -0.93,23.73 -0.32,8.469 -1.26,16.77 -2.83,24.91 -1.25,8.149 -2.81,15.899 -4.69,23.258 -1.88,7.371 -4.87,13.789 -8.93,19.281 -4.08,5.469 -9.4,9.86 -15.99,13.149 -6.58,3.301 -15.35,4.941 -26.31,4.941 l -109.05,0 0,-143.34 -44.65,0 0,335.571 157.92,0" /><path
         id="path122"
         style="fill:#ffffff;fill-opacity:1;fill-rule:nonzero;stroke:none"
         d="m 2932.59,572.23 44.6484,0 0,335.57 -44.6484,0 0,-335.57 z" /><path
         id="path124"
         style="fill:#ffffff;fill-opacity:1;fill-rule:nonzero;stroke:none"
         d="m 3234.79,870.199 -192.7,0 0,37.602 245.35,0 0,-37.602 -208.21,-260.379 213.85,0 0,-37.59 -266.96,0 0,37.59 208.67,260.379" /><path
         id="path126"
         style="fill:#ffffff;fill-opacity:1;fill-rule:nonzero;stroke:none"
         d="m 3571.31,907.801 0,-37.602 -187.06,0 0,-106.679 174.37,0 0,-37.598 -174.37,0 0,-116.102 188.47,0 0,-37.59 -233.12,0 0,335.571 231.71,0" /><path
         id="path128"
         style="fill:#ffffff;fill-opacity:1;fill-rule:nonzero;stroke:none"
         d="m 3745.68,609.82 c 5.01,0 11.28,0.391 18.8,1.18 7.52,0.781 15.51,2.648 23.97,5.641 8.46,2.968 16.84,7.289 25.15,12.918 8.29,5.64 15.74,13.312 22.32,23.043 6.58,9.699 11.99,21.847 16.22,36.418 4.23,14.57 6.34,32.191 6.34,52.871 0,20.039 -1.96,37.988 -5.87,53.808 -3.92,15.821 -10.34,29.301 -19.28,40.43 -8.92,11.121 -20.44,19.57 -34.54,25.371 -14.1,5.801 -31.49,8.699 -52.17,8.699 l -75.2,0 0,-260.379 74.26,0 z m -3.76,297.981 c 51.7,0 91.49,-13.153 119.38,-39.481 27.88,-26.32 41.83,-66.429 41.83,-120.308 0,-28.211 -3.13,-53.211 -9.4,-74.973 -6.27,-21.789 -15.98,-40.109 -29.14,-54.988 -13.16,-14.891 -29.92,-26.25 -50.29,-34.09 -20.37,-7.832 -44.5,-11.731 -72.38,-11.731 l -115.15,0 0,335.571 115.15,0" /><path
         id="path130"
         style="fill:#ffffff;fill-opacity:1;fill-rule:nonzero;stroke:none"
         d="m 4290.41,576.211 c -19.43,-7.672 -39.01,-11.5 -58.75,-11.5 -25.07,0 -47.47,4.621 -67.21,13.848 -19.74,9.242 -36.51,21.691 -50.29,37.382 -13.79,15.661 -24.29,33.668 -31.49,54.039 -7.21,20.372 -10.81,41.508 -10.81,63.461 0,24.43 3.36,47.688 10.11,69.778 6.73,22.09 16.76,41.441 30.08,58.051 13.31,16.601 29.91,29.839 49.82,39.718 19.89,9.871 43.15,14.801 69.79,14.801 18.17,0 35.32,-2.117 51.47,-6.34 16.13,-4.238 30.55,-10.898 43.24,-19.98 12.69,-9.09 23.33,-20.598 31.96,-34.547 8.61,-13.942 14.48,-30.781 17.62,-50.531 l -44.65,0 c -2.19,12.859 -6.27,23.898 -12.22,33.148 -5.95,9.242 -13.32,16.832 -22.09,22.789 -8.78,5.953 -18.73,10.41 -29.85,13.402 -11.12,2.969 -22.95,4.461 -35.48,4.461 -20.37,0 -37.84,-4.07 -52.4,-12.211 -14.57,-8.16 -26.49,-18.89 -35.72,-32.21 -9.25,-13.321 -16.06,-28.52 -20.45,-45.59 -4.39,-17.078 -6.58,-34.539 -6.58,-52.399 0,-17.551 2.5,-34.39 7.52,-50.531 5.01,-16.129 12.38,-30.391 22.09,-42.77 9.71,-12.371 21.69,-22.25 35.96,-29.609 14.25,-7.359 30.78,-11.031 49.58,-11.031 17.54,0 33.06,2.808 46.53,8.449 13.47,5.652 24.83,13.402 34.08,23.262 9.23,9.879 16.21,21.469 20.91,34.789 4.7,13.308 6.74,27.648 6.11,43.012 l -107.16,0 0,37.597 147.11,0 0,-176.719 -28.2,0 -11.75,41.821 c -13.16,-17.551 -29.46,-30.16 -48.88,-37.84" /><path
         id="path132"
         style="fill:#ffffff;fill-opacity:1;fill-rule:nonzero;stroke:none"
         d="m 4477.47,689.961 c 4.38,-16.449 11.28,-31.262 20.67,-44.41 9.4,-13.172 21.46,-23.742 36.2,-31.731 14.72,-8 32.26,-11.98 52.63,-11.98 20.37,0 37.91,3.98 52.64,11.98 14.73,7.989 26.8,18.559 36.2,31.731 9.4,13.148 16.28,27.961 20.67,44.41 4.39,16.449 6.59,33.129 6.59,50.051 0,16.918 -2.2,33.597 -6.59,50.058 -4.39,16.45 -11.27,31.262 -20.67,44.41 -9.4,13.161 -21.47,23.739 -36.2,31.731 -14.73,7.988 -32.27,11.98 -52.64,11.98 -20.37,0 -37.91,-3.992 -52.63,-11.98 -14.74,-7.992 -26.8,-18.57 -36.2,-31.731 -9.39,-13.148 -16.29,-27.96 -20.67,-44.41 -4.4,-16.461 -6.59,-33.14 -6.59,-50.058 0,-16.922 2.19,-33.602 6.59,-50.051 z m -41.13,116.078 c 6.73,21.16 16.84,39.883 30.32,56.172 13.46,16.289 30.23,29.289 50.28,39.008 20.05,9.711 43.4,14.57 70.03,14.57 26.63,0 49.98,-4.859 70.03,-14.57 20.05,-9.719 36.82,-22.719 50.29,-39.008 13.47,-16.289 23.58,-35.012 30.32,-56.172 6.73,-21.141 10.1,-43.16 10.1,-66.027 0,-22.883 -3.37,-44.883 -10.1,-66.043 -6.74,-21.141 -16.85,-39.867 -30.32,-56.16 -13.47,-16.297 -30.24,-29.219 -50.29,-38.77 -20.05,-9.559 -43.4,-14.328 -70.03,-14.328 -26.63,0 -49.98,4.769 -70.03,14.328 -20.05,9.551 -36.82,22.473 -50.28,38.77 -13.48,16.293 -23.59,35.019 -30.32,56.16 -6.74,21.16 -10.1,43.16 -10.1,66.043 0,22.867 3.36,44.886 10.1,66.027" /><path
         id="path134"
         style="fill:#ffffff;fill-opacity:1;fill-rule:nonzero;stroke:none"
         d="m 4883.54,572.23 -117.97,335.571 47.94,0 95.88,-290.93 0.94,0 96.82,290.93 46.53,0 -119.38,-335.571 -50.76,0" /><path
         id="path136"
         style="fill:#ffffff;fill-opacity:1;fill-rule:nonzero;stroke:none"
         d="m 5321.1,907.801 0,-37.602 -187.06,0 0,-106.679 174.37,0 0,-37.598 -174.37,0 0,-116.102 188.48,0 0,-37.59 -233.13,0 0,335.571 231.71,0" /><path
         id="path138"
         style="fill:#ffffff;fill-opacity:1;fill-rule:nonzero;stroke:none"
         d="m 5543.88,755.531 c 9.4,1.559 17.63,4.61 24.68,9.16 7.05,4.528 12.68,10.637 16.92,18.329 4.23,7.66 6.35,17.621 6.35,29.839 0,16.93 -4.71,30.7 -14.11,41.36 -9.4,10.64 -24.6,15.98 -45.58,15.98 l -110.93,0 0,-117.027 93.06,0 c 10.35,0 20.21,0.777 29.61,2.359 z m -9.4,152.27 c 31.96,0 56.95,-7.84 74.96,-23.5 18.02,-15.672 27.03,-37.129 27.03,-64.391 0,-20.371 -4.62,-38.23 -13.86,-53.578 -9.25,-15.352 -24.06,-25.84 -44.42,-31.492 l 0,-0.93 c 9.71,-1.89 17.62,-5.019 23.73,-9.41 6.12,-4.379 10.97,-9.641 14.57,-15.75 3.61,-6.102 6.27,-12.918 7.99,-20.441 1.72,-7.52 3.07,-15.36 4.01,-23.508 0.62,-8.141 1.09,-16.442 1.4,-24.903 0.32,-8.449 1.1,-16.769 2.35,-24.91 1.25,-8.148 3.06,-15.91 5.41,-23.258 2.34,-7.371 5.88,-13.871 10.57,-19.5 l -49.81,0 c -3.15,3.43 -5.26,8.141 -6.35,14.102 -1.1,5.938 -1.82,12.598 -2.12,19.969 -0.31,7.347 -0.63,15.269 -0.94,23.73 -0.32,8.469 -1.26,16.77 -2.82,24.91 -1.25,8.149 -2.81,15.899 -4.7,23.258 -1.88,7.371 -4.86,13.789 -8.93,19.281 -4.07,5.469 -9.4,9.86 -15.98,13.149 -6.58,3.301 -15.35,4.941 -26.32,4.941 l -109.04,0 0,-143.34 -44.65,0 0,335.571 157.92,0" /><path
         id="path140"
         style="fill:#ffffff;fill-opacity:1;fill-rule:nonzero;stroke:none"
         d="m 5745.52,907.801 176.72,-272.129 0.93,0 0,272.129 42.3,0 0,-335.571 -48.88,0 -175.31,269.301 -0.94,0 0,-269.301 -42.3,0 0,335.571 47.48,0" /><path
         id="path142"
         style="fill:#ffffff;fill-opacity:1;fill-rule:nonzero;stroke:none"
         d="m 6099.89,907.801 105.74,-282 106.23,282 61.1,0 0,-335.571 -42.31,0 0,279.18 -0.93,0 -104.81,-279.18 -38.07,0 -104.82,279.18 -0.94,0 0,-279.18 -42.3,0 0,335.571 61.11,0" /><path
         id="path144"
         style="fill:#ffffff;fill-opacity:1;fill-rule:nonzero;stroke:none"
         d="m 6678.92,907.801 0,-37.602 -187.06,0 0,-106.679 174.36,0 0,-37.598 -174.36,0 0,-116.102 188.46,0 0,-37.59 -233.11,0 0,335.571 231.71,0" /><path
         id="path146"
         style="fill:#ffffff;fill-opacity:1;fill-rule:nonzero;stroke:none"
         d="m 6781.38,907.801 176.72,-272.129 0.93,0 0,272.129 42.31,0 0,-335.571 -48.89,0 -175.31,269.301 -0.94,0 0,-269.301 -42.29,0 0,335.571 47.47,0" /><path
         id="path148"
         style="fill:#ffffff;fill-opacity:1;fill-rule:nonzero;stroke:none"
         d="m 7037.99,870.199 0,37.602 268.37,0 0,-37.602 -111.86,0 0,-297.969 -44.66,0 0,297.969 -111.85,0" /><path
         id="path150"
         style="fill:#ffffff;fill-opacity:1;fill-rule:nonzero;stroke:none"
         d="m 7606.22,747.059 c 25.37,-0.309 43.95,4.851 55.68,15.523 11.76,10.637 17.64,25.988 17.64,46.047 0,20.051 -5.88,35.332 -17.64,45.82 -11.73,10.5 -30.31,15.75 -55.68,15.75 l -87.42,0 0,-123.14 87.42,0 z m 15.04,160.742 c 33.84,0 59.45,-8.699 76.84,-26.082 17.39,-17.387 26.09,-41.758 26.09,-73.09 0,-31.34 -8.7,-55.777 -26.09,-73.32 -17.39,-17.559 -43,-26.168 -76.84,-25.848 l -102.46,0 0,-137.231 -44.65,0 0,335.571 147.11,0" /><path
         id="path152"
         style="fill:#ffffff;fill-opacity:1;fill-rule:nonzero;stroke:none"
         d="m 7915.48,710.879 -55.94,156.5 -0.94,0 -56.87,-156.5 113.75,0 z m -31.02,196.922 131.13,-335.571 -49.35,0 -36.66,101.04 -141.94,0 -37.61,-101.04 -45.59,0 130.67,335.571 49.35,0" /><path
         id="path154"
         style="fill:#ffffff;fill-opacity:1;fill-rule:nonzero;stroke:none"
         d="m 8215.8,755.531 c 9.41,1.559 17.63,4.61 24.68,9.16 7.05,4.528 12.68,10.637 16.91,18.329 4.24,7.66 6.35,17.621 6.35,29.839 0,16.93 -4.7,30.7 -14.1,41.36 -9.4,10.64 -24.6,15.98 -45.59,15.98 l -110.92,0 0,-117.027 93.06,0 c 10.34,0 20.21,0.777 29.61,2.359 z m -9.4,152.27 c 31.96,0 56.95,-7.84 74.97,-23.5 18.01,-15.672 27.02,-37.129 27.02,-64.391 0,-20.371 -4.63,-38.23 -13.87,-53.578 -9.24,-15.352 -24.04,-25.84 -44.41,-31.492 l 0,-0.93 c 9.7,-1.89 17.62,-5.019 23.74,-9.41 6.1,-4.379 10.96,-9.641 14.57,-15.75 3.6,-6.102 6.26,-12.918 7.99,-20.441 1.72,-7.52 3.05,-15.36 3.99,-23.508 0.63,-8.141 1.09,-16.442 1.41,-24.903 0.31,-8.449 1.09,-16.769 2.35,-24.91 1.25,-8.148 3.06,-15.91 5.4,-23.258 2.35,-7.371 5.88,-13.871 10.59,-19.5 l -49.83,0 c -3.13,3.43 -5.25,8.141 -6.35,14.102 -1.09,5.938 -1.8,12.598 -2.1,19.969 -0.32,7.347 -0.64,15.269 -0.94,23.73 -0.32,8.469 -1.27,16.77 -2.83,24.91 -1.25,8.149 -2.82,15.899 -4.69,23.258 -1.89,7.371 -4.87,13.789 -8.94,19.281 -4.07,5.469 -9.4,9.86 -15.98,13.149 -6.59,3.301 -15.36,4.941 -26.31,4.941 l -109.05,0 0,-143.34 -44.64,0 0,335.571 157.91,0" /><path
         id="path156"
         style="fill:#ffffff;fill-opacity:1;fill-rule:nonzero;stroke:none"
         d="m 8326.26,870.199 0,37.602 268.36,0 0,-37.602 -111.86,0 0,-297.969 -44.64,0 0,297.969 -111.86,0" /><path
         id="path158"
         style="fill:#ffffff;fill-opacity:1;fill-rule:nonzero;stroke:none"
         d="m 8678.76,907.801 176.72,-272.129 0.94,0 0,272.129 42.3,0 0,-335.571 -48.89,0 -175.31,269.301 -0.94,0 0,-269.301 -42.3,0 0,335.571 47.48,0" /><path
         id="path160"
         style="fill:#ffffff;fill-opacity:1;fill-rule:nonzero;stroke:none"
         d="m 9202.8,907.801 0,-37.602 -187.07,0 0,-106.679 174.38,0 0,-37.598 -174.38,0 0,-116.102 188.48,0 0,-37.59 -233.13,0 0,335.571 231.72,0" /><path
         id="path162"
         style="fill:#ffffff;fill-opacity:1;fill-rule:nonzero;stroke:none"
         d="m 9425.58,755.531 c 9.39,1.559 17.61,4.61 24.66,9.16 7.05,4.528 12.7,10.637 16.92,18.329 4.24,7.66 6.35,17.621 6.35,29.839 0,16.93 -4.71,30.7 -14.11,41.36 -9.39,10.64 -24.59,15.98 -45.58,15.98 l -110.92,0 0,-117.027 93.05,0 c 10.35,0 20.21,0.777 29.63,2.359 z m -9.42,152.27 c 31.97,0 56.96,-7.84 74.96,-23.5 18.03,-15.672 27.03,-37.129 27.03,-64.391 0,-20.371 -4.62,-38.23 -13.86,-53.578 -9.24,-15.352 -24.05,-25.84 -44.42,-31.492 l 0,-0.93 c 9.71,-1.89 17.64,-5.019 23.73,-9.41 6.12,-4.379 10.98,-9.641 14.57,-15.75 3.62,-6.102 6.27,-12.918 8.01,-20.441 1.7,-7.52 3.05,-15.36 3.99,-23.508 0.62,-8.141 1.09,-16.442 1.4,-24.903 0.31,-8.449 1.1,-16.769 2.37,-24.91 1.23,-8.148 3.04,-15.91 5.39,-23.258 2.36,-7.371 5.88,-13.871 10.58,-19.5 l -49.82,0 c -3.15,3.43 -5.26,8.141 -6.35,14.102 -1.09,5.938 -1.8,12.598 -2.11,19.969 -0.31,7.347 -0.64,15.269 -0.94,23.73 -0.31,8.469 -1.27,16.77 -2.83,24.91 -1.25,8.149 -2.81,15.899 -4.69,23.258 -1.89,7.371 -4.86,13.789 -8.94,19.281 -4.06,5.469 -9.4,9.86 -15.98,13.149 -6.58,3.301 -15.35,4.941 -26.31,4.941 l -109.04,0 0,-143.34 -44.65,0 0,335.571 157.91,0" /><path
         id="path164"
         style="fill:none;stroke:#ffffff;stroke-width:40;stroke-linecap:butt;stroke-linejoin:miter;stroke-miterlimit:10;stroke-dasharray:none;stroke-opacity:1"
         d="m 10470,4240 c 0,99.41 -80.6,180 -180,180 L 200,4420 C 100.59,4420 20,4339.41 20,4240 L 20,200 C 20,100.59 100.59,20 200,20 l 10090,0 c 99.4,0 180,80.59 180,180 l 0,4040 z" /></g></g></svg>