<?xml version="1.0" standalone="no"?>
<!DOCTYPE svg PUBLIC "-//W3C//DTD SVG 20010904//EN"
 "http://www.w3.org/TR/2001/REC-SVG-20010904/DTD/svg10.dtd">
<svg version="1.0" xmlns="http://www.w3.org/2000/svg"
 width="1235.000000pt" height="776.000000pt" viewBox="0 0 1235.000000 776.000000"
 preserveAspectRatio="xMidYMid meet">
<metadata>
Created by potrace 1.14, written by Peter Selinger 2001-2017
</metadata>
<g transform="translate(0.000000,776.000000) scale(0.100000,-0.100000)"
fill="#ffffff" stroke="none">
<path d="M4893 7122 l-1103 -637 0 -1230 1 -1230 1104 -637 1105 -637 1105
637 1104 637 1 1230 0 1230 -1104 638 c-607 350 -1105 637 -1107 637 -2 0
-500 -287 -1106 -638z m2027 -336 l905 -523 3 -1005 2 -1006 -907 -523 c-499
-288 -914 -524 -923 -524 -9 0 -424 236 -923 524 l-907 523 2 1006 3 1005 905
523 c498 288 912 523 920 523 8 0 422 -235 920 -523z"/>
<path d="M5340 6547 c-471 -273 -626 -367 -627 -382 -3 -17 101 -80 627 -382
455 -263 638 -363 660 -363 22 0 205 100 660 363 526 302 630 365 627 382 -3
30 -1238 744 -1287 744 -28 0 -163 -74 -660 -362z"/>
<path d="M4517 5944 c-4 -4 -7 -340 -7 -746 0 -692 1 -739 18 -755 26 -27
1306 -763 1325 -763 16 0 17 55 17 744 0 694 -1 745 -17 764 -19 20 -1280 750
-1311 759 -10 2 -21 1 -25 -3z"/>
<path d="M6130 4350 c0 -551 2 -662 14 -666 20 -8 1146 645 1146 665 -1 18
-1095 654 -1136 659 l-24 3 0 -661z"/>
<path d="M579 1380 c-303 -38 -485 -182 -555 -440 -26 -94 -26 -355 -1 -463
55 -233 204 -387 434 -448 163 -44 476 -35 636 17 l47 16 0 114 c0 63 -2 114
-3 114 -2 0 -30 -9 -61 -20 -153 -52 -354 -65 -489 -31 -96 25 -128 42 -190
99 -75 71 -110 149 -127 289 -25 196 34 368 155 454 135 96 398 113 627 39
l88 -28 0 118 0 117 -62 17 c-35 9 -85 21 -113 26 -71 14 -308 20 -386 10z"/>
<path d="M1812 1380 c-321 -45 -497 -234 -532 -570 -22 -222 29 -446 136 -586
117 -154 288 -224 549 -224 159 0 256 19 365 72 148 72 242 194 287 373 25
101 25 380 0 488 -54 227 -193 370 -416 428 -88 23 -291 33 -389 19z m305
-235 c108 -32 196 -121 228 -228 39 -129 42 -287 9 -415 -32 -123 -106 -212
-213 -254 -47 -19 -75 -22 -181 -22 -106 0 -133 3 -182 22 -158 63 -238 215
-238 452 0 264 111 423 320 459 71 13 191 6 257 -14z"/>
<path d="M2840 695 l0 -685 120 0 120 0 2 462 3 462 184 -462 184 -462 111 0
111 0 180 462 180 462 3 -462 2 -462 120 0 120 0 0 685 0 685 -128 0 -128 0
-224 -515 c-124 -283 -227 -515 -230 -515 -3 0 -108 232 -235 515 l-230 515
-132 0 -133 0 0 -685z"/>
<path d="M4570 695 l0 -685 115 0 115 0 2 471 3 472 186 -469 186 -469 114 0
113 0 181 464 180 463 3 -466 2 -466 120 0 120 0 0 685 0 686 -130 -3 -131 -3
-221 -505 c-121 -278 -223 -509 -228 -513 -4 -4 -67 126 -140 290 -74 164
-177 395 -230 513 l-96 215 -132 3 -132 3 0 -686z"/>
<path d="M6125 1343 c9 -21 138 -329 287 -685 l272 -648 140 0 141 1 295 675
c162 371 297 679 298 684 2 6 -53 10 -146 10 l-150 0 -50 -122 c-27 -68 -121
-298 -207 -513 -86 -214 -160 -393 -164 -397 -3 -4 -101 226 -216 512 l-210
520 -153 0 -152 0 15 -37z"/>
<path d="M7845 1348 c-7 -18 -136 -321 -285 -673 -150 -352 -274 -646 -277
-653 -4 -10 23 -12 128 -10 l133 3 220 542 c122 299 224 543 227 543 4 0 186
-408 214 -483 6 -15 -6 -17 -131 -19 l-138 -3 -42 -105 -42 -105 216 -5 216
-5 84 -182 85 -183 138 0 138 0 -110 253 c-61 138 -194 447 -297 684 l-187
433 -138 0 -138 0 -14 -32z"/>
<path d="M8762 898 c4 -418 7 -491 22 -542 49 -172 153 -277 326 -331 85 -26
323 -32 431 -11 193 40 307 132 371 302 22 58 23 70 26 562 l3 502 -125 0
-125 0 -3 -467 c-3 -417 -5 -473 -21 -514 -26 -66 -70 -114 -135 -146 -53 -26
-66 -28 -177 -28 -104 0 -127 3 -171 23 -63 29 -106 72 -136 137 -23 50 -23
53 -26 523 l-3 472 -130 0 -131 0 4 -482z"/>
<path d="M10200 695 l0 -685 450 0 450 0 0 110 0 110 -320 0 -320 0 0 575 0
575 -130 0 -130 0 0 -685z"/>
<path d="M10960 1270 l0 -110 195 0 195 0 0 -575 0 -575 130 0 130 0 0 575 0
575 195 0 195 0 0 110 0 110 -520 0 -520 0 0 -110z"/>
</g>
</svg>
