<svg xmlns="http://www.w3.org/2000/svg" viewBox="0 0 60 60">
  <g fill="none">
    <polygon fill="#475796" points="3 48 12 39 18 47 25 32 31 40 42 23 48 31 59 14 59 57 3 57"/>
    <polygon fill="#313F78" points="18.201 48.935 11.892 40.522 3.707 48.707 2.293 47.293 12.108 37.478 17.799 45.065 24.799 30.065 30.939 38.253 41.939 21.253 47.939 29.253 58.16 13.457 59.84 14.543 48.061 32.747 42.061 24.747 31.061 41.747 25.201 33.935"/>
    <path fill="#313F78" d="M3,60 C2.447,60 2,59.553 2,59 L2,1 C2,0.447 2.447,0 3,0 C3.553,0 4,0.447 4,1 L4,59 C4,59.553 3.553,60 3,60 Z"/>
    <path fill="#313F78" d="M59,58 L1,58 C0.447,58 0,57.553 0,57 C0,56.447 0.447,56 1,56 L59,56 C59.553,56 60,56.447 60,57 C60,57.553 59.553,58 59,58 Z"/>
  </g>
</svg>
